STARTFONT 2.1
FONT -Adobe-Utopia-Regular-I-Normal--25-180-100-100-P-134-ISO10646-1
SIZE 18 100 100
FONTBOUNDINGBOX 34 42 -4 -13
COMMENT $Xorg: $
COMMENT ISO10646-1 extension by Markus Kuhn <mkuhn@acm.org>, 2001-03-20
STARTPROPERTIES 28
FOUNDRY "Adobe"
FAMILY_NAME "Utopia"
WEIGHT_NAME "Regular"
SLANT "I"
SETWIDTH_NAME "Normal"
ADD_STYLE_NAME ""
PIXEL_SIZE 25
POINT_SIZE 180
RESOLUTION_X 100
RESOLUTION_Y 100
SPACING "P"
AVERAGE_WIDTH 134
CHARSET_REGISTRY "ISO10646"
CHARSET_ENCODING "1"
CAP_HEIGHT 17
X_HEIGHT 12
RELATIVE_SETWIDTH 50
RELATIVE_WEIGHT 50
WEIGHT 130
FACE_NAME "Utopia Italic"
COPYRIGHT "Copyright (c) 1989, 1991 Adobe Systems Incorporated.  All Rights Reserved."
NOTICE "Utopia is a registered trademark of Adobe Systems Incorporated."
DESTINATION 0
FONT_ASCENT 23
FONT_DESCENT 6
DEFAULT_CHAR 0
_ADOBE_PSFONT "Utopia-Italic"
_DEC_DEVICE_FONTNAMES "PS=Utopia-Italic"
ENDPROPERTIES
CHARS 723
STARTCHAR char0
ENCODING 0
SWIDTH 775 0
DWIDTH 19 0
BBX 21 17 1 0
BITMAP
AAAAA8
000000
800008
000000
800008
000000
800008
000000
800008
000000
800008
000000
800008
000000
800008
000000
AAAAA8
ENDCHAR
STARTCHAR space
ENCODING 32
SWIDTH 225 0
DWIDTH 6 0
BBX 0 0 0 0
BITMAP
ENDCHAR
STARTCHAR exclam
ENCODING 33
SWIDTH 240 0
DWIDTH 6 0
BBX 6 18 2 0
BITMAP
0C
1C
1C
18
18
18
10
30
30
20
20
20
00
00
00
E0
E0
C0
ENDCHAR
STARTCHAR quotedbl
ENCODING 34
SWIDTH 402 0
DWIDTH 10 0
BBX 7 7 5 12
BITMAP
66
EE
CC
CC
CC
88
88
ENDCHAR
STARTCHAR numbersign
ENCODING 35
SWIDTH 530 0
DWIDTH 13 0
BBX 13 16 2 0
BITMAP
0310
0230
0620
0420
0460
3FF8
08C0
0880
1880
FFE0
3100
2100
2300
6200
4200
4600
ENDCHAR
STARTCHAR dollar
ENCODING 36
SWIDTH 530 0
DWIDTH 13 0
BBX 14 22 1 -3
BITMAP
0040
0040
03E0
0E58
08CC
188C
1880
1880
0F00
0F80
03C0
01E0
0370
0230
0230
C230
6620
74C0
0F80
0400
0800
0800
ENDCHAR
STARTCHAR percent
ENCODING 37
SWIDTH 826 0
DWIDTH 21 0
BBX 18 18 3 0
BITMAP
000080
0E0180
31FF00
618200
618400
C18800
C39800
C33000
466000
3C4700
009880
0130C0
0230C0
0660C0
0C61C0
186180
102300
201E00
ENDCHAR
STARTCHAR ampersand
ENCODING 38
SWIDTH 725 0
DWIDTH 18 0
BBX 16 17 3 0
BITMAP
0380
0CE0
0860
1860
1840
1880
0D06
0E07
1E06
670C
4388
C3D0
C1F0
C0E0
E070
61BC
3E0E
ENDCHAR
STARTCHAR quotesingle
ENCODING 39
SWIDTH 216 0
DWIDTH 5 0
BBX 3 7 5 12
BITMAP
60
E0
C0
C0
C0
80
80
ENDCHAR
STARTCHAR parenleft
ENCODING 40
SWIDTH 350 0
DWIDTH 9 0
BBX 9 21 3 -3
BITMAP
0180
0600
0C00
1800
1800
3000
3000
6000
6000
6000
4000
C000
C000
C000
C000
C000
4000
4000
6000
2000
1000
ENDCHAR
STARTCHAR parenright
ENCODING 41
SWIDTH 350 0
DWIDTH 9 0
BBX 9 21 0 -3
BITMAP
0400
0600
0300
0100
0100
0180
0180
0180
0180
0180
0100
0300
0300
0300
0600
0600
0C00
0C00
1800
3000
C000
ENDCHAR
STARTCHAR asterisk
ENCODING 42
SWIDTH 412 0
DWIDTH 10 0
BBX 9 9 3 9
BITMAP
0400
0C00
6980
3F00
1800
6E00
CB00
1800
1000
ENDCHAR
STARTCHAR plus
ENCODING 43
SWIDTH 570 0
DWIDTH 14 0
BBX 12 13 2 0
BITMAP
0600
0600
0600
0600
0600
0600
FFF0
0600
0600
0600
0600
0600
0600
ENDCHAR
STARTCHAR comma
ENCODING 44
SWIDTH 265 0
DWIDTH 7 0
BBX 4 7 1 -3
BITMAP
20
70
30
30
20
40
80
ENDCHAR
STARTCHAR hyphen
ENCODING 45
SWIDTH 392 0
DWIDTH 10 0
BBX 6 2 3 5
BITMAP
FC
FC
ENDCHAR
STARTCHAR period
ENCODING 46
SWIDTH 265 0
DWIDTH 7 0
BBX 3 3 2 0
BITMAP
E0
E0
E0
ENDCHAR
STARTCHAR slash
ENCODING 47
SWIDTH 270 0
DWIDTH 7 0
BBX 9 18 1 0
BITMAP
0180
0300
0300
0300
0600
0600
0400
0C00
0C00
1800
1800
1000
3000
3000
6000
6000
6000
C000
ENDCHAR
STARTCHAR zero
ENCODING 48
SWIDTH 530 0
DWIDTH 13 0
BBX 12 17 2 0
BITMAP
07C0
0C60
1820
3830
7030
6030
6030
6030
E070
C060
C060
C060
C0E0
C0C0
4180
6300
3E00
ENDCHAR
STARTCHAR one
ENCODING 49
SWIDTH 530 0
DWIDTH 13 0
BBX 9 17 3 0
BITMAP
0180
1F80
0300
0300
0300
0300
0700
0600
0600
0600
0E00
0C00
0C00
0C00
1C00
1C00
FF00
ENDCHAR
STARTCHAR two
ENCODING 50
SWIDTH 530 0
DWIDTH 13 0
BBX 13 17 1 0
BITMAP
03E0
0E30
1C18
1818
1818
0018
0030
0070
00C0
0180
0700
0C00
1800
3000
6030
FFE0
FFE0
ENDCHAR
STARTCHAR three
ENCODING 51
SWIDTH 530 0
DWIDTH 13 0
BBX 12 17 2 0
BITMAP
0380
0C60
1830
1830
0030
0060
00E0
0F00
00C0
0060
0060
0060
0060
C060
E0C0
7180
1F00
ENDCHAR
STARTCHAR four
ENCODING 52
SWIDTH 530 0
DWIDTH 13 0
BBX 11 17 2 0
BITMAP
0060
00E0
01E0
03C0
02C0
04C0
08C0
18C0
3180
6180
4180
FFE0
0100
0300
0300
0300
1FC0
ENDCHAR
STARTCHAR five
ENCODING 53
SWIDTH 530 0
DWIDTH 13 0
BBX 13 17 1 0
BITMAP
0FF8
0FF8
0800
0800
1800
1000
17C0
1860
3070
0030
0030
0030
4030
C060
E060
71C0
1F00
ENDCHAR
STARTCHAR six
ENCODING 54
SWIDTH 530 0
DWIDTH 13 0
BBX 13 17 2 0
BITMAP
03E0
0C30
1818
3018
3000
6000
6000
6F80
50C0
E060
C060
C060
C060
C0C0
40C0
6180
1E00
ENDCHAR
STARTCHAR seven
ENCODING 55
SWIDTH 530 0
DWIDTH 13 0
BBX 12 17 4 0
BITMAP
7FF0
7FF0
C060
0040
00C0
0180
0300
0600
0400
0800
1800
3000
3000
7000
6000
E000
6000
ENDCHAR
STARTCHAR eight
ENCODING 56
SWIDTH 530 0
DWIDTH 13 0
BBX 12 17 2 0
BITMAP
03C0
0C60
1C30
1830
1830
1860
0C40
0F80
30C0
6040
C060
C060
C060
C060
E0C0
7180
1F00
ENDCHAR
STARTCHAR nine
ENCODING 57
SWIDTH 530 0
DWIDTH 13 0
BBX 12 17 2 0
BITMAP
0780
1860
3060
2030
6030
6030
6030
7070
30F0
1F70
0060
0060
00E0
C0C0
C1C0
6380
3E00
ENDCHAR
STARTCHAR colon
ENCODING 58
SWIDTH 265 0
DWIDTH 7 0
BBX 5 13 2 0
BITMAP
10
38
38
00
00
00
00
00
00
00
E0
E0
40
ENDCHAR
STARTCHAR semicolon
ENCODING 59
SWIDTH 265 0
DWIDTH 7 0
BBX 6 15 1 -2
BITMAP
08
1C
1C
00
00
00
00
00
00
70
30
30
20
60
C0
ENDCHAR
STARTCHAR less
ENCODING 60
SWIDTH 570 0
DWIDTH 14 0
BBX 12 13 2 0
BITMAP
0020
00E0
03E0
0F00
3C00
F000
8000
E000
3800
0F00
03C0
00E0
0010
ENDCHAR
STARTCHAR equal
ENCODING 61
SWIDTH 570 0
DWIDTH 14 0
BBX 12 6 2 3
BITMAP
FFF0
0000
0000
0000
0000
FFF0
ENDCHAR
STARTCHAR greater
ENCODING 62
SWIDTH 570 0
DWIDTH 14 0
BBX 12 13 2 0
BITMAP
4000
7000
7C00
0F00
03C0
00F0
0010
0070
01C0
0F00
3C00
7000
8000
ENDCHAR
STARTCHAR question
ENCODING 63
SWIDTH 425 0
DWIDTH 11 0
BBX 8 18 4 0
BITMAP
3C
62
E3
C3
07
06
0E
18
30
60
C0
C0
78
00
00
60
E0
60
ENDCHAR
STARTCHAR at
ENCODING 64
SWIDTH 794 0
DWIDTH 20 0
BBX 18 18 3 0
BITMAP
01F800
070600
1C0100
380080
300C80
607C40
60C840
418840
C31840
C31840
C61080
C67080
C6B300
631C00
600000
300000
1C0C00
07F000
ENDCHAR
STARTCHAR A
ENCODING 65
SWIDTH 624 0
DWIDTH 16 0
BBX 17 18 -1 0
BITMAP
001800
001800
003800
003C00
005C00
00CC00
008C00
018C00
010C00
020C00
03FC00
040E00
040E00
080E00
180600
100600
300600
FC1F80
ENDCHAR
STARTCHAR B
ENCODING 66
SWIDTH 632 0
DWIDTH 16 0
BBX 15 18 1 0
BITMAP
0FF8
070C
0706
0706
0606
0604
060C
0618
0FE0
0C38
0C0C
0C0E
0C0E
180E
180C
181C
1838
FFE0
ENDCHAR
STARTCHAR C
ENCODING 67
SWIDTH 661 0
DWIDTH 17 0
BBX 16 18 3 0
BITMAP
01F8
0707
0C03
1802
3802
7000
7000
6000
E000
E000
E000
E000
E000
6004
7008
3018
1838
07E0
ENDCHAR
STARTCHAR D
ENCODING 68
SWIDTH 763 0
DWIDTH 19 0
BBX 19 18 1 0
BITMAP
1FFC00
070700
070180
0601C0
0600C0
0600E0
0E00E0
0E00E0
0C00E0
0C00E0
0C00C0
1C01C0
180180
180380
180700
380E00
383C00
FFE000
ENDCHAR
STARTCHAR E
ENCODING 69
SWIDTH 596 0
DWIDTH 15 0
BBX 17 18 1 0
BITMAP
0FFF80
030380
030100
030100
070100
060000
060000
060400
060C00
0FF800
0C0800
0C0800
0C0000
0C0200
180400
180400
380C00
FFF800
ENDCHAR
STARTCHAR F
ENCODING 70
SWIDTH 571 0
DWIDTH 14 0
BBX 17 18 1 0
BITMAP
0FFF80
030380
030100
030100
070100
060000
060000
060400
060C00
0FFC00
0C0800
0C0800
0C0000
0C0000
180000
180000
380000
FF0000
ENDCHAR
STARTCHAR G
ENCODING 71
SWIDTH 709 0
DWIDTH 18 0
BBX 16 18 3 0
BITMAP
01FC
0707
0C03
1802
3802
3000
7000
6000
E000
E000
E03F
E00E
E00C
600C
701C
3018
1C18
07E0
ENDCHAR
STARTCHAR H
ENCODING 72
SWIDTH 775 0
DWIDTH 19 0
BBX 21 18 1 0
BITMAP
0FC3F8
0300E0
0300C0
0700C0
0600C0
0601C0
060180
0E0180
0E0180
0FFF80
0C0380
0C0300
1C0300
1C0300
180700
180700
380600
FE1F80
ENDCHAR
STARTCHAR I
ENCODING 73
SWIDTH 345 0
DWIDTH 9 0
BBX 11 18 1 0
BITMAP
0FE0
0380
0300
0300
0700
0600
0600
0600
0E00
0E00
0C00
0C00
1C00
1C00
1800
1800
3800
FE00
ENDCHAR
STARTCHAR J
ENCODING 74
SWIDTH 352 0
DWIDTH 9 0
BBX 13 21 -1 -3
BITMAP
03F8
00E0
00C0
00C0
01C0
01C0
0180
0180
0380
0380
0300
0300
0300
0700
0700
0600
0E00
0C00
1C00
3800
E000
ENDCHAR
STARTCHAR K
ENCODING 75
SWIDTH 650 0
DWIDTH 16 0
BBX 19 18 1 0
BITMAP
0FC7E0
030300
020600
020C00
061000
066000
06C000
058000
0F8000
0F8000
0DC000
0CC000
1CE000
1C7000
187000
183800
381C00
FE0700
ENDCHAR
STARTCHAR L
ENCODING 76
SWIDTH 565 0
DWIDTH 14 0
BBX 14 18 1 0
BITMAP
0FE0
0300
0300
0700
0600
0600
0600
0E00
0E00
0C00
0C00
0C00
1C00
1804
1804
1808
3818
FFF8
ENDCHAR
STARTCHAR M
ENCODING 77
SWIDTH 920 0
DWIDTH 23 0
BBX 26 18 0 0
BITMAP
0F800FC0
03800E00
03C01E00
03C01E00
02C02C00
04C06C00
04C04C00
04E08C00
04E19C00
0C611800
08621800
08621800
08743800
187C3000
18383000
10303000
30307000
FC21FC00
ENDCHAR
STARTCHAR N
ENCODING 78
SWIDTH 763 0
DWIDTH 19 0
BBX 22 18 0 0
BITMAP
0F80FC
038030
03C020
02C060
04E060
04E040
047040
047040
0430C0
083880
081880
081C80
080C80
180F80
180F00
100700
300700
FC0300
ENDCHAR
STARTCHAR O
ENCODING 79
SWIDTH 753 0
DWIDTH 19 0
BBX 17 18 3 0
BITMAP
01F800
070C00
0C0600
1C0300
380300
300380
700380
700380
E00380
E00380
E00700
E00700
E00700
600E00
600C00
301800
183000
07C000
ENDCHAR
STARTCHAR P
ENCODING 80
SWIDTH 614 0
DWIDTH 15 0
BBX 16 18 1 0
BITMAP
0FF0
030C
0306
0307
0607
0607
0606
060E
060C
0E38
0FE0
0C00
0C00
1C00
1800
1800
3800
FE00
ENDCHAR
STARTCHAR Q
ENCODING 81
SWIDTH 753 0
DWIDTH 19 0
BBX 17 23 3 -5
BITMAP
01F800
070C00
0C0600
1C0300
380300
300380
700380
700380
E00380
E00380
E00700
E00700
E00700
600E00
600C00
301800
183000
07C000
038000
01C000
00E000
007000
001E00
ENDCHAR
STARTCHAR R
ENCODING 82
SWIDTH 640 0
DWIDTH 16 0
BBX 16 18 1 0
BITMAP
0FF8
030E
0306
0707
0607
0607
0606
0E0E
0E18
0FF0
0C38
0C18
1C18
1C18
1818
1818
381C
FE0E
ENDCHAR
STARTCHAR S
ENCODING 83
SWIDTH 533 0
DWIDTH 13 0
BBX 13 18 1 0
BITMAP
03E0
0618
0818
1818
1810
1800
1E00
0F00
07C0
01E0
00E0
0070
4030
4030
4030
E060
70C0
1F00
ENDCHAR
STARTCHAR T
ENCODING 84
SWIDTH 606 0
DWIDTH 15 0
BBX 15 18 4 0
BITMAP
FFFE
C30E
8304
8304
0700
0700
0600
0600
0600
0E00
0C00
0C00
0C00
1C00
1C00
1800
1800
FF00
ENDCHAR
STARTCHAR U
ENCODING 85
SWIDTH 794 0
DWIDTH 20 0
BBX 18 18 4 0
BITMAP
FE1FC0
380700
300700
300600
700600
600E00
600E00
600C00
600C00
600C00
C01C00
C01800
C01800
C03800
C03000
607000
70E000
1F8000
ENDCHAR
STARTCHAR V
ENCODING 86
SWIDTH 637 0
DWIDTH 16 0
BBX 17 18 3 0
BITMAP
FC1F80
300600
300400
300C00
300800
381800
381000
182000
186000
184000
18C000
188000
198000
1D0000
1E0000
0E0000
0C0000
0C0000
ENDCHAR
STARTCHAR W
ENCODING 87
SWIDTH 946 0
DWIDTH 24 0
BBX 25 18 3 0
BITMAP
FC001F80
30180600
301C0400
303C0C00
302C0800
302C1800
304C1000
304C1000
308C2000
308C2000
110E4000
190E4000
1A068000
1A068000
1C070000
1C070000
1C070000
18060000
ENDCHAR
STARTCHAR X
ENCODING 88
SWIDTH 632 0
DWIDTH 16 0
BBX 19 18 0 0
BITMAP
0FC7E0
070180
038300
018600
018C00
01C800
00D000
00E000
006000
00E000
01F000
013000
023800
061800
0C1C00
181C00
300E00
FC3F80
ENDCHAR
STARTCHAR Y
ENCODING 89
SWIDTH 591 0
DWIDTH 15 0
BBX 16 18 3 0
BITMAP
FC3F
380C
1818
1810
1830
1C60
0C40
0C80
0D80
0700
0600
0600
0600
0C00
0C00
0C00
0C00
7F00
ENDCHAR
STARTCHAR Z
ENCODING 90
SWIDTH 622 0
DWIDTH 16 0
BBX 18 18 0 0
BITMAP
07FFC0
0603C0
040780
080F00
001E00
001C00
003800
007000
00E000
01E000
03C000
078000
0F0000
0E0100
1C0200
380200
700E00
FFFC00
ENDCHAR
STARTCHAR bracketleft
ENCODING 91
SWIDTH 330 0
DWIDTH 8 0
BBX 9 21 2 -3
BITMAP
0780
0400
0C00
0C00
0800
0800
1800
1800
1800
1000
3000
3000
3000
2000
2000
6000
6000
4000
4000
C000
F000
ENDCHAR
STARTCHAR backslash
ENCODING 92
SWIDTH 390 0
DWIDTH 10 0
BBX 7 18 3 0
BITMAP
C0
C0
40
60
60
20
30
30
30
18
18
18
08
0C
0C
04
06
06
ENDCHAR
STARTCHAR bracketright
ENCODING 93
SWIDTH 330 0
DWIDTH 8 0
BBX 9 21 0 -3
BITMAP
0780
0180
0100
0100
0300
0300
0200
0200
0600
0600
0600
0400
0C00
0C00
0C00
0800
0800
1800
1800
1000
F000
ENDCHAR
STARTCHAR asciicircum
ENCODING 94
SWIDTH 570 0
DWIDTH 14 0
BBX 12 11 3 6
BITMAP
0600
0F00
0F00
0980
1980
1080
30C0
30C0
6060
6060
C030
ENDCHAR
STARTCHAR underscore
ENCODING 95
SWIDTH 500 0
DWIDTH 12 0
BBX 12 1 0 -3
BITMAP
FFF0
ENDCHAR
STARTCHAR grave
ENCODING 96
SWIDTH 400 0
DWIDTH 10 0
BBX 6 5 4 13
BITMAP
40
E0
70
18
04
ENDCHAR
STARTCHAR a
ENCODING 97
SWIDTH 561 0
DWIDTH 14 0
BBX 13 13 2 0
BITMAP
03D8
0E30
1C30
3830
3070
6060
6060
C0E0
C160
C148
C2C8
CCD0
70E0
ENDCHAR
STARTCHAR b
ENCODING 98
SWIDTH 559 0
DWIDTH 14 0
BBX 12 19 3 0
BITMAP
0C00
3C00
1C00
1800
1800
1800
18E0
3330
3430
3830
3830
7030
7060
7060
6060
60C0
E180
B300
9E00
ENDCHAR
STARTCHAR c
ENCODING 99
SWIDTH 441 0
DWIDTH 11 0
BBX 10 13 2 0
BITMAP
0780
18C0
30C0
2080
6000
4000
C000
C000
C000
C080
C100
6200
3C00
ENDCHAR
STARTCHAR d
ENCODING 100
SWIDTH 587 0
DWIDTH 15 0
BBX 14 19 2 0
BITMAP
000C
007C
0018
0018
0018
0018
03F8
0E30
1830
3030
3070
6060
60E0
C0E0
C160
C1C8
C2C8
CCD0
70E0
ENDCHAR
STARTCHAR e
ENCODING 101
SWIDTH 453 0
DWIDTH 11 0
BBX 10 13 2 0
BITMAP
0700
18C0
30C0
60C0
6180
4380
CE00
F000
C000
C080
C100
6200
3C00
ENDCHAR
STARTCHAR f
ENCODING 102
SWIDTH 315 0
DWIDTH 8 0
BBX 15 25 -2 -6
BITMAP
003C
006E
00C6
00C0
01C0
0180
07F0
0180
0380
0300
0300
0300
0300
0300
0600
0600
0600
0600
0600
0C00
0C00
0C00
4800
C800
7000
ENDCHAR
STARTCHAR g
ENCODING 103
SWIDTH 499 0
DWIDTH 12 0
BBX 14 19 1 -6
BITMAP
078C
0C7C
1830
3830
3030
3030
3060
18E0
0F80
1000
3800
3F00
17C0
60E0
C060
C060
C060
70C0
1F00
ENDCHAR
STARTCHAR h
ENCODING 104
SWIDTH 607 0
DWIDTH 15 0
BBX 12 19 3 0
BITMAP
0C00
3C00
0C00
1C00
1800
1800
18E0
3930
3230
3430
3860
3860
7060
70C0
60C0
60D0
E190
C1A0
C1C0
ENDCHAR
STARTCHAR i
ENCODING 105
SWIDTH 317 0
DWIDTH 8 0
BBX 6 18 3 0
BITMAP
0C
1C
1C
00
00
18
F0
30
30
30
60
60
60
60
48
C8
D0
E0
ENDCHAR
STARTCHAR j
ENCODING 106
SWIDTH 309 0
DWIDTH 8 0
BBX 11 24 -2 -6
BITMAP
00C0
00E0
00C0
0000
0000
00C0
07C0
01C0
0180
0180
0180
0180
0300
0300
0300
0300
0700
0600
0600
0600
0400
4C00
EC00
7000
ENDCHAR
STARTCHAR k
ENCODING 107
SWIDTH 545 0
DWIDTH 14 0
BBX 13 19 2 0
BITMAP
0600
3E00
0C00
0C00
0C00
1C00
1838
18F8
1980
3A00
3400
3600
3E00
7600
6700
6710
6310
E3A0
C1C0
ENDCHAR
STARTCHAR l
ENCODING 108
SWIDTH 306 0
DWIDTH 8 0
BBX 6 19 3 0
BITMAP
0C
7C
1C
18
18
18
38
30
30
30
30
60
60
60
60
C8
C8
D0
E0
ENDCHAR
STARTCHAR m
ENCODING 109
SWIDTH 912 0
DWIDTH 23 0
BBX 20 13 3 0
BITMAP
18F1C0
793260
1A3460
343860
382840
3870C0
3070C0
7060C0
6060C0
60E190
60C190
E0C1A0
C1C1C0
ENDCHAR
STARTCHAR n
ENCODING 110
SWIDTH 618 0
DWIDTH 15 0
BBX 12 13 3 0
BITMAP
18E0
F930
1A30
3430
3860
3860
3060
70C0
60C0
60D0
E190
C1A0
C1C0
ENDCHAR
STARTCHAR o
ENCODING 111
SWIDTH 537 0
DWIDTH 13 0
BBX 12 13 2 0
BITMAP
07C0
1C60
3830
7030
6030
6030
C070
C060
C060
C0E0
C1C0
6380
3C00
ENDCHAR
STARTCHAR p
ENCODING 112
SWIDTH 590 0
DWIDTH 15 0
BBX 14 19 1 -6
BITMAP
0E38
3CCC
0D0C
0D0C
0E0C
1C0C
1C18
1818
1818
1830
3060
38E0
3780
3000
7000
6000
6000
6000
C000
ENDCHAR
STARTCHAR q
ENCODING 113
SWIDTH 559 0
DWIDTH 14 0
BBX 13 20 2 -6
BITMAP
0008
03D0
0C30
1830
3070
3060
6060
60E0
C0E0
C1E0
C2C0
C2C0
CCC0
71C0
0180
0180
0180
0380
0300
0200
ENDCHAR
STARTCHAR r
ENCODING 114
SWIDTH 402 0
DWIDTH 10 0
BBX 9 13 3 0
BITMAP
3980
F380
3500
3800
3000
7000
7000
6000
6000
E000
E000
C000
C000
ENDCHAR
STARTCHAR s
ENCODING 115
SWIDTH 389 0
DWIDTH 10 0
BBX 9 13 1 0
BITMAP
0F00
1180
3180
3000
3800
1C00
0E00
0600
0700
4300
C300
E200
3C00
ENDCHAR
STARTCHAR t
ENCODING 116
SWIDTH 341 0
DWIDTH 9 0
BBX 8 16 3 0
BITMAP
08
18
38
FF
30
30
30
60
60
60
60
60
C4
C8
D0
E0
ENDCHAR
STARTCHAR u
ENCODING 117
SWIDTH 618 0
DWIDTH 15 0
BBX 13 13 3 0
BITMAP
1818
F830
3030
3030
7070
6060
6060
60E0
6160
C148
C2C8
CCD0
F0E0
ENDCHAR
STARTCHAR v
ENCODING 118
SWIDTH 510 0
DWIDTH 13 0
BBX 11 13 3 0
BITMAP
3040
F060
3060
6060
6040
6040
6080
6080
C100
C200
C400
C800
7000
ENDCHAR
STARTCHAR w
ENCODING 119
SWIDTH 785 0
DWIDTH 20 0
BBX 18 13 3 0
BITMAP
303080
F030C0
3060C0
7060C0
606080
606080
60E080
60C100
C1C100
C1C200
C2C400
CCC800
707000
ENDCHAR
STARTCHAR x
ENCODING 120
SWIDTH 516 0
DWIDTH 13 0
BBX 13 13 1 0
BITMAP
0C18
3E78
0640
0680
0700
0300
0300
0700
0700
0B90
1990
F1A0
C0C0
ENDCHAR
STARTCHAR y
ENCODING 121
SWIDTH 468 0
DWIDTH 12 0
BBX 13 19 0 -6
BITMAP
0C08
3C18
0C18
0C10
0C10
0C20
0E20
0640
0640
0680
0780
0700
0700
0600
0400
0400
0800
D800
E000
ENDCHAR
STARTCHAR z
ENCODING 122
SWIDTH 468 0
DWIDTH 12 0
BBX 12 13 1 0
BITMAP
0FF0
1FF0
1060
20C0
0180
0300
0600
0C00
1810
3020
7C20
CFE0
C1C0
ENDCHAR
STARTCHAR braceleft
ENCODING 123
SWIDTH 340 0
DWIDTH 8 0
BBX 8 21 3 -3
BITMAP
03
0C
08
18
18
18
18
18
18
30
E0
20
30
30
60
60
60
C0
C0
C0
30
ENDCHAR
STARTCHAR bar
ENCODING 124
SWIDTH 270 0
DWIDTH 7 0
BBX 2 18 4 0
BITMAP
C0
C0
C0
C0
C0
C0
C0
C0
C0
C0
C0
C0
C0
C0
C0
C0
C0
C0
ENDCHAR
STARTCHAR braceright
ENCODING 125
SWIDTH 340 0
DWIDTH 8 0
BBX 9 21 0 -3
BITMAP
0600
0180
0180
0180
0300
0300
0300
0600
0600
0600
0380
0400
0800
1800
1800
1800
1800
1800
1000
3000
C000
ENDCHAR
STARTCHAR asciitilde
ENCODING 126
SWIDTH 570 0
DWIDTH 14 0
BBX 11 4 3 4
BITMAP
1060
7EC0
4FC0
C000
ENDCHAR
STARTCHAR space
ENCODING 160
SWIDTH 225 0
DWIDTH 6 0
BBX 0 0 0 0
BITMAP
ENDCHAR
STARTCHAR exclamdown
ENCODING 161
SWIDTH 240 0
DWIDTH 6 0
BBX 6 18 1 -5
BITMAP
0C
1C
1C
00
00
00
10
10
10
30
30
20
60
60
60
E0
E0
C0
ENDCHAR
STARTCHAR cent
ENCODING 162
SWIDTH 530 0
DWIDTH 13 0
BBX 12 18 3 -1
BITMAP
0180
0100
07C0
1970
3330
6220
6200
C200
C200
C400
C400
C400
C460
6880
3F00
0800
1800
1000
ENDCHAR
STARTCHAR sterling
ENCODING 163
SWIDTH 530 0
DWIDTH 13 0
BBX 14 17 1 0
BITMAP
01F0
0218
060C
0C08
0C00
0C00
0C00
0C00
0600
3FE0
0600
0600
0400
0C00
1010
7FE0
FFE0
ENDCHAR
STARTCHAR currency
ENCODING 164
SWIDTH 530 0
DWIDTH 13 0
BBX 11 11 3 3
BITMAP
CE60
71C0
60C0
C060
C060
C060
C060
C060
60C0
71C0
CE60
ENDCHAR
STARTCHAR yen
ENCODING 165
SWIDTH 530 0
DWIDTH 13 0
BBX 14 17 3 0
BITMAP
7C7C
3810
1820
1860
1840
1C80
0D00
0D00
7FC0
0C00
0C00
FFC0
0C00
1800
1800
1800
7E00
ENDCHAR
STARTCHAR brokenbar
ENCODING 166
SWIDTH 270 0
DWIDTH 7 0
BBX 2 18 4 0
BITMAP
C0
C0
C0
C0
C0
C0
C0
00
00
00
C0
C0
C0
C0
C0
C0
C0
C0
ENDCHAR
STARTCHAR section
ENCODING 167
SWIDTH 530 0
DWIDTH 13 0
BBX 11 21 2 -3
BITMAP
01C0
0620
0C20
0C00
1C00
2700
2780
41C0
40C0
4060
6020
3820
3C20
0E20
0720
03C0
0180
4180
C100
6300
3C00
ENDCHAR
STARTCHAR dieresis
ENCODING 168
SWIDTH 400 0
DWIDTH 10 0
BBX 8 3 5 14
BITMAP
43
E7
C2
ENDCHAR
STARTCHAR copyright
ENCODING 169
SWIDTH 836 0
DWIDTH 21 0
BBX 19 18 3 0
BITMAP
01F000
060C00
180700
300100
20E180
6318C0
420840
460040
C60060
C60060
C60060
420840
6318C0
21F080
300180
180300
060C00
01F000
ENDCHAR
STARTCHAR ordfeminine
ENCODING 170
SWIDTH 425 0
DWIDTH 11 0
BBX 9 8 3 7
BITMAP
0F80
3100
6300
6300
C600
CA00
D680
6700
ENDCHAR
STARTCHAR guillemotleft
ENCODING 171
SWIDTH 462 0
DWIDTH 12 0
BBX 10 10 3 1
BITMAP
0840
1080
3180
6300
E600
C600
6300
2300
2100
1080
ENDCHAR
STARTCHAR logicalnot
ENCODING 172
SWIDTH 570 0
DWIDTH 14 0
BBX 12 7 3 2
BITMAP
FFF0
0030
0030
0030
0030
0030
0030
ENDCHAR
STARTCHAR hyphen
ENCODING 173
SWIDTH 392 0
DWIDTH 10 0
BBX 6 2 3 5
BITMAP
FC
FC
ENDCHAR
STARTCHAR registered
ENCODING 174
SWIDTH 836 0
DWIDTH 21 0
BBX 19 18 3 0
BITMAP
01F000
060C00
180300
300180
27F180
6310C0
431840
431840
C33060
C3C060
C33060
431040
4318C0
678CC0
300180
180300
0E0C00
01F000
ENDCHAR
STARTCHAR macron
ENCODING 175
SWIDTH 400 0
DWIDTH 10 0
BBX 7 1 6 15
BITMAP
FE
ENDCHAR
STARTCHAR degree
ENCODING 176
SWIDTH 400 0
DWIDTH 10 0
BBX 6 7 5 10
BITMAP
78
48
84
84
84
48
78
ENDCHAR
STARTCHAR plusminus
ENCODING 177
SWIDTH 570 0
DWIDTH 14 0
BBX 12 14 2 0
BITMAP
0600
0600
0600
0600
0600
FFF0
0600
0600
0600
0600
0600
0000
0000
FFF0
ENDCHAR
STARTCHAR twosuperior
ENCODING 178
SWIDTH 370 0
DWIDTH 9 0
BBX 9 10 2 7
BITMAP
0F00
1900
3180
0180
0300
0600
0C00
1000
6100
FE00
ENDCHAR
STARTCHAR threesuperior
ENCODING 179
SWIDTH 370 0
DWIDTH 9 0
BBX 8 10 3 7
BITMAP
1C
63
23
06
3C
04
06
86
CC
78
ENDCHAR
STARTCHAR acute
ENCODING 180
SWIDTH 400 0
DWIDTH 10 0
BBX 6 5 6 13
BITMAP
08
1C
38
60
80
ENDCHAR
STARTCHAR mu
ENCODING 181
SWIDTH 618 0
DWIDTH 15 0
BBX 15 18 1 -5
BITMAP
0606
3E0C
0E0C
1E0C
1C1C
1C18
1C18
3C38
3838
3852
38B2
7934
4E38
4000
4000
4000
C000
C000
ENDCHAR
STARTCHAR paragraph
ENCODING 182
SWIDTH 560 0
DWIDTH 14 0
BBX 13 21 4 -3
BITMAP
0678
1E40
3CC0
7CC0
7CC0
FCC0
FC80
FD80
F980
7980
3980
0900
0300
0300
0300
0300
0200
0600
0600
0600
3E00
ENDCHAR
STARTCHAR periodcentered
ENCODING 183
SWIDTH 265 0
DWIDTH 7 0
BBX 3 3 3 5
BITMAP
E0
E0
E0
ENDCHAR
STARTCHAR cedilla
ENCODING 184
SWIDTH 400 0
DWIDTH 10 0
BBX 4 6 3 -6
BITMAP
20
40
70
30
30
E0
ENDCHAR
STARTCHAR onesuperior
ENCODING 185
SWIDTH 370 0
DWIDTH 9 0
BBX 6 10 3 7
BITMAP
0C
3C
08
18
18
18
18
30
30
FC
ENDCHAR
STARTCHAR ordmasculine
ENCODING 186
SWIDTH 389 0
DWIDTH 10 0
BBX 8 8 3 7
BITMAP
1C
32
63
C3
C2
C6
44
38
ENDCHAR
STARTCHAR guillemotright
ENCODING 187
SWIDTH 462 0
DWIDTH 12 0
BBX 10 10 1 1
BITMAP
4200
2100
3100
3180
18C0
19C0
3180
6300
4200
8400
ENDCHAR
STARTCHAR onequarter
ENCODING 188
SWIDTH 890 0
DWIDTH 22 0
BBX 18 19 3 -1
BITMAP
000100
0C0180
380300
080600
180C00
180C00
181800
103000
3060C0
304180
FCC380
018580
030980
021100
063FC0
0C0300
180300
300F80
100000
ENDCHAR
STARTCHAR onehalf
ENCODING 189
SWIDTH 890 0
DWIDTH 22 0
BBX 18 18 3 0
BITMAP
000200
0C0300
380600
080C00
180800
181000
183000
106000
304780
308C80
FD98C0
0300C0
020180
040300
0C0600
180800
103080
207F00
ENDCHAR
STARTCHAR threequarters
ENCODING 190
SWIDTH 890 0
DWIDTH 22 0
BBX 17 19 4 -1
BITMAP
000100
1C0100
630300
230600
060C00
3C0C00
041800
063000
866180
CC4300
78C700
018B00
031300
022200
047F80
0C0600
180600
301F00
100000
ENDCHAR
STARTCHAR questiondown
ENCODING 191
SWIDTH 425 0
DWIDTH 11 0
BBX 9 18 1 -5
BITMAP
0300
0380
0300
0000
0000
0000
1E00
0300
0300
0600
0800
1000
6000
6000
C300
C700
4600
3C00
ENDCHAR
STARTCHAR Agrave
ENCODING 192
SWIDTH 624 0
DWIDTH 16 0
BBX 17 23 -1 0
BITMAP
004000
007000
003800
000400
000000
001800
001800
003800
003C00
005C00
00CC00
008C00
018C00
010C00
020C00
03FC00
040E00
040E00
080600
180600
100600
300600
FC1F80
ENDCHAR
STARTCHAR Aacute
ENCODING 193
SWIDTH 624 0
DWIDTH 16 0
BBX 17 23 -1 0
BITMAP
000100
000380
000F00
001800
000000
001800
001800
003800
003C00
005C00
00CC00
008C00
018C00
010C00
020C00
03FC00
040E00
040E00
080600
180600
100600
300600
FC1F80
ENDCHAR
STARTCHAR Acircumflex
ENCODING 194
SWIDTH 624 0
DWIDTH 16 0
BBX 17 22 -1 0
BITMAP
000C00
001E00
003300
004100
001800
001800
003800
003C00
005C00
00CC00
008C00
018C00
010C00
020C00
03FC00
040E00
040E00
080600
180600
100600
300600
FC1F80
ENDCHAR
STARTCHAR Atilde
ENCODING 195
SWIDTH 624 0
DWIDTH 16 0
BBX 17 21 -1 0
BITMAP
003880
00C700
000000
001800
001800
003800
003C00
005C00
00CC00
008C00
018C00
010C00
020C00
03FC00
040E00
040E00
080E00
180600
100600
300600
FC1F80
ENDCHAR
STARTCHAR Adieresis
ENCODING 196
SWIDTH 624 0
DWIDTH 16 0
BBX 17 21 -1 0
BITMAP
003180
007380
006300
000C00
001C00
001C00
002C00
002C00
004C00
00CC00
008E00
010E00
010600
03FE00
060600
040600
0C0600
180600
100600
300700
FC1F80
ENDCHAR
STARTCHAR Aring
ENCODING 197
SWIDTH 624 0
DWIDTH 16 0
BBX 17 22 -1 0
BITMAP
001C00
003200
002200
002600
001C00
001C00
003C00
003C00
005C00
005C00
008C00
008C00
010C00
030C00
03FC00
040C00
040E00
080600
180600
100600
300600
FC1F80
ENDCHAR
STARTCHAR AE
ENCODING 198
SWIDTH 880 0
DWIDTH 22 0
BBX 26 18 -1 0
BITMAP
001FFFC0
000581C0
000D8080
000B8080
001B0080
00330000
00230000
00630200
00C30600
00FFFC00
01860400
03060400
060E0000
040E0100
0C0C0200
180C0200
301C0600
FC7FFC00
ENDCHAR
STARTCHAR Ccedilla
ENCODING 199
SWIDTH 661 0
DWIDTH 17 0
BBX 16 24 3 -6
BITMAP
01F8
0707
0C03
1802
3802
7000
7000
6000
E000
E000
E000
E000
E000
6004
7008
3018
1838
07E0
0200
0200
0700
0300
0180
0E00
ENDCHAR
STARTCHAR Egrave
ENCODING 200
SWIDTH 596 0
DWIDTH 15 0
BBX 17 23 1 0
BITMAP
018000
01C000
00F000
001800
000000
0FFF80
030380
030100
030100
070100
060000
060000
060400
060C00
0FF800
0C0800
0C0800
0C0000
0C0200
180400
180400
380C00
FFF800
ENDCHAR
STARTCHAR Eacute
ENCODING 201
SWIDTH 596 0
DWIDTH 15 0
BBX 17 23 1 0
BITMAP
000200
000E00
003C00
006000
000000
0FFF80
030380
030100
030100
070100
060000
060000
060400
060C00
0FF800
0C0800
0C0800
0C0000
0C0200
180400
180400
380C00
FFF800
ENDCHAR
STARTCHAR Ecircumflex
ENCODING 202
SWIDTH 596 0
DWIDTH 15 0
BBX 17 22 1 0
BITMAP
003000
007800
008C00
010600
0FFF80
030380
030100
030100
070100
060000
060000
060400
060C00
0FF800
0C0800
0C0800
0C0000
0C0200
180400
180400
380C00
FFF800
ENDCHAR
STARTCHAR Edieresis
ENCODING 203
SWIDTH 596 0
DWIDTH 15 0
BBX 17 21 1 0
BITMAP
018600
038E00
030C00
0FFF80
030380
030100
030100
070100
060000
060000
060400
060C00
0FF800
0C0800
0C0800
0C0000
0C0200
180400
180400
380C00
FFF800
ENDCHAR
STARTCHAR Igrave
ENCODING 204
SWIDTH 345 0
DWIDTH 9 0
BBX 11 23 1 0
BITMAP
0800
0E00
0780
00C0
0000
0FE0
0380
0300
0300
0700
0600
0600
0600
0E00
0E00
0C00
0C00
1C00
1C00
1800
1800
3800
FE00
ENDCHAR
STARTCHAR Iacute
ENCODING 205
SWIDTH 345 0
DWIDTH 9 0
BBX 11 23 1 0
BITMAP
0020
00E0
01C0
0600
0000
0FC0
0300
0700
0700
0600
0600
0600
0E00
0C00
0C00
0C00
1C00
1C00
1800
1800
1800
3800
FE00
ENDCHAR
STARTCHAR Icircumflex
ENCODING 206
SWIDTH 345 0
DWIDTH 9 0
BBX 11 22 1 0
BITMAP
0180
03C0
0C40
0820
0FC0
0700
0700
0700
0600
0600
0600
0E00
0C00
0C00
0C00
1C00
1C00
1800
1800
1800
3800
FE00
ENDCHAR
STARTCHAR Idieresis
ENCODING 207
SWIDTH 345 0
DWIDTH 9 0
BBX 12 21 1 0
BITMAP
0C30
1C70
1860
1FE0
0700
0700
0700
0600
0E00
0E00
0E00
0E00
0C00
1C00
1C00
1C00
1800
3800
3800
3800
FE00
ENDCHAR
STARTCHAR Eth
ENCODING 208
SWIDTH 770 0
DWIDTH 19 0
BBX 19 18 1 0
BITMAP
1FFC00
070700
070380
0601C0
0600C0
0600C0
0600E0
0E00E0
0E00E0
7FC0E0
0C00E0
1C01C0
1C01C0
180380
180300
380E00
383C00
FFE000
ENDCHAR
STARTCHAR Ntilde
ENCODING 209
SWIDTH 763 0
DWIDTH 19 0
BBX 22 21 0 0
BITMAP
003880
004700
000000
0F80FC
038030
03C020
02C060
04E060
04E040
047040
047040
0430C0
083880
081880
081C80
080C80
180F80
180F00
100700
300700
FC0300
ENDCHAR
STARTCHAR Ograve
ENCODING 210
SWIDTH 753 0
DWIDTH 19 0
BBX 17 23 3 0
BITMAP
010000
03C000
00E000
001800
000000
01F800
070C00
0C0600
1C0300
380300
300380
700380
700380
E00380
E00380
E00700
E00700
E00700
600E00
600C00
301800
183000
07C000
ENDCHAR
STARTCHAR Oacute
ENCODING 211
SWIDTH 753 0
DWIDTH 19 0
BBX 17 23 3 0
BITMAP
000400
001C00
003800
00C000
000000
01F800
070C00
0C0600
1C0300
380300
300380
700380
700380
E00380
E00380
E00700
E00700
E00700
600E00
600C00
301800
183000
07C000
ENDCHAR
STARTCHAR Ocircumflex
ENCODING 212
SWIDTH 753 0
DWIDTH 19 0
BBX 17 22 3 0
BITMAP
003000
007800
018800
030400
01F800
070C00
0C0600
1C0300
380300
300380
700380
700380
E00380
E00380
E00700
E00700
E00700
600E00
600C00
301800
183000
07C000
ENDCHAR
STARTCHAR Otilde
ENCODING 213
SWIDTH 753 0
DWIDTH 19 0
BBX 17 21 3 0
BITMAP
01C200
023C00
000000
01F800
070C00
0C0600
1C0300
380300
300380
700380
700380
E00380
E00380
E00700
E00700
E00700
600E00
600C00
301800
183000
07C000
ENDCHAR
STARTCHAR Odieresis
ENCODING 214
SWIDTH 753 0
DWIDTH 19 0
BBX 17 21 3 0
BITMAP
018600
038E00
030C00
03F000
060C00
1C0600
180300
300300
300380
700380
600380
E00380
E00380
E00700
E00700
E00700
600E00
601C00
301800
187000
0FC000
ENDCHAR
STARTCHAR multiply
ENCODING 215
SWIDTH 570 0
DWIDTH 14 0
BBX 11 11 3 1
BITMAP
4040
E0E0
71C0
3B80
1F00
0E00
1F00
3B80
71C0
E0E0
4040
ENDCHAR
STARTCHAR Oslash
ENCODING 216
SWIDTH 753 0
DWIDTH 19 0
BBX 17 20 3 -1
BITMAP
000100
01F300
070E00
0C0600
1C0B00
381B00
303380
702380
704380
E08380
E18380
E10700
E20700
E40700
6C0E00
680C00
301800
383000
47C000
400000
ENDCHAR
STARTCHAR Ugrave
ENCODING 217
SWIDTH 794 0
DWIDTH 20 0
BBX 18 23 4 0
BITMAP
040000
0F0000
078000
00C000
000000
FE1FC0
380700
300700
300600
700600
600E00
600E00
600C00
600C00
600C00
C01C00
C01800
C01800
C03800
C03000
607000
70E000
1F8000
ENDCHAR
STARTCHAR Uacute
ENCODING 218
SWIDTH 794 0
DWIDTH 20 0
BBX 18 23 4 0
BITMAP
000400
001C00
003800
00C000
000000
FE1FC0
380700
300700
300600
700600
600E00
600E00
600C00
600C00
600C00
C01C00
C01800
C01800
C03800
C03000
607000
70E000
1F8000
ENDCHAR
STARTCHAR Ucircumflex
ENCODING 219
SWIDTH 794 0
DWIDTH 20 0
BBX 18 22 4 0
BITMAP
006000
00F000
031800
060800
FE1FC0
380700
300700
300600
700600
600E00
600E00
600C00
600C00
600C00
C01C00
C01800
C01800
C03800
C03000
607000
70E000
1F8000
ENDCHAR
STARTCHAR Udieresis
ENCODING 220
SWIDTH 794 0
DWIDTH 20 0
BBX 19 21 4 0
BITMAP
018C00
039C00
031800
FE0FE0
380300
380300
300700
700600
700600
600600
600E00
600E00
600C00
C00C00
C01C00
C01800
C01800
C03800
603000
706000
1F8000
ENDCHAR
STARTCHAR Yacute
ENCODING 221
SWIDTH 591 0
DWIDTH 15 0
BBX 16 23 3 0
BITMAP
0004
001C
0038
00C0
0000
FC3F
380C
1818
1810
1830
1C60
0C40
0C80
0D80
0700
0600
0600
0600
0C00
0C00
0C00
0C00
7F00
ENDCHAR
STARTCHAR Thorn
ENCODING 222
SWIDTH 604 0
DWIDTH 15 0
BBX 15 18 1 0
BITMAP
0FC0
0300
0300
0700
07F0
061C
060C
0E0E
0E0E
0C0E
0C0C
0C1C
1C38
1FE0
1800
1800
3800
FE00
ENDCHAR
STARTCHAR germandbls
ENCODING 223
SWIDTH 577 0
DWIDTH 14 0
BBX 19 25 -2 -6
BITMAP
000F80
0010C0
002060
004060
00C060
00C0C0
0787C0
038C00
039800
031800
031C00
031E00
030F00
070700
060380
060180
062180
067300
0C3E00
0C0000
0C0000
080000
880000
D80000
F00000
ENDCHAR
STARTCHAR agrave
ENCODING 224
SWIDTH 561 0
DWIDTH 14 0
BBX 13 19 2 0
BITMAP
0200
0700
0380
00C0
0020
0000
03D8
0E30
1C30
3830
3070
6060
6060
C0E0
C160
C148
C2C8
CCD0
70E0
ENDCHAR
STARTCHAR aacute
ENCODING 225
SWIDTH 561 0
DWIDTH 14 0
BBX 13 19 2 0
BITMAP
0008
0038
0070
0040
0080
0000
03D8
0E30
1C30
3830
3070
6060
6060
C0E0
C160
C148
C2C8
CCD0
70E0
ENDCHAR
STARTCHAR acircumflex
ENCODING 226
SWIDTH 561 0
DWIDTH 14 0
BBX 13 18 2 0
BITMAP
0040
00E0
0130
0208
0000
03D8
0E30
1C30
3830
3070
6060
6060
C0E0
C160
C148
C2C8
CCD0
70E0
ENDCHAR
STARTCHAR atilde
ENCODING 227
SWIDTH 561 0
DWIDTH 14 0
BBX 13 17 2 0
BITMAP
0388
0C70
0000
0000
03D8
0E30
1C30
3830
3070
6060
6060
C0E0
C160
C148
C2C8
CCD0
70E0
ENDCHAR
STARTCHAR adieresis
ENCODING 228
SWIDTH 561 0
DWIDTH 14 0
BBX 13 17 2 0
BITMAP
0618
0E38
0C30
0000
03D8
0E30
1C30
3830
3070
6060
6060
C0E0
C160
C148
C2C8
CCD0
70E0
ENDCHAR
STARTCHAR aring
ENCODING 229
SWIDTH 561 0
DWIDTH 14 0
BBX 13 19 2 0
BITMAP
01C0
0320
0220
0260
01C0
0000
03D0
0E30
1C30
3830
3060
6060
6060
C0E0
C160
C148
C2C8
CCD0
70E0
ENDCHAR
STARTCHAR ae
ENCODING 230
SWIDTH 779 0
DWIDTH 19 0
BBX 19 14 2 0
BITMAP
001000
03B380
0C7460
187860
307860
3070C0
60F180
60FE00
C1F000
C1C000
C2C040
C4C080
C86100
703E00
ENDCHAR
STARTCHAR ccedilla
ENCODING 231
SWIDTH 441 0
DWIDTH 11 0
BBX 10 19 2 -6
BITMAP
0780
18C0
30C0
2080
6000
4000
C000
C000
C000
C080
C100
6200
3C00
1000
3000
3800
1800
1800
7000
ENDCHAR
STARTCHAR egrave
ENCODING 232
SWIDTH 453 0
DWIDTH 11 0
BBX 10 18 2 0
BITMAP
3800
1C00
0600
0100
0000
0700
18C0
30C0
60C0
6180
4380
CE00
F000
C000
C080
C100
6200
3C00
ENDCHAR
STARTCHAR eacute
ENCODING 233
SWIDTH 453 0
DWIDTH 11 0
BBX 10 18 2 0
BITMAP
00C0
01C0
0300
0400
0000
0700
18C0
30C0
60C0
6180
4380
CE00
F000
C000
C080
C100
6200
3C00
ENDCHAR
STARTCHAR ecircumflex
ENCODING 234
SWIDTH 453 0
DWIDTH 11 0
BBX 10 18 2 0
BITMAP
0100
0780
0C80
1040
0000
0700
18C0
30C0
60C0
6180
4380
CE00
F000
C000
C080
C100
6200
3C00
ENDCHAR
STARTCHAR edieresis
ENCODING 235
SWIDTH 453 0
DWIDTH 11 0
BBX 11 17 2 0
BITMAP
0C60
1CE0
18C0
0000
0700
08C0
30C0
70C0
6180
6380
CE00
F000
C000
C080
C100
6300
3C00
ENDCHAR
STARTCHAR igrave
ENCODING 236
SWIDTH 317 0
DWIDTH 8 0
BBX 6 18 3 0
BITMAP
E0
70
18
0C
00
18
F0
30
30
30
60
60
60
60
48
C8
D0
E0
ENDCHAR
STARTCHAR iacute
ENCODING 237
SWIDTH 317 0
DWIDTH 8 0
BBX 7 18 3 0
BITMAP
06
0E
18
20
00
18
F0
30
30
30
60
60
60
60
48
C8
D0
E0
ENDCHAR
STARTCHAR icircumflex
ENCODING 238
SWIDTH 317 0
DWIDTH 8 0
BBX 7 18 3 0
BITMAP
18
3C
64
82
00
18
F0
30
30
30
60
60
60
60
48
C8
D0
E0
ENDCHAR
STARTCHAR idieresis
ENCODING 239
SWIDTH 317 0
DWIDTH 8 0
BBX 8 17 3 0
BITMAP
63
E7
C6
00
18
F8
30
30
30
70
60
60
60
48
C8
D0
E0
ENDCHAR
STARTCHAR eth
ENCODING 240
SWIDTH 537 0
DWIDTH 13 0
BBX 12 19 2 0
BITMAP
0800
0C30
0660
0380
1DC0
00E0
07E0
1C70
3830
7030
6030
6030
C070
C060
C060
C0E0
C1C0
6380
3E00
ENDCHAR
STARTCHAR ntilde
ENCODING 241
SWIDTH 618 0
DWIDTH 15 0
BBX 12 17 3 0
BITMAP
0F10
10E0
0000
0000
18E0
F930
1A30
3430
3860
3860
3060
70C0
60C0
60D0
E190
C1A0
C1C0
ENDCHAR
STARTCHAR ograve
ENCODING 242
SWIDTH 537 0
DWIDTH 13 0
BBX 12 18 2 0
BITMAP
0C00
0F00
0380
00C0
0000
07C0
1C60
3830
7030
6030
6030
C070
C060
C060
C0E0
C1C0
6380
3C00
ENDCHAR
STARTCHAR oacute
ENCODING 243
SWIDTH 537 0
DWIDTH 13 0
BBX 12 18 2 0
BITMAP
0070
00E0
0180
0200
0000
07C0
1C60
3830
7030
6030
6030
C070
C060
C060
C0E0
C1C0
6380
3C00
ENDCHAR
STARTCHAR ocircumflex
ENCODING 244
SWIDTH 537 0
DWIDTH 13 0
BBX 12 18 2 0
BITMAP
00C0
03C0
0660
0830
0000
07C0
1C60
3830
7030
6030
6030
C070
C060
C060
C0E0
C1C0
6380
3C00
ENDCHAR
STARTCHAR otilde
ENCODING 245
SWIDTH 537 0
DWIDTH 13 0
BBX 12 17 2 0
BITMAP
0710
08E0
0000
0000
07C0
1C60
3830
7030
6030
6030
C070
C060
C060
C0E0
C1C0
6380
3C00
ENDCHAR
STARTCHAR odieresis
ENCODING 246
SWIDTH 537 0
DWIDTH 13 0
BBX 12 17 2 0
BITMAP
0630
0E70
0C60
0000
07C0
1C60
3830
7030
6030
6030
C070
C060
C060
C0E0
C1C0
6380
3C00
ENDCHAR
STARTCHAR divide
ENCODING 247
SWIDTH 570 0
DWIDTH 14 0
BBX 12 11 3 1
BITMAP
0E00
0E00
0E00
0000
0000
FFF0
0000
0000
0E00
0E00
0E00
ENDCHAR
STARTCHAR oslash
ENCODING 248
SWIDTH 537 0
DWIDTH 13 0
BBX 12 15 2 -1
BITMAP
0010
07E0
1C60
3870
70B0
6130
6230
C670
CC60
D860
D0E0
E1C0
6380
9C00
8000
ENDCHAR
STARTCHAR ugrave
ENCODING 249
SWIDTH 618 0
DWIDTH 15 0
BBX 13 18 3 0
BITMAP
0C00
0E00
0300
0080
0000
1818
F830
3030
3030
7070
6060
6060
60E0
6160
C148
C2C8
CCD0
F0E0
ENDCHAR
STARTCHAR uacute
ENCODING 250
SWIDTH 618 0
DWIDTH 15 0
BBX 13 18 3 0
BITMAP
0070
00E0
00C0
0100
0000
1818
F830
3030
3030
7070
6060
6060
60E0
6160
C148
C2C8
CCD0
F0E0
ENDCHAR
STARTCHAR ucircumflex
ENCODING 251
SWIDTH 618 0
DWIDTH 15 0
BBX 13 18 3 0
BITMAP
0080
01C0
0660
0820
0000
1818
F830
3030
3030
7070
6060
6060
60E0
6160
C148
C2C8
CCD0
F0E0
ENDCHAR
STARTCHAR udieresis
ENCODING 252
SWIDTH 618 0
DWIDTH 15 0
BBX 13 17 3 0
BITMAP
0630
0E70
0C60
0000
1818
F830
3030
3030
7060
6060
6060
60E0
6160
C148
C2C8
CCD0
F0E0
ENDCHAR
STARTCHAR yacute
ENCODING 253
SWIDTH 468 0
DWIDTH 12 0
BBX 13 24 0 -6
BITMAP
0018
0030
00E0
0180
0000
0C08
3C18
0C18
0C10
0C10
0C20
0E20
0640
0640
0680
0780
0700
0700
0600
0400
0400
0800
D800
E000
ENDCHAR
STARTCHAR thorn
ENCODING 254
SWIDTH 584 0
DWIDTH 15 0
BBX 14 24 1 -6
BITMAP
0300
1F00
0600
0600
0600
0638
0CCC
0D0C
0D0C
0E0C
1C0C
1C18
1818
1818
1830
3060
38E0
3780
3000
7000
6000
6000
6000
C000
ENDCHAR
STARTCHAR ydieresis
ENCODING 255
SWIDTH 468 0
DWIDTH 12 0
BBX 14 23 0 -6
BITMAP
018C
039C
0318
0000
0C08
3C18
0C18
0C10
0C10
0C20
0E20
0640
0640
0680
0780
0700
0700
0600
0400
0400
0800
D800
E000
ENDCHAR
STARTCHAR Amacron
ENCODING 256
SWIDTH 624 0
DWIDTH 16 0
BBX 17 20 -1 0
BITMAP
01FC00
000000
001800
001800
003800
003C00
005C00
00CC00
008C00
018C00
010C00
020C00
03FC00
040E00
040E00
080E00
180600
100600
300600
FC1F80
ENDCHAR
STARTCHAR amacron
ENCODING 257
SWIDTH 561 0
DWIDTH 14 0
BBX 13 15 2 0
BITMAP
0FE0
0000
03D8
0E30
1C30
3830
3070
6060
6060
C0E0
C160
C148
C2C8
CCD0
70E0
ENDCHAR
STARTCHAR Abreve
ENCODING 258
SWIDTH 624 0
DWIDTH 16 0
BBX 17 23 -1 0
BITMAP
008200
008400
00FC00
007800
000000
001800
001800
003800
003C00
005C00
00CC00
008C00
018C00
010C00
020C00
03FC00
040E00
040E00
080E00
180600
100600
300600
FC1F80
ENDCHAR
STARTCHAR abreve
ENCODING 259
SWIDTH 561 0
DWIDTH 14 0
BBX 13 18 2 0
BITMAP
0820
0840
0FC0
0780
0000
03D8
0E30
1C30
3830
3070
6060
6060
C0E0
C160
C148
C2C8
CCD0
70E0
ENDCHAR
STARTCHAR Aogonek
ENCODING 260
SWIDTH 624 0
DWIDTH 16 0
BBX 17 23 -1 -5
BITMAP
001800
001800
003800
003C00
005C00
00CC00
008C00
018C00
010C00
020C00
03FC00
040E00
040E00
080E00
180600
100600
300600
FC5F80
008000
010000
030000
030000
01E000
ENDCHAR
STARTCHAR aogonek
ENCODING 261
SWIDTH 561 0
DWIDTH 14 0
BBX 13 18 2 -5
BITMAP
03D8
0E30
1C30
3830
3070
6060
6060
C0E0
C160
C148
C2C8
CCD0
72E0
0400
0800
1800
1800
0F00
ENDCHAR
STARTCHAR Cacute
ENCODING 262
SWIDTH 661 0
DWIDTH 17 0
BBX 16 24 3 0
BITMAP
0010
0038
0070
00C0
0100
0000
01F8
0707
0C03
1802
3802
7000
7000
6000
E000
E000
E000
E000
E000
6004
7008
3018
1838
07E0
ENDCHAR
STARTCHAR cacute
ENCODING 263
SWIDTH 441 0
DWIDTH 11 0
BBX 10 19 2 0
BITMAP
0080
01C0
0380
0600
0800
0000
0780
18C0
30C0
2080
6000
4000
C000
C000
C000
C080
C100
6200
3C00
ENDCHAR
STARTCHAR Ccircumflex
ENCODING 264
SWIDTH 661 0
DWIDTH 17 0
BBX 16 23 3 0
BITMAP
00C0
01E0
0320
0410
0000
01F8
0707
0C03
1802
3802
7000
7000
6000
E000
E000
E000
E000
E000
6004
7008
3018
1838
07E0
ENDCHAR
STARTCHAR ccircumflex
ENCODING 265
SWIDTH 441 0
DWIDTH 11 0
BBX 10 18 2 0
BITMAP
0300
0780
0C80
1040
0000
0780
18C0
30C0
2080
6000
4000
C000
C000
C000
C080
C100
6200
3C00
ENDCHAR
STARTCHAR Cdotaccent
ENCODING 266
SWIDTH 661 0
DWIDTH 17 0
BBX 16 22 3 0
BITMAP
0060
00E0
00C0
0000
01F8
0707
0C03
1802
3802
7000
7000
6000
E000
E000
E000
E000
E000
6004
7008
3018
1838
07E0
ENDCHAR
STARTCHAR cdotaccent
ENCODING 267
SWIDTH 441 0
DWIDTH 11 0
BBX 10 17 2 0
BITMAP
0300
0700
0600
0000
0780
18C0
30C0
2080
6000
4000
C000
C000
C000
C080
C100
6200
3C00
ENDCHAR
STARTCHAR Ccaron
ENCODING 268
SWIDTH 661 0
DWIDTH 17 0
BBX 16 23 3 0
BITMAP
0208
0130
01E0
00C0
0000
01F8
0707
0C03
1802
3802
7000
7000
6000
E000
E000
E000
E000
E000
6004
7008
3018
1838
07E0
ENDCHAR
STARTCHAR ccaron
ENCODING 269
SWIDTH 441 0
DWIDTH 11 0
BBX 10 18 2 0
BITMAP
1040
0980
0F00
0600
0000
0780
18C0
30C0
2080
6000
4000
C000
C000
C000
C080
C100
6200
3C00
ENDCHAR
STARTCHAR Dcaron
ENCODING 270
SWIDTH 763 0
DWIDTH 19 0
BBX 19 23 1 0
BITMAP
010400
009800
00F000
006000
000000
1FFC00
070700
070180
0601C0
0600C0
0600E0
0E00E0
0E00E0
0C00E0
0C00E0
0C00C0
1C01C0
180180
180380
180700
380E00
383C00
FFE000
ENDCHAR
STARTCHAR dcaron
ENCODING 271
SWIDTH 774 0
DWIDTH 19 0
BBX 20 19 2 0
BITMAP
000C30
007C70
001830
001820
001840
001880
03F800
0E3000
183000
303000
307000
606000
60E000
C0E000
C16000
C1C800
C2C800
CCD000
70E000
ENDCHAR
STARTCHAR Dcroat
ENCODING 272
SWIDTH 770 0
DWIDTH 19 0
BBX 19 18 1 0
BITMAP
1FFC00
070700
070380
0601C0
0600C0
0600C0
0600E0
0E00E0
0E00E0
7FC0E0
0C00E0
1C01C0
1C01C0
180380
180300
380E00
383C00
FFE000
ENDCHAR
STARTCHAR dcroat
ENCODING 273
SWIDTH 587 0
DWIDTH 15 0
BBX 16 19 2 0
BITMAP
000C
007C
0018
0018
0018
07FF
03F8
0E30
1830
3030
3070
6060
60E0
C0E0
C160
C1C8
C2C8
CCD0
70E0
ENDCHAR
STARTCHAR Emacron
ENCODING 274
SWIDTH 596 0
DWIDTH 15 0
BBX 17 20 1 0
BITMAP
03F800
000000
0FFF80
030380
030100
030100
070100
060000
060000
060400
060C00
0FF800
0C0800
0C0800
0C0000
0C0200
180400
180400
380C00
FFF800
ENDCHAR
STARTCHAR emacron
ENCODING 275
SWIDTH 453 0
DWIDTH 11 0
BBX 10 15 2 0
BITMAP
3F80
0000
0700
18C0
30C0
60C0
6180
4380
CE00
F000
C000
C080
C100
6200
3C00
ENDCHAR
STARTCHAR Ebreve
ENCODING 276
SWIDTH 596 0
DWIDTH 15 0
BBX 17 23 1 0
BITMAP
010400
010800
01F800
00F000
000000
0FFF80
030380
030100
030100
070100
060000
060000
060400
060C00
0FF800
0C0800
0C0800
0C0000
0C0200
180400
180400
380C00
FFF800
ENDCHAR
STARTCHAR ebreve
ENCODING 277
SWIDTH 453 0
DWIDTH 11 0
BBX 10 18 2 0
BITMAP
1040
1080
1F80
0F00
0000
0700
18C0
30C0
60C0
6180
4380
CE00
F000
C000
C080
C100
6200
3C00
ENDCHAR
STARTCHAR Edotaccent
ENCODING 278
SWIDTH 596 0
DWIDTH 15 0
BBX 17 22 1 0
BITMAP
003000
007000
006000
000000
0FFF80
030380
030100
030100
070100
060000
060000
060400
060C00
0FF800
0C0800
0C0800
0C0000
0C0200
180400
180400
380C00
FFF800
ENDCHAR
STARTCHAR edotaccent
ENCODING 279
SWIDTH 453 0
DWIDTH 11 0
BBX 10 17 2 0
BITMAP
0300
0700
0600
0000
0700
18C0
30C0
60C0
6180
4380
CE00
F000
C000
C080
C100
6200
3C00
ENDCHAR
STARTCHAR Eogonek
ENCODING 280
SWIDTH 596 0
DWIDTH 15 0
BBX 17 23 1 -5
BITMAP
0FFF80
030380
030100
030100
070100
060000
060000
060400
060C00
0FF800
0C0800
0C0800
0C0000
0C0200
180400
180400
380C00
FFF800
010000
020000
060000
060000
03C000
ENDCHAR
STARTCHAR eogonek
ENCODING 281
SWIDTH 453 0
DWIDTH 11 0
BBX 10 18 2 -5
BITMAP
0700
18C0
30C0
60C0
6180
4380
CE00
F000
C000
C080
C100
6200
3C00
1000
2000
6000
6000
3C00
ENDCHAR
STARTCHAR Ecaron
ENCODING 282
SWIDTH 596 0
DWIDTH 15 0
BBX 17 23 1 0
BITMAP
010400
009800
00F000
006000
000000
0FFF80
030380
030100
030100
070100
060000
060000
060400
060C00
0FF800
0C0800
0C0800
0C0000
0C0200
180400
180400
380C00
FFF800
ENDCHAR
STARTCHAR ecaron
ENCODING 283
SWIDTH 453 0
DWIDTH 11 0
BBX 10 18 2 0
BITMAP
1040
0980
0F00
0600
0000
0700
18C0
30C0
60C0
6180
4380
CE00
F000
C000
C080
C100
6200
3C00
ENDCHAR
STARTCHAR Gcircumflex
ENCODING 284
SWIDTH 709 0
DWIDTH 18 0
BBX 16 23 3 0
BITMAP
0060
00F0
0190
0208
0000
01FC
0707
0C03
1802
3802
3000
7000
6000
E000
E000
E03F
E00E
E00C
600C
701C
3018
1C18
07E0
ENDCHAR
STARTCHAR gcircumflex
ENCODING 285
SWIDTH 499 0
DWIDTH 12 0
BBX 14 24 1 -6
BITMAP
0180
03C0
0640
0820
0000
078C
0C7C
1830
3830
3030
3030
3060
18E0
0F80
1000
3800
3F00
17C0
60E0
C060
C060
C060
70C0
1F00
ENDCHAR
STARTCHAR Gbreve
ENCODING 286
SWIDTH 709 0
DWIDTH 18 0
BBX 16 23 3 0
BITMAP
0208
0210
03F0
01E0
0000
01FC
0707
0C03
1802
3802
3000
7000
6000
E000
E000
E03F
E00E
E00C
600C
701C
3018
1C18
07E0
ENDCHAR
STARTCHAR gbreve
ENCODING 287
SWIDTH 499 0
DWIDTH 12 0
BBX 14 24 1 -6
BITMAP
0410
0420
07E0
03C0
0000
078C
0C7C
1830
3830
3030
3030
3060
18E0
0F80
1000
3800
3F00
17C0
60E0
C060
C060
C060
70C0
1F00
ENDCHAR
STARTCHAR Gdotaccent
ENCODING 288
SWIDTH 709 0
DWIDTH 18 0
BBX 16 22 3 0
BITMAP
0060
00E0
00C0
0000
01FC
0707
0C03
1802
3802
3000
7000
6000
E000
E000
E03F
E00E
E00C
600C
701C
3018
1C18
07E0
ENDCHAR
STARTCHAR gdotaccent
ENCODING 289
SWIDTH 499 0
DWIDTH 12 0
BBX 14 23 1 -6
BITMAP
00C0
01C0
0180
0000
078C
0C7C
1830
3830
3030
3030
3060
18E0
0F80
1000
3800
3F00
17C0
60E0
C060
C060
C060
70C0
1F00
ENDCHAR
STARTCHAR Gcommaaccent
ENCODING 290
SWIDTH 709 0
DWIDTH 18 0
BBX 16 26 3 -8
BITMAP
01FC
0707
0C03
1802
3802
3000
7000
6000
E000
E000
E03F
E00E
E00C
600C
701C
3018
1C18
07E0
0000
0100
0380
0180
0180
0100
0200
0400
ENDCHAR
STARTCHAR gcommaaccent
ENCODING 291
SWIDTH 499 0
DWIDTH 12 0
BBX 14 26 1 -6
BITMAP
0040
0080
0100
0300
0380
0300
0000
078C
0C7C
1830
3830
3030
3030
3060
18E0
0F80
1000
3800
3F00
17C0
60E0
C060
C060
C060
70C0
1F00
ENDCHAR
STARTCHAR Hcircumflex
ENCODING 292
SWIDTH 775 0
DWIDTH 19 0
BBX 21 23 1 0
BITMAP
001800
003C00
006400
008200
000000
0FC3F8
0300E0
0300C0
0700C0
0600C0
0601C0
060180
0E0180
0E0180
0FFF80
0C0380
0C0300
1C0300
1C0300
180700
180700
380600
FE1F80
ENDCHAR
STARTCHAR hcircumflex
ENCODING 293
SWIDTH 607 0
DWIDTH 15 0
BBX 12 24 3 0
BITMAP
0600
0F00
1900
2080
0000
0C00
3C00
0C00
1C00
1800
1800
18E0
3930
3230
3430
3860
3860
7060
70C0
60C0
60D0
E190
C1A0
C1C0
ENDCHAR
STARTCHAR Hbar
ENCODING 294
SWIDTH 775 0
DWIDTH 19 0
BBX 21 18 1 0
BITMAP
0FC3F8
0300E0
0300C0
0700C0
0600C0
FFFFF8
060180
0E0180
0E0180
0FFF80
0C0380
0C0300
1C0300
1C0300
180700
180700
380600
FE1F80
ENDCHAR
STARTCHAR hbar
ENCODING 295
SWIDTH 607 0
DWIDTH 15 0
BBX 14 19 1 0
BITMAP
0300
0F00
0300
0700
0600
FFE0
0638
0E4C
0C8C
0D0C
0E18
0E18
1C18
1C30
1830
1834
3864
3068
3070
ENDCHAR
STARTCHAR Itilde
ENCODING 296
SWIDTH 345 0
DWIDTH 9 0
BBX 12 22 1 0
BITMAP
0610
0FE0
1040
0000
0FE0
0380
0300
0300
0700
0600
0600
0600
0E00
0E00
0C00
0C00
1C00
1C00
1800
1800
3800
FE00
ENDCHAR
STARTCHAR itilde
ENCODING 297
SWIDTH 317 0
DWIDTH 8 0
BBX 9 17 2 0
BITMAP
3080
7F00
8200
0000
0C00
7800
1800
1800
1800
3000
3000
3000
3000
2400
6400
6800
7000
ENDCHAR
STARTCHAR Imacron
ENCODING 298
SWIDTH 345 0
DWIDTH 9 0
BBX 11 20 1 0
BITMAP
1FC0
0000
0FE0
0380
0300
0300
0700
0600
0600
0600
0E00
0E00
0C00
0C00
1C00
1C00
1800
1800
3800
FE00
ENDCHAR
STARTCHAR imacron
ENCODING 299
SWIDTH 317 0
DWIDTH 8 0
BBX 7 15 2 0
BITMAP
FE
00
0C
78
18
18
18
30
30
30
30
24
64
68
70
ENDCHAR
STARTCHAR Ibreve
ENCODING 300
SWIDTH 345 0
DWIDTH 9 0
BBX 11 23 1 0
BITMAP
1040
1080
1F80
0F00
0000
0FE0
0380
0300
0300
0700
0600
0600
0600
0E00
0E00
0C00
0C00
1C00
1C00
1800
1800
3800
FE00
ENDCHAR
STARTCHAR ibreve
ENCODING 301
SWIDTH 317 0
DWIDTH 8 0
BBX 7 18 3 0
BITMAP
82
84
FC
78
00
18
F0
30
30
30
60
60
60
60
48
C8
D0
E0
ENDCHAR
STARTCHAR Iogonek
ENCODING 302
SWIDTH 345 0
DWIDTH 9 0
BBX 11 23 1 -5
BITMAP
0FE0
0380
0300
0300
0700
0600
0600
0600
0E00
0E00
0C00
0C00
1C00
1C00
1800
1800
3800
FE00
0800
1000
3000
3000
1E00
ENDCHAR
STARTCHAR iogonek
ENCODING 303
SWIDTH 317 0
DWIDTH 8 0
BBX 6 23 3 -5
BITMAP
0C
1C
1C
00
00
18
F0
30
30
30
60
60
60
60
48
C8
D0
F0
20
40
C0
C0
78
ENDCHAR
STARTCHAR Idotaccent
ENCODING 304
SWIDTH 345 0
DWIDTH 9 0
BBX 11 22 1 0
BITMAP
0300
0700
0600
0000
0FE0
0380
0300
0300
0700
0600
0600
0600
0E00
0E00
0C00
0C00
1C00
1C00
1800
1800
3800
FE00
ENDCHAR
STARTCHAR dotlessi
ENCODING 305
SWIDTH 317 0
DWIDTH 8 0
BBX 5 13 3 0
BITMAP
18
F0
30
30
30
60
60
60
60
48
C8
D0
E0
ENDCHAR
STARTCHAR IJ
ENCODING 306
SWIDTH 680 0
DWIDTH 18 0
BBX 20 21 1 -3
BITMAP
0FE7F0
0381C0
030180
030180
070380
060380
060300
060300
0E0700
0E0700
0C0600
0C0600
1C0600
1C0E00
180E00
180C00
381C00
FE1800
003800
007000
01C000
ENDCHAR
STARTCHAR ij
ENCODING 307
SWIDTH 610 0
DWIDTH 16 0
BBX 14 24 3 -6
BITMAP
0C18
1C1C
1C18
0000
0000
1818
F0F8
3038
3030
3030
6030
6030
6060
6060
4860
C860
D0E0
E0C0
00C0
00C0
0080
0980
1D80
0E00
ENDCHAR
STARTCHAR Jcircumflex
ENCODING 308
SWIDTH 352 0
DWIDTH 9 0
BBX 13 26 -1 -3
BITMAP
00C0
01E0
0320
0410
0000
03F8
00E0
00C0
00C0
01C0
01C0
0180
0180
0380
0380
0300
0300
0300
0700
0700
0600
0E00
0C00
1C00
3800
E000
ENDCHAR
STARTCHAR jcircumflex
ENCODING 309
SWIDTH 309 0
DWIDTH 8 0
BBX 11 24 -2 -6
BITMAP
0180
03C0
0640
0820
0000
00C0
07C0
01C0
0180
0180
0180
0180
0300
0300
0300
0300
0700
0600
0600
0600
0400
4C00
EC00
7000
ENDCHAR
STARTCHAR Kcommaaccent
ENCODING 310
SWIDTH 650 0
DWIDTH 16 0
BBX 19 26 1 -8
BITMAP
0FC7E0
030300
020600
020C00
061000
066000
06C000
058000
0F8000
0F8000
0DC000
0CC000
1CE000
1C7000
187000
183800
381C00
FE0700
000000
008000
01C000
00C000
00C000
008000
010000
020000
ENDCHAR
STARTCHAR kcommaaccent
ENCODING 311
SWIDTH 545 0
DWIDTH 14 0
BBX 13 27 2 -8
BITMAP
0600
3E00
0C00
0C00
0C00
1C00
1838
18F8
1980
3A00
3400
3600
3E00
7600
6700
6710
6310
E3A0
C1C0
0000
0400
0E00
0600
0600
0400
0800
1000
ENDCHAR
STARTCHAR kgreenlandic
ENCODING 312
SWIDTH 545 0
DWIDTH 14 0
BBX 13 12 2 0
BITMAP
18F8
1980
3A00
3400
3600
3E00
7600
6700
6710
6310
E3A0
C1C0
ENDCHAR
STARTCHAR Lacute
ENCODING 313
SWIDTH 565 0
DWIDTH 14 0
BBX 14 24 1 0
BITMAP
0040
00E0
01C0
0300
0400
0000
0FE0
0300
0300
0700
0600
0600
0600
0E00
0E00
0C00
0C00
0C00
1C00
1804
1804
1808
3818
FFF8
ENDCHAR
STARTCHAR lacute
ENCODING 314
SWIDTH 306 0
DWIDTH 8 0
BBX 8 25 3 0
BITMAP
02
07
0E
18
20
00
0C
7C
1C
18
18
18
38
30
30
30
30
60
60
60
60
C8
C8
D0
E0
ENDCHAR
STARTCHAR Lcommaaccent
ENCODING 315
SWIDTH 565 0
DWIDTH 14 0
BBX 14 26 1 -8
BITMAP
0FE0
0300
0300
0700
0600
0600
0600
0E00
0E00
0C00
0C00
0C00
1C00
1804
1804
1808
3818
FFF8
0000
0100
0380
0180
0180
0100
0200
0400
ENDCHAR
STARTCHAR lcommaaccent
ENCODING 316
SWIDTH 306 0
DWIDTH 8 0
BBX 6 27 3 -8
BITMAP
0C
7C
1C
18
18
18
38
30
30
30
30
60
60
60
60
C8
C8
D0
E0
00
20
70
30
30
20
40
80
ENDCHAR
STARTCHAR Lcaron
ENCODING 317
SWIDTH 753 0
DWIDTH 18 0
BBX 20 19 1 0
BITMAP
000030
0FE070
030030
030020
070040
060080
060000
060000
0E0000
0E0000
0C0000
0C0000
0C0000
1C0000
180400
180400
180800
381800
FFF800
ENDCHAR
STARTCHAR lcaron
ENCODING 318
SWIDTH 507 0
DWIDTH 13 0
BBX 13 19 3 0
BITMAP
0C18
7C38
1C18
1810
1820
1840
3800
3000
3000
3000
3000
6000
6000
6000
6000
C800
C800
D000
E000
ENDCHAR
STARTCHAR Ldot
ENCODING 319
SWIDTH 802 0
DWIDTH 20 0
BBX 18 18 1 0
BITMAP
0FE000
030000
030000
070000
060000
060000
060000
0E0000
0E0000
0C0000
0C01C0
0C01C0
1C01C0
180400
180400
180800
381800
FFF800
ENDCHAR
STARTCHAR ldot
ENCODING 320
SWIDTH 556 0
DWIDTH 15 0
BBX 11 19 3 0
BITMAP
0C00
7C00
1C00
1800
1800
1800
3800
3000
3000
3000
3000
60E0
60E0
60E0
6000
C800
C800
D000
E000
ENDCHAR
STARTCHAR Lslash
ENCODING 321
SWIDTH 571 0
DWIDTH 14 0
BBX 14 18 1 0
BITMAP
0FE0
0300
0300
0700
0600
0620
06C0
0F80
0E00
0C00
3C00
4C00
1C00
1800
1804
1808
3818
FFF8
ENDCHAR
STARTCHAR lslash
ENCODING 322
SWIDTH 318 0
DWIDTH 8 0
BBX 8 19 2 0
BITMAP
06
3E
0E
0C
0C
0C
1D
1B
1C
38
78
B0
30
30
30
64
64
68
70
ENDCHAR
STARTCHAR Nacute
ENCODING 323
SWIDTH 763 0
DWIDTH 19 0
BBX 22 24 0 0
BITMAP
000200
000700
000E00
001800
002000
000000
0F80FC
038030
03C020
02C060
04E060
04E040
047040
047040
0430C0
083880
081880
081C80
080C80
180F80
180F00
100700
300700
FC0300
ENDCHAR
STARTCHAR nacute
ENCODING 324
SWIDTH 618 0
DWIDTH 15 0
BBX 12 19 3 0
BITMAP
0080
01C0
0380
0600
0800
0000
18E0
F930
1A30
3430
3860
3860
3060
70C0
60C0
60D0
E190
C1A0
C1C0
ENDCHAR
STARTCHAR Ncommaaccent
ENCODING 325
SWIDTH 763 0
DWIDTH 19 0
BBX 22 26 0 -8
BITMAP
0F80FC
038030
03C020
02C060
04E060
04E040
047040
047040
0430C0
083880
081880
081C80
080C80
180F80
180F00
100700
300700
FC0300
000000
002000
007000
003000
003000
002000
004000
008000
ENDCHAR
STARTCHAR ncommaaccent
ENCODING 326
SWIDTH 618 0
DWIDTH 15 0
BBX 12 21 3 -8
BITMAP
18E0
F930
1A30
3430
3860
3860
3060
70C0
60C0
60D0
E190
C1A0
C1C0
0000
0200
0700
0300
0300
0200
0400
0800
ENDCHAR
STARTCHAR Ncaron
ENCODING 327
SWIDTH 763 0
DWIDTH 19 0
BBX 22 23 0 0
BITMAP
004100
002600
003C00
001800
000000
0F80FC
038030
03C020
02C060
04E060
04E040
047040
047040
0430C0
083880
081880
081C80
080C80
180F80
180F00
100700
300700
FC0300
ENDCHAR
STARTCHAR ncaron
ENCODING 328
SWIDTH 618 0
DWIDTH 15 0
BBX 12 18 3 0
BITMAP
1040
0980
0F00
0600
0000
18E0
F930
1A30
3430
3860
3860
3060
70C0
60C0
60D0
E190
C1A0
C1C0
ENDCHAR
STARTCHAR napostrophe
ENCODING 329
SWIDTH 823 0
DWIDTH 20 0
BBX 16 19 4 0
BITMAP
3000
7000
3000
2000
4000
8000
018E
0F93
01A3
0343
0386
0386
0306
070C
060C
060D
0E19
0C1A
0C1C
ENDCHAR
STARTCHAR Eng
ENCODING 330
SWIDTH 763 0
DWIDTH 19 0
BBX 22 24 0 -6
BITMAP
0F80FC
038030
03C020
02C060
04E060
04E040
047040
047040
0430C0
083880
081880
081C80
080C80
180F80
180F80
100780
300780
FC0300
000300
000300
000200
002600
007600
003800
ENDCHAR
STARTCHAR eng
ENCODING 331
SWIDTH 618 0
DWIDTH 15 0
BBX 12 19 3 -6
BITMAP
18E0
F930
1A30
3430
3860
3860
3060
70C0
60C0
60C0
E0C0
C1C0
C180
0180
0180
0100
1300
3B00
1C00
ENDCHAR
STARTCHAR Omacron
ENCODING 332
SWIDTH 753 0
DWIDTH 19 0
BBX 17 20 3 0
BITMAP
07F000
000000
01F800
070C00
0C0600
1C0300
380300
300380
700380
700380
E00380
E00380
E00700
E00700
E00700
600E00
600C00
301800
183000
07C000
ENDCHAR
STARTCHAR omacron
ENCODING 333
SWIDTH 537 0
DWIDTH 13 0
BBX 12 15 2 0
BITMAP
1FC0
0000
07C0
1C60
3830
7030
6030
6030
C070
C060
C060
C0E0
C1C0
6380
3C00
ENDCHAR
STARTCHAR Obreve
ENCODING 334
SWIDTH 753 0
DWIDTH 19 0
BBX 17 23 3 0
BITMAP
020800
021000
03F000
01E000
000000
01F800
070C00
0C0600
1C0300
380300
300380
700380
700380
E00380
E00380
E00700
E00700
E00700
600E00
600C00
301800
183000
07C000
ENDCHAR
STARTCHAR obreve
ENCODING 335
SWIDTH 537 0
DWIDTH 13 0
BBX 12 18 2 0
BITMAP
1040
1080
1F80
0F00
0000
07C0
1C60
3830
7030
6030
6030
C070
C060
C060
C0E0
C1C0
6380
3C00
ENDCHAR
STARTCHAR Ohungarumlaut
ENCODING 336
SWIDTH 753 0
DWIDTH 19 0
BBX 17 24 3 0
BITMAP
009800
019800
01B000
032000
022000
000000
01F800
070C00
0C0600
1C0300
380300
300380
700380
700380
E00380
E00380
E00700
E00700
E00700
600E00
600C00
301800
183000
07C000
ENDCHAR
STARTCHAR ohungarumlaut
ENCODING 337
SWIDTH 537 0
DWIDTH 13 0
BBX 12 19 2 0
BITMAP
0260
0660
06C0
0C80
0880
0000
07C0
1C60
3830
7030
6030
6030
C070
C060
C060
C0E0
C1C0
6380
3C00
ENDCHAR
STARTCHAR OE
ENCODING 338
SWIDTH 1020 0
DWIDTH 25 0
BBX 25 18 3 0
BITMAP
00FFFF80
07830380
0E030100
1C030100
38030100
30060000
70060000
70060400
60060C00
E007F800
E00E0800
E00C0800
E00C0000
600C0200
701C0400
301C0400
1C1C0C00
07FFF800
ENDCHAR
STARTCHAR oe
ENCODING 339
SWIDTH 806 0
DWIDTH 20 0
BBX 19 13 2 0
BITMAP
078380
1CC460
307860
707060
6070C0
6071C0
C0E700
C0F800
C0E000
C1E040
C1E080
637100
3C1E00
ENDCHAR
STARTCHAR Racute
ENCODING 340
SWIDTH 640 0
DWIDTH 16 0
BBX 16 24 1 0
BITMAP
0010
0038
0070
00C0
0100
0000
0FF8
030E
0306
0707
0607
0607
0606
0E0E
0E18
0FF0
0C38
0C18
1C18
1C18
1818
1818
381C
FE0E
ENDCHAR
STARTCHAR racute
ENCODING 341
SWIDTH 402 0
DWIDTH 10 0
BBX 9 19 3 0
BITMAP
0100
0380
0700
0C00
1000
0000
3980
F380
3500
3800
3000
7000
7000
6000
6000
E000
E000
C000
C000
ENDCHAR
STARTCHAR Rcommaaccent
ENCODING 342
SWIDTH 640 0
DWIDTH 16 0
BBX 16 26 1 -8
BITMAP
0FF8
030E
0306
0707
0607
0607
0606
0E0E
0E18
0FF0
0C38
0C18
1C18
1C18
1818
1818
381C
FE0E
0000
0100
0380
0180
0180
0100
0200
0400
ENDCHAR
STARTCHAR rcommaaccent
ENCODING 343
SWIDTH 402 0
DWIDTH 10 0
BBX 9 21 3 -8
BITMAP
3980
F380
3500
3800
3000
7000
7000
6000
6000
E000
E000
C000
C000
0000
2000
7000
3000
3000
2000
4000
8000
ENDCHAR
STARTCHAR Rcaron
ENCODING 344
SWIDTH 640 0
DWIDTH 16 0
BBX 16 23 1 0
BITMAP
0208
0130
01E0
00C0
0000
0FF8
030E
0306
0707
0607
0607
0606
0E0E
0E18
0FF0
0C38
0C18
1C18
1C18
1818
1818
381C
FE0E
ENDCHAR
STARTCHAR rcaron
ENCODING 345
SWIDTH 402 0
DWIDTH 10 0
BBX 9 18 3 0
BITMAP
4100
2600
3C00
1800
0000
3980
F380
3500
3800
3000
7000
7000
6000
6000
E000
E000
C000
C000
ENDCHAR
STARTCHAR Sacute
ENCODING 346
SWIDTH 533 0
DWIDTH 13 0
BBX 13 24 1 0
BITMAP
0020
0070
00E0
0180
0200
0000
03E0
0618
0818
1818
1810
1800
1E00
0F00
07C0
01E0
00E0
0070
4030
4030
4030
E060
70C0
1F00
ENDCHAR
STARTCHAR sacute
ENCODING 347
SWIDTH 389 0
DWIDTH 10 0
BBX 9 19 1 0
BITMAP
0100
0380
0700
0C00
1000
0000
0F00
1180
3180
3000
3800
1C00
0E00
0600
0700
4300
C300
E200
3C00
ENDCHAR
STARTCHAR Scircumflex
ENCODING 348
SWIDTH 533 0
DWIDTH 13 0
BBX 13 23 1 0
BITMAP
0180
03C0
0640
0820
0000
03E0
0618
0818
1818
1810
1800
1E00
0F00
07C0
01E0
00E0
0070
4030
4030
4030
E060
70C0
1F00
ENDCHAR
STARTCHAR scircumflex
ENCODING 349
SWIDTH 389 0
DWIDTH 10 0
BBX 9 18 1 0
BITMAP
0600
0F00
1900
2080
0000
0F00
1180
3180
3000
3800
1C00
0E00
0600
0700
4300
C300
E200
3C00
ENDCHAR
STARTCHAR Scedilla
ENCODING 350
SWIDTH 533 0
DWIDTH 13 0
BBX 13 24 1 -6
BITMAP
03E0
0618
0818
1818
1810
1800
1E00
0F00
07C0
01E0
00E0
0070
4030
4030
4030
E060
70C0
1F00
0200
0400
0700
0300
0300
0E00
ENDCHAR
STARTCHAR scedilla
ENCODING 351
SWIDTH 389 0
DWIDTH 10 0
BBX 9 19 1 -6
BITMAP
0F00
1180
3180
3000
3800
1C00
0E00
0600
0700
4300
C300
E200
3C00
0800
1000
1C00
0C00
0C00
3800
ENDCHAR
STARTCHAR Scaron
ENCODING 352
SWIDTH 533 0
DWIDTH 13 0
BBX 14 22 1 0
BITMAP
0204
0118
00E0
00C0
03E0
0618
0818
1818
1810
1800
1E00
0F00
07C0
01E0
00E0
0070
4030
4030
4030
E060
70C0
1F00
ENDCHAR
STARTCHAR scaron
ENCODING 353
SWIDTH 389 0
DWIDTH 10 0
BBX 11 18 1 0
BITMAP
1860
0CC0
0700
0200
0000
0F00
1180
3180
3000
3800
1C00
0E00
0600
0700
4300
C300
E200
3C00
ENDCHAR
STARTCHAR Tcommaaccent
ENCODING 354
SWIDTH 606 0
DWIDTH 15 0
BBX 15 24 4 -6
BITMAP
FFFE
C30E
8304
8304
0700
0700
0600
0600
0600
0E00
0C00
0C00
0C00
1C00
1C00
1800
1800
FF00
0400
0800
0E00
0600
0600
1C00
ENDCHAR
STARTCHAR tcommaaccent
ENCODING 355
SWIDTH 341 0
DWIDTH 9 0
BBX 8 22 3 -6
BITMAP
08
18
38
FF
30
30
30
60
60
60
60
60
C4
C8
D0
E0
10
20
38
18
18
70
ENDCHAR
STARTCHAR Tcaron
ENCODING 356
SWIDTH 606 0
DWIDTH 15 0
BBX 15 23 4 0
BITMAP
0820
04C0
0780
0300
0000
FFFE
C30E
8304
8304
0700
0700
0600
0600
0600
0E00
0C00
0C00
0C00
1C00
1C00
1800
1800
FF00
ENDCHAR
STARTCHAR tcaron
ENCODING 357
SWIDTH 540 0
DWIDTH 14 0
BBX 14 19 3 0
BITMAP
000C
001C
000C
0808
1810
3820
FF00
3000
3000
3000
6000
6000
6000
6000
6000
C400
C800
D000
E000
ENDCHAR
STARTCHAR Tbar
ENCODING 358
SWIDTH 606 0
DWIDTH 15 0
BBX 15 18 4 0
BITMAP
FFFE
C30E
8304
8304
0700
0700
0600
0600
3FF8
0E00
0C00
0C00
0C00
1C00
1C00
1800
1800
FF00
ENDCHAR
STARTCHAR tbar
ENCODING 359
SWIDTH 341 0
DWIDTH 9 0
BBX 11 16 2 0
BITMAP
0400
0C00
1C00
7F80
1800
1800
1800
3000
3000
FFE0
3000
3000
6200
6400
6800
7000
ENDCHAR
STARTCHAR Utilde
ENCODING 360
SWIDTH 794 0
DWIDTH 20 0
BBX 18 22 4 0
BITMAP
018400
03F800
041000
000000
FE1FC0
380700
300700
300600
700600
600E00
600E00
600C00
600C00
600C00
C01C00
C01800
C01800
C03800
C03000
607000
70E000
1F8000
ENDCHAR
STARTCHAR utilde
ENCODING 361
SWIDTH 618 0
DWIDTH 15 0
BBX 13 17 3 0
BITMAP
0610
0FE0
1040
0000
1818
F830
3030
3030
7070
6060
6060
60E0
6160
C148
C2C8
CCD0
F0E0
ENDCHAR
STARTCHAR Umacron
ENCODING 362
SWIDTH 794 0
DWIDTH 20 0
BBX 18 20 4 0
BITMAP
07F000
000000
FE1FC0
380700
300700
300600
700600
600E00
600E00
600C00
600C00
600C00
C01C00
C01800
C01800
C03800
C03000
607000
70E000
1F8000
ENDCHAR
STARTCHAR umacron
ENCODING 363
SWIDTH 618 0
DWIDTH 15 0
BBX 13 15 3 0
BITMAP
1FC0
0000
1818
F830
3030
3030
7070
6060
6060
60E0
6160
C148
C2C8
CCD0
F0E0
ENDCHAR
STARTCHAR Ubreve
ENCODING 364
SWIDTH 794 0
DWIDTH 20 0
BBX 18 23 4 0
BITMAP
020800
021000
03F000
01E000
000000
FE1FC0
380700
300700
300600
700600
600E00
600E00
600C00
600C00
600C00
C01C00
C01800
C01800
C03800
C03000
607000
70E000
1F8000
ENDCHAR
STARTCHAR ubreve
ENCODING 365
SWIDTH 618 0
DWIDTH 15 0
BBX 13 18 3 0
BITMAP
1040
1080
1F80
0F00
0000
1818
F830
3030
3030
7070
6060
6060
60E0
6160
C148
C2C8
CCD0
F0E0
ENDCHAR
STARTCHAR Uring
ENCODING 366
SWIDTH 794 0
DWIDTH 20 0
BBX 18 24 4 0
BITMAP
01C000
032000
022000
026000
01C000
000000
FE1FC0
380700
300700
300600
700600
600E00
600E00
600C00
600C00
600C00
C01C00
C01800
C01800
C03800
C03000
607000
70E000
1F8000
ENDCHAR
STARTCHAR uring
ENCODING 367
SWIDTH 618 0
DWIDTH 15 0
BBX 13 19 3 0
BITMAP
0700
0C80
0880
0980
0700
0000
1818
F830
3030
3030
7070
6060
6060
60E0
6160
C148
C2C8
CCD0
F0E0
ENDCHAR
STARTCHAR Uhungarumlaut
ENCODING 368
SWIDTH 794 0
DWIDTH 20 0
BBX 18 24 4 0
BITMAP
009800
019800
01B000
032000
022000
000000
FE1FC0
380700
300700
300600
700600
600E00
600E00
600C00
600C00
600C00
C01C00
C01800
C01800
C03800
C03000
607000
70E000
1F8000
ENDCHAR
STARTCHAR uhungarumlaut
ENCODING 369
SWIDTH 618 0
DWIDTH 15 0
BBX 13 19 3 0
BITMAP
0260
0660
06C0
0C80
0880
0000
1818
F830
3030
3030
7070
6060
6060
60E0
6160
C148
C2C8
CCD0
F0E0
ENDCHAR
STARTCHAR Uogonek
ENCODING 370
SWIDTH 794 0
DWIDTH 20 0
BBX 18 23 4 -5
BITMAP
FE1FC0
380700
300700
300600
700600
600E00
600E00
600C00
600C00
600C00
C01C00
C01800
C01800
C03800
C03000
607000
70E000
1F8000
020000
040000
0C0000
0C0000
078000
ENDCHAR
STARTCHAR uogonek
ENCODING 371
SWIDTH 618 0
DWIDTH 15 0
BBX 13 18 3 -5
BITMAP
1818
F830
3030
3030
7070
6060
6060
60E0
6160
C148
C2C8
CCD0
F2E0
0400
0800
1800
1800
0F00
ENDCHAR
STARTCHAR Wcircumflex
ENCODING 372
SWIDTH 946 0
DWIDTH 24 0
BBX 25 23 3 0
BITMAP
000C0000
001E0000
00320000
00410000
00000000
FC001F80
30180600
301C0400
303C0C00
302C0800
302C1800
304C1000
304C1000
308C2000
308C2000
110E4000
190E4000
1A068000
1A068000
1C070000
1C070000
1C070000
18060000
ENDCHAR
STARTCHAR wcircumflex
ENCODING 373
SWIDTH 785 0
DWIDTH 20 0
BBX 18 18 3 0
BITMAP
006000
00F000
019000
020800
000000
303080
F030C0
3060C0
7060C0
606080
606080
60E080
60C100
C1C100
C1C200
C2C400
CCC800
707000
ENDCHAR
STARTCHAR Ycircumflex
ENCODING 374
SWIDTH 591 0
DWIDTH 15 0
BBX 16 23 3 0
BITMAP
0180
03C0
0640
0820
0000
FC3F
380C
1818
1810
1830
1C60
0C40
0C80
0D80
0700
0600
0600
0600
0C00
0C00
0C00
0C00
7F00
ENDCHAR
STARTCHAR ycircumflex
ENCODING 375
SWIDTH 468 0
DWIDTH 12 0
BBX 13 24 0 -6
BITMAP
0180
03C0
0640
0820
0000
0C08
3C18
0C18
0C10
0C10
0C20
0E20
0640
0640
0680
0780
0700
0700
0600
0400
0400
0800
D800
E000
ENDCHAR
STARTCHAR Ydieresis
ENCODING 376
SWIDTH 591 0
DWIDTH 15 0
BBX 16 21 3 0
BITMAP
0618
0E38
0C30
FC3F
380C
1818
1810
1830
1C60
0C40
0C80
0D80
0700
0600
0600
0600
0C00
0C00
0C00
0C00
7F00
ENDCHAR
STARTCHAR Zacute
ENCODING 377
SWIDTH 622 0
DWIDTH 16 0
BBX 18 24 0 0
BITMAP
000400
000E00
001C00
003000
004000
000000
07FFC0
0603C0
040780
080F00
001E00
001C00
003800
007000
00E000
01E000
03C000
078000
0F0000
0E0100
1C0200
380200
700E00
FFFC00
ENDCHAR
STARTCHAR zacute
ENCODING 378
SWIDTH 468 0
DWIDTH 12 0
BBX 12 19 1 0
BITMAP
0040
00E0
01C0
0300
0400
0000
0FF0
1FF0
1060
20C0
0180
0300
0600
0C00
1810
3020
7C20
CFE0
C1C0
ENDCHAR
STARTCHAR Zdotaccent
ENCODING 379
SWIDTH 622 0
DWIDTH 16 0
BBX 18 22 0 0
BITMAP
001800
003800
003000
000000
07FFC0
0603C0
040780
080F00
001E00
001C00
003800
007000
00E000
01E000
03C000
078000
0F0000
0E0100
1C0200
380200
700E00
FFFC00
ENDCHAR
STARTCHAR zdotaccent
ENCODING 380
SWIDTH 468 0
DWIDTH 12 0
BBX 12 17 1 0
BITMAP
0180
0380
0300
0000
0FF0
1FF0
1060
20C0
0180
0300
0600
0C00
1810
3020
7C20
CFE0
C1C0
ENDCHAR
STARTCHAR Zcaron
ENCODING 381
SWIDTH 622 0
DWIDTH 16 0
BBX 18 22 0 0
BITMAP
008100
006600
003C00
001000
07FFC0
0603C0
040780
080F00
001E00
001C00
003800
007000
00E000
01E000
03C000
078000
0F0000
0E0100
1C0200
380200
700E00
FFFC00
ENDCHAR
STARTCHAR zcaron
ENCODING 382
SWIDTH 468 0
DWIDTH 12 0
BBX 12 18 1 0
BITMAP
0410
0260
03C0
0100
0000
0FF0
1FF0
1060
20C0
0180
0300
0600
0C00
1810
3020
7C20
CFE0
C1C0
ENDCHAR
STARTCHAR uni0186
ENCODING 390
SWIDTH 661 0
DWIDTH 17 0
BBX 16 18 3 0
BITMAP
07E0
1C18
180C
100E
2006
0007
0007
0007
0007
0007
0006
000E
000E
401C
4018
C030
E0E0
1F80
ENDCHAR
STARTCHAR uni0189
ENCODING 393
SWIDTH 770 0
DWIDTH 19 0
BBX 19 18 1 0
BITMAP
1FFC00
070700
070380
0601C0
0600C0
0600C0
0600E0
0E00E0
0E00E0
7FC0E0
0C00E0
1C01C0
1C01C0
180380
180300
380E00
383C00
FFE000
ENDCHAR
STARTCHAR uni018E
ENCODING 398
SWIDTH 596 0
DWIDTH 15 0
BBX 17 18 1 0
BITMAP
0FFF80
180E00
100C00
100C00
201800
001800
081800
081800
0FF800
183000
103000
003000
003000
407000
406000
406000
E06000
FFF800
ENDCHAR
STARTCHAR florin
ENCODING 402
SWIDTH 530 0
DWIDTH 13 0
BBX 15 21 1 -3
BITMAP
003C
006E
00C6
00C0
00C0
0180
0180
0180
0FF0
0300
0300
0300
0700
0600
0600
0600
0C00
0C00
0C00
C800
7000
ENDCHAR
STARTCHAR uni0197
ENCODING 407
SWIDTH 345 0
DWIDTH 9 0
BBX 11 18 1 0
BITMAP
0FE0
0380
0300
0300
0700
0600
0600
0600
FFE0
0E00
0C00
0C00
1C00
1C00
1800
1800
3800
FE00
ENDCHAR
STARTCHAR uni019A
ENCODING 410
SWIDTH 306 0
DWIDTH 8 0
BBX 11 19 1 0
BITMAP
0300
1F00
0700
0600
0600
0600
0E00
0C00
0C00
FFE0
0C00
1800
1800
1800
1800
3200
3200
3400
3800
ENDCHAR
STARTCHAR uni019D
ENCODING 413
SWIDTH 763 0
DWIDTH 19 0
BBX 25 24 -3 -6
BITMAP
01F01F80
00700600
00780400
00580C00
009C0C00
009C0800
008E0800
008E0800
00861800
01071000
01031000
01039000
01019000
0301F000
0301E000
0300E000
0700E000
06006000
06000000
06000000
04000000
4C000000
EC000000
70000000
ENDCHAR
STARTCHAR uni019F
ENCODING 415
SWIDTH 753 0
DWIDTH 19 0
BBX 17 18 3 0
BITMAP
01F800
070C00
0C0600
1C0300
380300
300380
700380
700380
FFFF80
E00380
E00700
E00700
E00700
600E00
600C00
301800
183000
07C000
ENDCHAR
STARTCHAR Ohorn
ENCODING 416
SWIDTH 753 0
DWIDTH 19 0
BBX 19 18 3 0
BITMAP
01F860
070CE0
0C0660
1C0340
380380
300380
700380
700380
E00380
E00380
E00700
E00700
E00700
600E00
600C00
301800
183000
07C000
ENDCHAR
STARTCHAR ohorn
ENCODING 417
SWIDTH 537 0
DWIDTH 13 0
BBX 15 13 2 0
BITMAP
07C6
1C6E
3836
7034
6038
6030
C070
C060
C060
C0E0
C1C0
6380
3C00
ENDCHAR
STARTCHAR Uhorn
ENCODING 431
SWIDTH 794 0
DWIDTH 20 0
BBX 20 18 4 0
BITMAP
FE1FF0
380770
300730
300620
700640
600E80
600E00
600C00
600C00
600C00
C01C00
C01800
C01800
C03800
C03000
607000
70E000
1F8000
ENDCHAR
STARTCHAR uhorn
ENCODING 432
SWIDTH 618 0
DWIDTH 15 0
BBX 16 13 3 0
BITMAP
181B
F837
3033
3032
7074
6068
6060
60E0
6160
C148
C2C8
CCD0
F0E0
ENDCHAR
STARTCHAR uni01B5
ENCODING 437
SWIDTH 622 0
DWIDTH 16 0
BBX 18 18 0 0
BITMAP
07FFC0
0603C0
040780
080F00
001E00
001C00
003800
007000
0FFE00
01E000
03C000
078000
0F0000
0E0100
1C0200
380200
700E00
FFFC00
ENDCHAR
STARTCHAR uni01B6
ENCODING 438
SWIDTH 468 0
DWIDTH 12 0
BBX 12 13 1 0
BITMAP
0FF0
1FF0
1060
20C0
0180
0300
7FF0
0C00
1810
3020
7C20
CFE0
C1C0
ENDCHAR
STARTCHAR uni01BB
ENCODING 443
SWIDTH 530 0
DWIDTH 13 0
BBX 13 17 1 0
BITMAP
03E0
0E30
1C18
1818
1818
0018
0030
0070
FFF8
0180
0700
0C00
1800
3000
6030
FFE0
FFE0
ENDCHAR
STARTCHAR uni01BC
ENCODING 444
SWIDTH 530 0
DWIDTH 13 0
BBX 13 17 1 0
BITMAP
0FF8
0FF8
0800
0800
1800
1000
17C0
1860
3070
0030
0030
0030
4030
C060
E060
71C0
1F00
ENDCHAR
STARTCHAR uni01C0
ENCODING 448
SWIDTH 270 0
DWIDTH 7 0
BBX 2 18 4 0
BITMAP
C0
C0
C0
C0
C0
C0
C0
C0
C0
C0
C0
C0
C0
C0
C0
C0
C0
C0
ENDCHAR
STARTCHAR uni01C2
ENCODING 450
SWIDTH 570 0
DWIDTH 14 0
BBX 12 18 2 -3
BITMAP
0600
0600
0600
0600
0600
0600
FFF0
0600
0600
0600
0600
FFF0
0600
0600
0600
0600
0600
0600
ENDCHAR
STARTCHAR uni01C3
ENCODING 451
SWIDTH 240 0
DWIDTH 6 0
BBX 6 18 2 0
BITMAP
0C
1C
1C
18
18
18
10
30
30
20
20
20
00
00
00
E0
E0
C0
ENDCHAR
STARTCHAR uni01CD
ENCODING 461
SWIDTH 624 0
DWIDTH 16 0
BBX 17 23 -1 0
BITMAP
008200
004C00
007800
003000
000000
001800
001800
003800
003C00
005C00
00CC00
008C00
018C00
010C00
020C00
03FC00
040E00
040E00
080E00
180600
100600
300600
FC1F80
ENDCHAR
STARTCHAR uni01CE
ENCODING 462
SWIDTH 561 0
DWIDTH 14 0
BBX 13 18 2 0
BITMAP
0820
04C0
0780
0300
0000
03D8
0E30
1C30
3830
3070
6060
6060
C0E0
C160
C148
C2C8
CCD0
70E0
ENDCHAR
STARTCHAR uni01CF
ENCODING 463
SWIDTH 345 0
DWIDTH 9 0
BBX 11 23 1 0
BITMAP
1040
0980
0F00
0600
0000
0FE0
0380
0300
0300
0700
0600
0600
0600
0E00
0E00
0C00
0C00
1C00
1C00
1800
1800
3800
FE00
ENDCHAR
STARTCHAR uni01D0
ENCODING 464
SWIDTH 317 0
DWIDTH 8 0
BBX 7 18 3 0
BITMAP
82
4C
78
30
00
18
F0
30
30
30
60
60
60
60
48
C8
D0
E0
ENDCHAR
STARTCHAR uni01D1
ENCODING 465
SWIDTH 753 0
DWIDTH 19 0
BBX 17 23 3 0
BITMAP
020800
013000
01E000
00C000
000000
01F800
070C00
0C0600
1C0300
380300
300380
700380
700380
E00380
E00380
E00700
E00700
E00700
600E00
600C00
301800
183000
07C000
ENDCHAR
STARTCHAR uni01D2
ENCODING 466
SWIDTH 537 0
DWIDTH 13 0
BBX 12 18 2 0
BITMAP
1040
0980
0F00
0600
0000
07C0
1C60
3830
7030
6030
6030
C070
C060
C060
C0E0
C1C0
6380
3C00
ENDCHAR
STARTCHAR uni01D3
ENCODING 467
SWIDTH 794 0
DWIDTH 20 0
BBX 18 23 4 0
BITMAP
020800
013000
01E000
00C000
000000
FE1FC0
380700
300700
300600
700600
600E00
600E00
600C00
600C00
600C00
C01C00
C01800
C01800
C03800
C03000
607000
70E000
1F8000
ENDCHAR
STARTCHAR uni01D4
ENCODING 468
SWIDTH 618 0
DWIDTH 15 0
BBX 13 18 3 0
BITMAP
1040
0980
0F00
0600
0000
1818
F830
3030
3030
7070
6060
6060
60E0
6160
C148
C2C8
CCD0
F0E0
ENDCHAR
STARTCHAR uni01D5
ENCODING 469
SWIDTH 794 0
DWIDTH 20 0
BBX 19 23 4 0
BITMAP
03F800
000000
018C00
039C00
031800
FE0FE0
380300
380300
300700
700600
700600
600600
600E00
600E00
600C00
C00C00
C01C00
C01800
C01800
C03800
603000
706000
1F8000
ENDCHAR
STARTCHAR uni01D6
ENCODING 470
SWIDTH 618 0
DWIDTH 15 0
BBX 13 19 3 0
BITMAP
0FE0
0000
0630
0E70
0C60
0000
1818
F830
3030
3030
7060
6060
6060
60E0
6160
C148
C2C8
CCD0
F0E0
ENDCHAR
STARTCHAR uni01D7
ENCODING 471
SWIDTH 794 0
DWIDTH 20 0
BBX 19 27 4 0
BITMAP
001000
003800
007000
00C000
010000
000000
018C00
039C00
031800
FE0FE0
380300
380300
300700
700600
700600
600600
600E00
600E00
600C00
C00C00
C01C00
C01800
C01800
C03800
603000
706000
1F8000
ENDCHAR
STARTCHAR uni01D8
ENCODING 472
SWIDTH 618 0
DWIDTH 15 0
BBX 13 23 3 0
BITMAP
0020
0070
00E0
0180
0200
0000
0630
0E70
0C60
0000
1818
F830
3030
3030
7060
6060
6060
60E0
6160
C148
C2C8
CCD0
F0E0
ENDCHAR
STARTCHAR uni01D9
ENCODING 473
SWIDTH 794 0
DWIDTH 20 0
BBX 19 26 4 0
BITMAP
020800
013000
01E000
00C000
000000
018C00
039C00
031800
FE0FE0
380300
380300
300700
700600
700600
600600
600E00
600E00
600C00
C00C00
C01C00
C01800
C01800
C03800
603000
706000
1F8000
ENDCHAR
STARTCHAR uni01DA
ENCODING 474
SWIDTH 618 0
DWIDTH 15 0
BBX 13 22 3 0
BITMAP
0820
04C0
0780
0300
0000
0630
0E70
0C60
0000
1818
F830
3030
3030
7060
6060
6060
60E0
6160
C148
C2C8
CCD0
F0E0
ENDCHAR
STARTCHAR uni01DB
ENCODING 475
SWIDTH 794 0
DWIDTH 20 0
BBX 19 27 4 0
BITMAP
020000
070000
038000
00C000
002000
000000
018C00
039C00
031800
FE0FE0
380300
380300
300700
700600
700600
600600
600E00
600E00
600C00
C00C00
C01C00
C01800
C01800
C03800
603000
706000
1F8000
ENDCHAR
STARTCHAR uni01DC
ENCODING 476
SWIDTH 618 0
DWIDTH 15 0
BBX 13 23 3 0
BITMAP
0400
0E00
0700
0180
0040
0000
0630
0E70
0C60
0000
1818
F830
3030
3030
7060
6060
6060
60E0
6160
C148
C2C8
CCD0
F0E0
ENDCHAR
STARTCHAR uni01DD
ENCODING 477
SWIDTH 453 0
DWIDTH 11 0
BBX 10 13 2 0
BITMAP
0F00
1180
20C0
40C0
00C0
03C0
1CC0
7080
6180
C180
C300
C600
3800
ENDCHAR
STARTCHAR uni01DE
ENCODING 478
SWIDTH 624 0
DWIDTH 16 0
BBX 17 23 -1 0
BITMAP
00FE00
000000
003180
007380
006300
000C00
001C00
001C00
002C00
002C00
004C00
00CC00
008E00
010E00
010600
03FE00
060600
040600
0C0600
180600
100600
300700
FC1F80
ENDCHAR
STARTCHAR uni01DF
ENCODING 479
SWIDTH 561 0
DWIDTH 14 0
BBX 13 19 2 0
BITMAP
07F0
0000
0618
0E38
0C30
0000
03D8
0E30
1C30
3830
3070
6060
6060
C0E0
C160
C148
C2C8
CCD0
70E0
ENDCHAR
STARTCHAR uni01E0
ENCODING 480
SWIDTH 624 0
DWIDTH 16 0
BBX 17 24 -1 0
BITMAP
01FC00
000000
001800
003800
003000
000000
001800
001800
003800
003C00
005C00
00CC00
008C00
018C00
010C00
020C00
03FC00
040E00
040E00
080E00
180600
100600
300600
FC1F80
ENDCHAR
STARTCHAR uni01E1
ENCODING 481
SWIDTH 561 0
DWIDTH 14 0
BBX 13 19 2 0
BITMAP
0FE0
0000
0180
0380
0300
0000
03D8
0E30
1C30
3830
3070
6060
6060
C0E0
C160
C148
C2C8
CCD0
70E0
ENDCHAR
STARTCHAR uni01E2
ENCODING 482
SWIDTH 880 0
DWIDTH 22 0
BBX 26 20 -1 0
BITMAP
0007F000
00000000
001FFFC0
000581C0
000D8080
000B8080
001B0080
00330000
00230000
00630200
00C30600
00FFFC00
01860400
03060400
060E0000
040E0100
0C0C0200
180C0200
301C0600
FC7FFC00
ENDCHAR
STARTCHAR uni01E3
ENCODING 483
SWIDTH 779 0
DWIDTH 19 0
BBX 19 16 2 0
BITMAP
01FC00
000000
001000
03B380
0C7460
187860
307860
3070C0
60F180
60FE00
C1F000
C1C000
C2C040
C4C080
C86100
703E00
ENDCHAR
STARTCHAR uni01E4
ENCODING 484
SWIDTH 709 0
DWIDTH 18 0
BBX 19 18 3 0
BITMAP
01FC00
070700
0C0300
180200
380200
300000
700000
600000
E00000
E00000
E03F00
E00E00
E00C00
600C00
70FFE0
301800
1C1800
07E000
ENDCHAR
STARTCHAR uni01E5
ENCODING 485
SWIDTH 499 0
DWIDTH 12 0
BBX 14 19 1 -6
BITMAP
078C
0C7C
1830
3830
3030
3030
3060
18E0
0F80
1000
3800
3F00
17C0
60E0
FFFC
C060
C060
70C0
1F00
ENDCHAR
STARTCHAR Gcaron
ENCODING 486
SWIDTH 709 0
DWIDTH 18 0
BBX 16 23 3 0
BITMAP
0208
0130
01E0
00C0
0000
01FC
0707
0C03
1802
3802
3000
7000
6000
E000
E000
E03F
E00E
E00C
600C
701C
3018
1C18
07E0
ENDCHAR
STARTCHAR gcaron
ENCODING 487
SWIDTH 499 0
DWIDTH 12 0
BBX 14 24 1 -6
BITMAP
0410
0260
03C0
0180
0000
078C
0C7C
1830
3830
3030
3030
3060
18E0
0F80
1000
3800
3F00
17C0
60E0
C060
C060
C060
70C0
1F00
ENDCHAR
STARTCHAR uni01E8
ENCODING 488
SWIDTH 650 0
DWIDTH 16 0
BBX 19 23 1 0
BITMAP
010400
009800
00F000
006000
000000
0FC7E0
030300
020600
020C00
061000
066000
06C000
058000
0F8000
0F8000
0DC000
0CC000
1CE000
1C7000
187000
183800
381C00
FE0700
ENDCHAR
STARTCHAR uni01E9
ENCODING 489
SWIDTH 545 0
DWIDTH 14 0
BBX 13 24 2 0
BITMAP
2080
1300
1E00
0C00
0000
0600
3E00
0C00
0C00
0C00
1C00
1838
18F8
1980
3A00
3400
3600
3E00
7600
6700
6710
6310
E3A0
C1C0
ENDCHAR
STARTCHAR uni01EA
ENCODING 490
SWIDTH 753 0
DWIDTH 19 0
BBX 17 23 3 -5
BITMAP
01F800
070C00
0C0600
1C0300
380300
300380
700380
700380
E00380
E00380
E00700
E00700
E00700
600E00
600C00
301800
183000
07C000
010000
020000
060000
060000
03C000
ENDCHAR
STARTCHAR uni01EB
ENCODING 491
SWIDTH 537 0
DWIDTH 13 0
BBX 12 18 2 -5
BITMAP
07C0
1C60
3830
7030
6030
6030
C070
C060
C060
C0E0
C1C0
6380
3E00
0400
0800
1800
1800
0F00
ENDCHAR
STARTCHAR uni01EC
ENCODING 492
SWIDTH 753 0
DWIDTH 19 0
BBX 17 25 3 -5
BITMAP
03F800
000000
01F800
070C00
0C0600
1C0300
380300
300380
700380
700380
E00380
E00380
E00700
E00700
E00700
600E00
600C00
301800
183000
07C000
010000
020000
060000
060000
03C000
ENDCHAR
STARTCHAR uni01ED
ENCODING 493
SWIDTH 537 0
DWIDTH 13 0
BBX 12 20 2 -5
BITMAP
1FC0
0000
07C0
1C60
3830
7030
6030
6030
C070
C060
C060
C0E0
C1C0
6380
3E00
0400
0800
1800
1800
0F00
ENDCHAR
STARTCHAR uni01F0
ENCODING 496
SWIDTH 309 0
DWIDTH 8 0
BBX 11 24 -2 -6
BITMAP
0820
04C0
0780
0300
0000
00C0
07C0
01C0
0180
0180
0180
0180
0300
0300
0300
0300
0700
0600
0600
0600
0400
4C00
EC00
7000
ENDCHAR
STARTCHAR uni01F4
ENCODING 500
SWIDTH 709 0
DWIDTH 18 0
BBX 16 24 3 0
BITMAP
0010
0038
0070
00C0
0100
0000
01FC
0707
0C03
1802
3802
3000
7000
6000
E000
E000
E03F
E00E
E00C
600C
701C
3018
1C18
07E0
ENDCHAR
STARTCHAR uni01F5
ENCODING 501
SWIDTH 499 0
DWIDTH 12 0
BBX 14 25 1 -6
BITMAP
0020
0070
00E0
0180
0200
0000
078C
0C7C
1830
3830
3030
3030
3060
18E0
0F80
1000
3800
3F00
17C0
60E0
C060
C060
C060
70C0
1F00
ENDCHAR
STARTCHAR uni01F8
ENCODING 504
SWIDTH 763 0
DWIDTH 19 0
BBX 22 24 0 0
BITMAP
004000
00E000
007000
001800
000400
000000
0F80FC
038030
03C020
02C060
04E060
04E040
047040
047040
0430C0
083880
081880
081C80
080C80
180F80
180F00
100700
300700
FC0300
ENDCHAR
STARTCHAR uni01F9
ENCODING 505
SWIDTH 618 0
DWIDTH 15 0
BBX 12 19 3 0
BITMAP
1000
3800
1C00
0600
0100
0000
18E0
F930
1A30
3430
3860
3860
3060
70C0
60C0
60D0
E190
C1A0
C1C0
ENDCHAR
STARTCHAR Aringacute
ENCODING 506
SWIDTH 624 0
DWIDTH 16 0
BBX 17 28 -1 0
BITMAP
000400
000E00
001C00
003000
004000
000000
001C00
003200
002200
002600
001C00
001C00
003C00
003C00
005C00
005C00
008C00
008C00
010C00
030C00
03FC00
040C00
040E00
080600
180600
100600
300600
FC1F80
ENDCHAR
STARTCHAR aringacute
ENCODING 507
SWIDTH 561 0
DWIDTH 14 0
BBX 13 25 2 0
BITMAP
0020
0070
00E0
0180
0200
0000
01C0
0320
0220
0260
01C0
0000
03D0
0E30
1C30
3830
3060
6060
6060
C0E0
C160
C148
C2C8
CCD0
70E0
ENDCHAR
STARTCHAR AEacute
ENCODING 508
SWIDTH 880 0
DWIDTH 22 0
BBX 26 24 -1 0
BITMAP
00002000
00007000
0000E000
00018000
00020000
00000000
001FFFC0
000581C0
000D8080
000B8080
001B0080
00330000
00230000
00630200
00C30600
00FFFC00
01860400
03060400
060E0000
040E0100
0C0C0200
180C0200
301C0600
FC7FFC00
ENDCHAR
STARTCHAR aeacute
ENCODING 509
SWIDTH 779 0
DWIDTH 19 0
BBX 19 20 2 0
BITMAP
000400
000E00
001C00
003000
004000
000000
001000
03B380
0C7460
187860
307860
3070C0
60F180
60FE00
C1F000
C1C000
C2C040
C4C080
C86100
703E00
ENDCHAR
STARTCHAR Oslashacute
ENCODING 510
SWIDTH 753 0
DWIDTH 19 0
BBX 17 26 3 -1
BITMAP
000800
001C00
003800
006000
008000
000000
000100
01F300
070E00
0C0600
1C0B00
381B00
303380
702380
704380
E08380
E18380
E10700
E20700
E40700
6C0E00
680C00
301800
383000
47C000
400000
ENDCHAR
STARTCHAR oslashacute
ENCODING 511
SWIDTH 537 0
DWIDTH 13 0
BBX 12 21 2 -1
BITMAP
0040
00E0
01C0
0300
0400
0000
0010
07E0
1C60
3870
70B0
6130
6230
C670
CC60
D860
D0E0
E1C0
6380
9C00
8000
ENDCHAR
STARTCHAR Scommaaccent
ENCODING 536
SWIDTH 533 0
DWIDTH 13 0
BBX 13 26 1 -8
BITMAP
03E0
0618
0818
1818
1810
1800
1E00
0F00
07C0
01E0
00E0
0070
4030
4030
4030
E060
70C0
1F00
0000
0200
0700
0300
0300
0200
0400
0800
ENDCHAR
STARTCHAR scommaaccent
ENCODING 537
SWIDTH 389 0
DWIDTH 10 0
BBX 9 21 1 -8
BITMAP
0F00
1180
3180
3000
3800
1C00
0E00
0600
0700
4300
C300
E200
3C00
0000
0800
1C00
0C00
0C00
0800
1000
2000
ENDCHAR
STARTCHAR Tcommaaccent
ENCODING 538
SWIDTH 606 0
DWIDTH 15 0
BBX 15 26 4 -8
BITMAP
FFFE
C30E
8304
8304
0700
0700
0600
0600
0600
0E00
0C00
0C00
0C00
1C00
1C00
1800
1800
FF00
0000
0400
0E00
0600
0600
0400
0800
1000
ENDCHAR
STARTCHAR tcommaaccent
ENCODING 539
SWIDTH 341 0
DWIDTH 9 0
BBX 8 24 3 -8
BITMAP
08
18
38
FF
30
30
30
60
60
60
60
60
C4
C8
D0
E0
00
20
70
30
30
20
40
80
ENDCHAR
STARTCHAR uni021E
ENCODING 542
SWIDTH 775 0
DWIDTH 19 0
BBX 21 23 1 0
BITMAP
008200
004C00
007800
003000
000000
0FC3F8
0300E0
0300C0
0700C0
0600C0
0601C0
060180
0E0180
0E0180
0FFF80
0C0380
0C0300
1C0300
1C0300
180700
180700
380600
FE1F80
ENDCHAR
STARTCHAR uni021F
ENCODING 543
SWIDTH 607 0
DWIDTH 15 0
BBX 12 24 3 0
BITMAP
2080
1300
1E00
0C00
0000
0C00
3C00
0C00
1C00
1800
1800
18E0
3930
3230
3430
3860
3860
7060
70C0
60C0
60D0
E190
C1A0
C1C0
ENDCHAR
STARTCHAR uni0226
ENCODING 550
SWIDTH 624 0
DWIDTH 16 0
BBX 17 22 -1 0
BITMAP
001800
003800
003000
000000
001800
001800
003800
003C00
005C00
00CC00
008C00
018C00
010C00
020C00
03FC00
040E00
040E00
080E00
180600
100600
300600
FC1F80
ENDCHAR
STARTCHAR uni0227
ENCODING 551
SWIDTH 561 0
DWIDTH 14 0
BBX 13 17 2 0
BITMAP
0180
0380
0300
0000
03D8
0E30
1C30
3830
3070
6060
6060
C0E0
C160
C148
C2C8
CCD0
70E0
ENDCHAR
STARTCHAR uni0228
ENCODING 552
SWIDTH 596 0
DWIDTH 15 0
BBX 17 24 1 -6
BITMAP
0FFF80
030380
030100
030100
070100
060000
060000
060400
060C00
0FF800
0C0800
0C0800
0C0000
0C0200
180400
180400
380C00
FFF800
010000
020000
038000
018000
018000
070000
ENDCHAR
STARTCHAR uni0229
ENCODING 553
SWIDTH 453 0
DWIDTH 11 0
BBX 10 19 2 -6
BITMAP
0700
18C0
30C0
60C0
6180
4380
CE00
F000
C000
C080
C100
6200
3C00
0800
1000
1C00
0C00
0C00
3800
ENDCHAR
STARTCHAR uni022A
ENCODING 554
SWIDTH 753 0
DWIDTH 19 0
BBX 17 23 3 0
BITMAP
03F800
000000
018600
038E00
030C00
03F000
060C00
1C0600
180300
300300
300380
700380
600380
E00380
E00380
E00700
E00700
E00700
600E00
601C00
301800
187000
0FC000
ENDCHAR
STARTCHAR uni022B
ENCODING 555
SWIDTH 537 0
DWIDTH 13 0
BBX 12 19 2 0
BITMAP
0FE0
0000
0630
0E70
0C60
0000
07C0
1C60
3830
7030
6030
6030
C070
C060
C060
C0E0
C1C0
6380
3C00
ENDCHAR
STARTCHAR uni022C
ENCODING 556
SWIDTH 753 0
DWIDTH 19 0
BBX 17 23 3 0
BITMAP
03F800
000000
01C200
023C00
000000
01F800
070C00
0C0600
1C0300
380300
300380
700380
700380
E00380
E00380
E00700
E00700
E00700
600E00
600C00
301800
183000
07C000
ENDCHAR
STARTCHAR uni022D
ENCODING 557
SWIDTH 537 0
DWIDTH 13 0
BBX 12 19 2 0
BITMAP
0FE0
0000
0710
08E0
0000
0000
07C0
1C60
3830
7030
6030
6030
C070
C060
C060
C0E0
C1C0
6380
3C00
ENDCHAR
STARTCHAR uni022E
ENCODING 558
SWIDTH 753 0
DWIDTH 19 0
BBX 17 22 3 0
BITMAP
006000
00E000
00C000
000000
01F800
070C00
0C0600
1C0300
380300
300380
700380
700380
E00380
E00380
E00700
E00700
E00700
600E00
600C00
301800
183000
07C000
ENDCHAR
STARTCHAR uni022F
ENCODING 559
SWIDTH 537 0
DWIDTH 13 0
BBX 12 17 2 0
BITMAP
0300
0700
0600
0000
07C0
1C60
3830
7030
6030
6030
C070
C060
C060
C0E0
C1C0
6380
3C00
ENDCHAR
STARTCHAR uni0230
ENCODING 560
SWIDTH 753 0
DWIDTH 19 0
BBX 17 24 3 0
BITMAP
03F800
000000
006000
00E000
00C000
000000
01F800
070C00
0C0600
1C0300
380300
300380
700380
700380
E00380
E00380
E00700
E00700
E00700
600E00
600C00
301800
183000
07C000
ENDCHAR
STARTCHAR uni0231
ENCODING 561
SWIDTH 537 0
DWIDTH 13 0
BBX 12 19 2 0
BITMAP
1FC0
0000
0300
0700
0600
0000
07C0
1C60
3830
7030
6030
6030
C070
C060
C060
C0E0
C1C0
6380
3C00
ENDCHAR
STARTCHAR uni0232
ENCODING 562
SWIDTH 591 0
DWIDTH 15 0
BBX 16 20 3 0
BITMAP
0FE0
0000
FC3F
380C
1818
1810
1830
1C60
0C40
0C80
0D80
0700
0600
0600
0600
0C00
0C00
0C00
0C00
7F00
ENDCHAR
STARTCHAR uni0233
ENCODING 563
SWIDTH 468 0
DWIDTH 12 0
BBX 13 21 0 -6
BITMAP
0FE0
0000
0C08
3C18
0C18
0C10
0C10
0C20
0E20
0640
0640
0680
0780
0700
0700
0600
0400
0400
0800
D800
E000
ENDCHAR
STARTCHAR uni0250
ENCODING 592
SWIDTH 561 0
DWIDTH 14 0
BBX 13 13 2 0
BITMAP
3870
5998
9A18
9418
3418
3818
3030
3030
7060
60E0
61C0
6380
DE00
ENDCHAR
STARTCHAR uni0259
ENCODING 601
SWIDTH 453 0
DWIDTH 11 0
BBX 10 13 2 0
BITMAP
0F00
1180
20C0
40C0
00C0
03C0
1CC0
7080
6180
C180
C300
C600
3800
ENDCHAR
STARTCHAR uni025F
ENCODING 607
SWIDTH 315 0
DWIDTH 8 0
BBX 15 25 -2 -13
BITMAP
001C
0026
0024
0060
0060
0060
00C0
00C0
00C0
00C0
00C0
0180
0180
0180
0180
0180
0380
0300
1FC0
0300
0700
0600
C600
EC00
7800
ENDCHAR
STARTCHAR uni0265
ENCODING 613
SWIDTH 607 0
DWIDTH 15 0
BBX 12 19 3 -7
BITMAP
3830
5830
9870
B060
3060
30E0
60E0
61C0
61C0
C2C0
C4C0
C9C0
7180
0180
0180
0380
0300
03C0
0300
ENDCHAR
STARTCHAR uni0275
ENCODING 629
SWIDTH 537 0
DWIDTH 13 0
BBX 12 13 2 0
BITMAP
07C0
1C60
3830
7030
6030
6030
FFF0
C060
C060
C0E0
C1C0
6380
3C00
ENDCHAR
STARTCHAR uni0279
ENCODING 633
SWIDTH 402 0
DWIDTH 10 0
BBX 9 13 3 0
BITMAP
0180
0180
0380
0380
0300
0300
0700
0700
0600
0E00
5600
E780
CE00
ENDCHAR
STARTCHAR uni0287
ENCODING 647
SWIDTH 341 0
DWIDTH 9 0
BBX 8 16 3 0
BITMAP
07
0B
13
23
06
06
06
06
06
0C
0C
0C
FF
1C
18
10
ENDCHAR
STARTCHAR uni0289
ENCODING 649
SWIDTH 618 0
DWIDTH 15 0
BBX 13 13 3 0
BITMAP
1818
F830
3030
3030
7070
6060
FFF8
60E0
6160
C148
C2C8
CCD0
F0E0
ENDCHAR
STARTCHAR uni028C
ENCODING 652
SWIDTH 510 0
DWIDTH 13 0
BBX 11 13 3 0
BITMAP
01C0
0260
0460
0860
1060
20C0
20C0
40C0
40C0
C0C0
C180
C1E0
4180
ENDCHAR
STARTCHAR uni028D
ENCODING 653
SWIDTH 785 0
DWIDTH 20 0
BBX 18 13 3 0
BITMAP
038380
04CCC0
08D0C0
10E0C0
20E0C0
20C180
41C180
418180
418180
C18380
C18300
C303C0
430300
ENDCHAR
STARTCHAR uni028E
ENCODING 654
SWIDTH 468 0
DWIDTH 12 0
BBX 13 19 0 0
BITMAP
0038
00D8
0080
0100
0100
0300
0700
0700
0F00
0B00
1300
1300
2380
2180
4180
4180
C180
C1E0
8180
ENDCHAR
STARTCHAR uni029E
ENCODING 670
SWIDTH 545 0
DWIDTH 14 0
BBX 13 19 2 -7
BITMAP
1C18
2E38
4630
4730
0730
0370
03E0
0360
0160
02E0
0CC0
F8C0
E0C0
01C0
0180
0180
0180
03E0
0300
ENDCHAR
STARTCHAR uni02BB
ENCODING 699
SWIDTH 216 0
DWIDTH 5 0
BBX 4 6 4 12
BITMAP
10
20
40
C0
E0
C0
ENDCHAR
STARTCHAR afii57929
ENCODING 700
SWIDTH 216 0
DWIDTH 5 0
BBX 4 6 4 13
BITMAP
30
70
30
20
40
80
ENDCHAR
STARTCHAR afii64937
ENCODING 701
SWIDTH 216 0
DWIDTH 5 0
BBX 4 6 4 13
BITMAP
C0
E0
C0
40
20
10
ENDCHAR
STARTCHAR circumflex
ENCODING 710
SWIDTH 400 0
DWIDTH 10 0
BBX 7 4 6 14
BITMAP
18
3C
64
82
ENDCHAR
STARTCHAR caron
ENCODING 711
SWIDTH 400 0
DWIDTH 10 0
BBX 7 4 6 14
BITMAP
82
4C
78
30
ENDCHAR
STARTCHAR uni02C8
ENCODING 712
SWIDTH 216 0
DWIDTH 5 0
BBX 3 7 5 12
BITMAP
60
E0
C0
C0
C0
80
80
ENDCHAR
STARTCHAR macron
ENCODING 713
SWIDTH 400 0
DWIDTH 10 0
BBX 7 1 6 15
BITMAP
FE
ENDCHAR
STARTCHAR uni02CA
ENCODING 714
SWIDTH 400 0
DWIDTH 10 0
BBX 6 5 6 13
BITMAP
08
1C
38
60
80
ENDCHAR
STARTCHAR uni02CB
ENCODING 715
SWIDTH 400 0
DWIDTH 10 0
BBX 6 5 4 13
BITMAP
40
E0
70
18
04
ENDCHAR
STARTCHAR uni02CD
ENCODING 717
SWIDTH 400 0
DWIDTH 10 0
BBX 7 1 6 -2
BITMAP
FE
ENDCHAR
STARTCHAR uni02CE
ENCODING 718
SWIDTH 400 0
DWIDTH 10 0
BBX 6 5 4 -6
BITMAP
40
E0
70
18
04
ENDCHAR
STARTCHAR uni02CF
ENCODING 719
SWIDTH 400 0
DWIDTH 10 0
BBX 6 5 6 -6
BITMAP
08
1C
38
60
80
ENDCHAR
STARTCHAR breve
ENCODING 728
SWIDTH 400 0
DWIDTH 10 0
BBX 7 4 6 14
BITMAP
82
84
FC
78
ENDCHAR
STARTCHAR dotaccent
ENCODING 729
SWIDTH 402 0
DWIDTH 10 0
BBX 3 3 7 14
BITMAP
60
E0
C0
ENDCHAR
STARTCHAR ring
ENCODING 730
SWIDTH 400 0
DWIDTH 10 0
BBX 5 5 6 14
BITMAP
70
C8
88
98
70
ENDCHAR
STARTCHAR ogonek
ENCODING 731
SWIDTH 350 0
DWIDTH 9 0
BBX 5 6 2 -5
BITMAP
10
20
40
C0
C0
78
ENDCHAR
STARTCHAR tilde
ENCODING 732
SWIDTH 400 0
DWIDTH 10 0
BBX 9 3 4 14
BITMAP
3080
7F00
8200
ENDCHAR
STARTCHAR hungarumlaut
ENCODING 733
SWIDTH 400 0
DWIDTH 10 0
BBX 7 5 5 14
BITMAP
26
66
6C
C8
88
ENDCHAR
STARTCHAR uni02EE
ENCODING 750
SWIDTH 402 0
DWIDTH 10 0
BBX 8 6 4 12
BITMAP
63
77
63
62
44
88
ENDCHAR
STARTCHAR uni037E
ENCODING 894
SWIDTH 265 0
DWIDTH 7 0
BBX 6 15 1 -2
BITMAP
08
1C
1C
00
00
00
00
00
00
70
30
30
20
60
C0
ENDCHAR
STARTCHAR tonos
ENCODING 900
SWIDTH 400 0
DWIDTH 10 0
BBX 6 5 6 13
BITMAP
08
1C
38
60
80
ENDCHAR
STARTCHAR dieresistonos
ENCODING 901
SWIDTH 400 0
DWIDTH 10 0
BBX 9 9 5 14
BITMAP
0100
0380
0700
0C00
1000
0000
4300
E700
C200
ENDCHAR
STARTCHAR anoteleia
ENCODING 903
SWIDTH 265 0
DWIDTH 7 0
BBX 3 3 3 5
BITMAP
E0
E0
E0
ENDCHAR
STARTCHAR mu
ENCODING 956
SWIDTH 618 0
DWIDTH 15 0
BBX 15 18 1 -5
BITMAP
0606
3E0C
0E0C
1E0C
1C1C
1C18
1C18
3C38
3838
3852
38B2
7934
4E38
4000
4000
4000
C000
C000
ENDCHAR
STARTCHAR uni1E00
ENCODING 7680
SWIDTH 624 0
DWIDTH 16 0
BBX 17 24 -1 -6
BITMAP
001800
001800
003800
003C00
005C00
00CC00
008C00
018C00
010C00
020C00
03FC00
040E00
040E00
080E00
180600
100600
300600
FC1F80
000000
00E000
019000
011000
013000
00E000
ENDCHAR
STARTCHAR uni1E01
ENCODING 7681
SWIDTH 561 0
DWIDTH 14 0
BBX 13 19 2 -6
BITMAP
03D8
0E30
1C30
3830
3070
6060
6060
C0E0
C160
C148
C2C8
CCD0
70E0
0000
0700
0C80
0880
0980
0700
ENDCHAR
STARTCHAR uni1E02
ENCODING 7682
SWIDTH 632 0
DWIDTH 16 0
BBX 15 22 1 0
BITMAP
00C0
01C0
0180
0000
0FF8
070C
0706
0706
0606
0604
060C
0618
0FE0
0C38
0C0C
0C0E
0C0E
180E
180C
181C
1838
FFE0
ENDCHAR
STARTCHAR uni1E03
ENCODING 7683
SWIDTH 559 0
DWIDTH 14 0
BBX 12 23 3 0
BITMAP
0600
0E00
0C00
0000
0C00
3C00
1C00
1800
1800
1800
18E0
3330
3430
3830
3830
7030
7060
7060
6060
60C0
E180
B300
9E00
ENDCHAR
STARTCHAR uni1E04
ENCODING 7684
SWIDTH 632 0
DWIDTH 16 0
BBX 15 22 1 -4
BITMAP
0FF8
070C
0706
0706
0606
0604
060C
0618
0FE0
0C38
0C0C
0C0E
0C0E
180E
180C
181C
1838
FFE0
0000
0180
0380
0300
ENDCHAR
STARTCHAR uni1E05
ENCODING 7685
SWIDTH 559 0
DWIDTH 14 0
BBX 12 23 3 -4
BITMAP
0C00
3C00
1C00
1800
1800
1800
18E0
3330
3430
3830
3830
7030
7060
7060
6060
60C0
E180
B300
9E00
0000
0C00
1C00
1800
ENDCHAR
STARTCHAR uni1E06
ENCODING 7686
SWIDTH 632 0
DWIDTH 16 0
BBX 15 20 1 -2
BITMAP
0FF8
070C
0706
0706
0606
0604
060C
0618
0FE0
0C38
0C0C
0C0E
0C0E
180E
180C
181C
1838
FFE0
0000
0FE0
ENDCHAR
STARTCHAR uni1E07
ENCODING 7687
SWIDTH 559 0
DWIDTH 14 0
BBX 12 21 3 -2
BITMAP
0C00
3C00
1C00
1800
1800
1800
18E0
3330
3430
3830
3830
7030
7060
7060
6060
60C0
E180
B300
9E00
0000
3F80
ENDCHAR
STARTCHAR uni1E08
ENCODING 7688
SWIDTH 661 0
DWIDTH 17 0
BBX 16 30 3 -6
BITMAP
0020
0070
00E0
0180
0200
0000
01F8
0707
0C03
1802
3802
7000
7000
6000
E000
E000
E000
E000
E000
6004
7008
3018
1838
07E0
0200
0200
0700
0300
0180
0E00
ENDCHAR
STARTCHAR uni1E09
ENCODING 7689
SWIDTH 441 0
DWIDTH 11 0
BBX 10 25 2 -6
BITMAP
0080
01C0
0380
0600
0800
0000
0780
18C0
30C0
2080
6000
4000
C000
C000
C000
C080
C100
6200
3C00
1000
3000
3800
1800
1800
7000
ENDCHAR
STARTCHAR uni1E0A
ENCODING 7690
SWIDTH 763 0
DWIDTH 19 0
BBX 19 22 1 0
BITMAP
003000
007000
006000
000000
1FFC00
070700
070180
0601C0
0600C0
0600E0
0E00E0
0E00E0
0C00E0
0C00E0
0C00C0
1C01C0
180180
180380
180700
380E00
383C00
FFE000
ENDCHAR
STARTCHAR uni1E0B
ENCODING 7691
SWIDTH 587 0
DWIDTH 15 0
BBX 14 23 2 0
BITMAP
0030
0070
0060
0000
000C
007C
0018
0018
0018
0018
03F8
0E30
1830
3030
3070
6060
60E0
C0E0
C160
C1C8
C2C8
CCD0
70E0
ENDCHAR
STARTCHAR uni1E0C
ENCODING 7692
SWIDTH 763 0
DWIDTH 19 0
BBX 19 22 1 -4
BITMAP
1FFC00
070700
070180
0601C0
0600C0
0600E0
0E00E0
0E00E0
0C00E0
0C00E0
0C00C0
1C01C0
180180
180380
180700
380E00
383C00
FFE000
000000
00C000
01C000
018000
ENDCHAR
STARTCHAR uni1E0D
ENCODING 7693
SWIDTH 587 0
DWIDTH 15 0
BBX 14 23 2 -4
BITMAP
000C
007C
0018
0018
0018
0018
03F8
0E30
1830
3030
3070
6060
60E0
C0E0
C160
C1C8
C2C8
CCD0
70E0
0000
0300
0700
0600
ENDCHAR
STARTCHAR uni1E0E
ENCODING 7694
SWIDTH 763 0
DWIDTH 19 0
BBX 19 20 1 -2
BITMAP
1FFC00
070700
070180
0601C0
0600C0
0600E0
0E00E0
0E00E0
0C00E0
0C00E0
0C00C0
1C01C0
180180
180380
180700
380E00
383C00
FFE000
000000
07F000
ENDCHAR
STARTCHAR uni1E0F
ENCODING 7695
SWIDTH 587 0
DWIDTH 15 0
BBX 14 21 2 -2
BITMAP
000C
007C
0018
0018
0018
0018
03F8
0E30
1830
3030
3070
6060
60E0
C0E0
C160
C1C8
C2C8
CCD0
70E0
0000
1FC0
ENDCHAR
STARTCHAR uni1E10
ENCODING 7696
SWIDTH 763 0
DWIDTH 19 0
BBX 19 24 1 -6
BITMAP
1FFC00
070700
070180
0601C0
0600C0
0600E0
0E00E0
0E00E0
0C00E0
0C00E0
0C00C0
1C01C0
180180
180380
180700
380E00
383C00
FFE000
004000
008000
00E000
006000
006000
01C000
ENDCHAR
STARTCHAR uni1E11
ENCODING 7697
SWIDTH 587 0
DWIDTH 15 0
BBX 14 25 2 -6
BITMAP
000C
007C
0018
0018
0018
0018
03F8
0E30
1830
3030
3070
6060
60E0
C0E0
C160
C1C8
C2C8
CCD0
70E0
0200
0400
0700
0300
0300
0E00
ENDCHAR
STARTCHAR uni1E12
ENCODING 7698
SWIDTH 763 0
DWIDTH 19 0
BBX 19 23 1 -5
BITMAP
1FFC00
070700
070180
0601C0
0600C0
0600E0
0E00E0
0E00E0
0C00E0
0C00E0
0C00C0
1C01C0
180180
180380
180700
380E00
383C00
FFE000
000000
00C000
01E000
032000
041000
ENDCHAR
STARTCHAR uni1E13
ENCODING 7699
SWIDTH 587 0
DWIDTH 15 0
BBX 14 24 2 -5
BITMAP
000C
007C
0018
0018
0018
0018
03F8
0E30
1830
3030
3070
6060
60E0
C0E0
C160
C1C8
C2C8
CCD0
70E0
0000
0300
0780
0C80
1040
ENDCHAR
STARTCHAR uni1E14
ENCODING 7700
SWIDTH 596 0
DWIDTH 15 0
BBX 17 26 1 0
BITMAP
010000
038000
01C000
006000
001000
000000
03F800
000000
0FFF80
030380
030100
030100
070100
060000
060000
060400
060C00
0FF800
0C0800
0C0800
0C0000
0C0200
180400
180400
380C00
FFF800
ENDCHAR
STARTCHAR uni1E15
ENCODING 7701
SWIDTH 453 0
DWIDTH 11 0
BBX 10 21 2 0
BITMAP
1000
3800
1C00
0600
0100
0000
3F80
0000
0700
18C0
30C0
60C0
6180
4380
CE00
F000
C000
C080
C100
6200
3C00
ENDCHAR
STARTCHAR uni1E16
ENCODING 7702
SWIDTH 596 0
DWIDTH 15 0
BBX 17 26 1 0
BITMAP
000800
001C00
003800
006000
008000
000000
03F800
000000
0FFF80
030380
030100
030100
070100
060000
060000
060400
060C00
0FF800
0C0800
0C0800
0C0000
0C0200
180400
180400
380C00
FFF800
ENDCHAR
STARTCHAR uni1E17
ENCODING 7703
SWIDTH 453 0
DWIDTH 11 0
BBX 10 21 2 0
BITMAP
0080
01C0
0380
0600
0800
0000
3F80
0000
0700
18C0
30C0
60C0
6180
4380
CE00
F000
C000
C080
C100
6200
3C00
ENDCHAR
STARTCHAR uni1E18
ENCODING 7704
SWIDTH 596 0
DWIDTH 15 0
BBX 17 23 1 -5
BITMAP
0FFF80
030380
030100
030100
070100
060000
060000
060400
060C00
0FF800
0C0800
0C0800
0C0000
0C0200
180400
180400
380C00
FFF800
000000
018000
03C000
064000
082000
ENDCHAR
STARTCHAR uni1E19
ENCODING 7705
SWIDTH 453 0
DWIDTH 11 0
BBX 10 18 2 -5
BITMAP
0700
18C0
30C0
60C0
6180
4380
CE00
F000
C000
C080
C100
6200
3C00
0000
1800
3C00
6400
8200
ENDCHAR
STARTCHAR uni1E1A
ENCODING 7706
SWIDTH 596 0
DWIDTH 15 0
BBX 17 22 1 -4
BITMAP
0FFF80
030380
030100
030100
070100
060000
060000
060400
060C00
0FF800
0C0800
0C0800
0C0000
0C0200
180400
180400
380C00
FFF800
000000
061000
0FE000
104000
ENDCHAR
STARTCHAR uni1E1B
ENCODING 7707
SWIDTH 453 0
DWIDTH 11 0
BBX 11 17 1 -4
BITMAP
0380
0C60
1860
3060
30C0
21C0
6700
7800
6000
6040
6080
3100
1E00
0000
3080
7F00
8200
ENDCHAR
STARTCHAR uni1E1C
ENCODING 7708
SWIDTH 596 0
DWIDTH 15 0
BBX 17 29 1 -6
BITMAP
020800
021000
03F000
01E000
000000
0FFF80
030380
030100
030100
070100
060000
060000
060400
060C00
0FF800
0C0800
0C0800
0C0000
0C0200
180400
180400
380C00
FFF800
010000
020000
038000
018000
018000
070000
ENDCHAR
STARTCHAR uni1E1D
ENCODING 7709
SWIDTH 453 0
DWIDTH 11 0
BBX 10 24 2 -6
BITMAP
2080
2100
3F00
1E00
0000
0700
18C0
30C0
60C0
6180
4380
CE00
F000
C000
C080
C100
6200
3C00
0800
1000
1C00
0C00
0C00
3800
ENDCHAR
STARTCHAR uni1E1E
ENCODING 7710
SWIDTH 571 0
DWIDTH 14 0
BBX 17 22 1 0
BITMAP
003000
007000
006000
000000
0FFF80
030380
030100
030100
070100
060000
060000
060400
060C00
0FFC00
0C0800
0C0800
0C0000
0C0000
180000
180000
380000
FF0000
ENDCHAR
STARTCHAR uni1E1F
ENCODING 7711
SWIDTH 315 0
DWIDTH 8 0
BBX 15 29 -2 -6
BITMAP
0060
00E0
00C0
0000
003C
006E
00C6
00C0
01C0
0180
07F0
0180
0380
0300
0300
0300
0300
0300
0600
0600
0600
0600
0600
0C00
0C00
0C00
4800
C800
7000
ENDCHAR
STARTCHAR uni1E20
ENCODING 7712
SWIDTH 709 0
DWIDTH 18 0
BBX 16 20 3 0
BITMAP
07F0
0000
01FC
0707
0C03
1802
3802
3000
7000
6000
E000
E000
E03F
E00E
E00C
600C
701C
3018
1C18
07E0
ENDCHAR
STARTCHAR uni1E21
ENCODING 7713
SWIDTH 499 0
DWIDTH 12 0
BBX 14 21 1 -6
BITMAP
0FE0
0000
078C
0C7C
1830
3830
3030
3030
3060
18E0
0F80
1000
3800
3F00
17C0
60E0
C060
C060
C060
70C0
1F00
ENDCHAR
STARTCHAR uni1E22
ENCODING 7714
SWIDTH 775 0
DWIDTH 19 0
BBX 21 22 1 0
BITMAP
001800
003800
003000
000000
0FC3F8
0300E0
0300C0
0700C0
0600C0
0601C0
060180
0E0180
0E0180
0FFF80
0C0380
0C0300
1C0300
1C0300
180700
180700
380600
FE1F80
ENDCHAR
STARTCHAR uni1E23
ENCODING 7715
SWIDTH 607 0
DWIDTH 15 0
BBX 12 23 3 0
BITMAP
0600
0E00
0C00
0000
0C00
3C00
0C00
1C00
1800
1800
18E0
3930
3230
3430
3860
3860
7060
70C0
60C0
60D0
E190
C1A0
C1C0
ENDCHAR
STARTCHAR uni1E24
ENCODING 7716
SWIDTH 775 0
DWIDTH 19 0
BBX 21 22 1 -4
BITMAP
0FC3F8
0300E0
0300C0
0700C0
0600C0
0601C0
060180
0E0180
0E0180
0FFF80
0C0380
0C0300
1C0300
1C0300
180700
180700
380600
FE1F80
000000
006000
00E000
00C000
ENDCHAR
STARTCHAR uni1E25
ENCODING 7717
SWIDTH 607 0
DWIDTH 15 0
BBX 12 23 3 -4
BITMAP
0C00
3C00
0C00
1C00
1800
1800
18E0
3930
3230
3430
3860
3860
7060
70C0
60C0
60D0
E190
C1A0
C1C0
0000
0600
0E00
0C00
ENDCHAR
STARTCHAR uni1E26
ENCODING 7718
SWIDTH 775 0
DWIDTH 19 0
BBX 21 22 1 0
BITMAP
004300
00E700
00C200
000000
0FC3F8
0300E0
0300C0
0700C0
0600C0
0601C0
060180
0E0180
0E0180
0FFF80
0C0380
0C0300
1C0300
1C0300
180700
180700
380600
FE1F80
ENDCHAR
STARTCHAR uni1E27
ENCODING 7719
SWIDTH 607 0
DWIDTH 15 0
BBX 12 23 3 0
BITMAP
10C0
39C0
3080
0000
0C00
3C00
0C00
1C00
1800
1800
18E0
3930
3230
3430
3860
3860
7060
70C0
60C0
60D0
E190
C1A0
C1C0
ENDCHAR
STARTCHAR uni1E28
ENCODING 7720
SWIDTH 775 0
DWIDTH 19 0
BBX 21 24 1 -6
BITMAP
0FC3F8
0300E0
0300C0
0700C0
0600C0
0601C0
060180
0E0180
0E0180
0FFF80
0C0380
0C0300
1C0300
1C0300
180700
180700
380600
FE1F80
004000
008000
00E000
006000
006000
01C000
ENDCHAR
STARTCHAR uni1E29
ENCODING 7721
SWIDTH 607 0
DWIDTH 15 0
BBX 12 25 3 -6
BITMAP
0C00
3C00
0C00
1C00
1800
1800
18E0
3930
3230
3430
3860
3860
7060
70C0
60C0
60D0
E190
C1A0
C1C0
0200
0400
0700
0300
0300
0E00
ENDCHAR
STARTCHAR uni1E2A
ENCODING 7722
SWIDTH 775 0
DWIDTH 19 0
BBX 21 23 1 -5
BITMAP
0FC3F8
0300E0
0300C0
0700C0
0600C0
0601C0
060180
0E0180
0E0180
0FFF80
0C0380
0C0300
1C0300
1C0300
180700
180700
380600
FE1F80
000000
020800
021000
03F000
01E000
ENDCHAR
STARTCHAR uni1E2B
ENCODING 7723
SWIDTH 607 0
DWIDTH 15 0
BBX 12 24 3 -5
BITMAP
0C00
3C00
0C00
1C00
1800
1800
18E0
3930
3230
3430
3860
3860
7060
70C0
60C0
60D0
E190
C1A0
C1C0
0000
2080
2100
3F00
1E00
ENDCHAR
STARTCHAR uni1E2C
ENCODING 7724
SWIDTH 345 0
DWIDTH 9 0
BBX 11 22 1 -4
BITMAP
0FE0
0380
0300
0300
0700
0600
0600
0600
0E00
0E00
0C00
0C00
1C00
1C00
1800
1800
3800
FE00
0000
3080
7F00
8200
ENDCHAR
STARTCHAR uni1E2D
ENCODING 7725
SWIDTH 317 0
DWIDTH 8 0
BBX 9 22 1 -4
BITMAP
0300
0700
0700
0000
0000
0600
3C00
0C00
0C00
0C00
1800
1800
1800
1800
1200
3200
3400
3800
0000
3080
7F00
8200
ENDCHAR
STARTCHAR uni1E2E
ENCODING 7726
SWIDTH 345 0
DWIDTH 9 0
BBX 12 27 1 0
BITMAP
0040
00E0
01C0
0300
0400
0000
0C30
1C70
1860
1FE0
0700
0700
0700
0600
0E00
0E00
0E00
0E00
0C00
1C00
1C00
1C00
1800
3800
3800
3800
FE00
ENDCHAR
STARTCHAR uni1E2F
ENCODING 7727
SWIDTH 317 0
DWIDTH 8 0
BBX 8 23 3 0
BITMAP
02
07
0E
18
20
00
63
E7
C6
00
18
F8
30
30
30
70
60
60
60
48
C8
D0
E0
ENDCHAR
STARTCHAR uni1E30
ENCODING 7728
SWIDTH 650 0
DWIDTH 16 0
BBX 19 24 1 0
BITMAP
000800
001C00
003800
006000
008000
000000
0FC7E0
030300
020600
020C00
061000
066000
06C000
058000
0F8000
0F8000
0DC000
0CC000
1CE000
1C7000
187000
183800
381C00
FE0700
ENDCHAR
STARTCHAR uni1E31
ENCODING 7729
SWIDTH 545 0
DWIDTH 14 0
BBX 13 25 2 0
BITMAP
0100
0380
0700
0C00
1000
0000
0600
3E00
0C00
0C00
0C00
1C00
1838
18F8
1980
3A00
3400
3600
3E00
7600
6700
6710
6310
E3A0
C1C0
ENDCHAR
STARTCHAR uni1E32
ENCODING 7730
SWIDTH 650 0
DWIDTH 16 0
BBX 19 22 1 -4
BITMAP
0FC7E0
030300
020600
020C00
061000
066000
06C000
058000
0F8000
0F8000
0DC000
0CC000
1CE000
1C7000
187000
183800
381C00
FE0700
000000
018000
038000
030000
ENDCHAR
STARTCHAR uni1E33
ENCODING 7731
SWIDTH 545 0
DWIDTH 14 0
BBX 13 23 2 -4
BITMAP
0600
3E00
0C00
0C00
0C00
1C00
1838
18F8
1980
3A00
3400
3600
3E00
7600
6700
6710
6310
E3A0
C1C0
0000
0600
0E00
0C00
ENDCHAR
STARTCHAR uni1E34
ENCODING 7732
SWIDTH 650 0
DWIDTH 16 0
BBX 19 20 1 -2
BITMAP
0FC7E0
030300
020600
020C00
061000
066000
06C000
058000
0F8000
0F8000
0DC000
0CC000
1CE000
1C7000
187000
183800
381C00
FE0700
000000
07F000
ENDCHAR
STARTCHAR uni1E35
ENCODING 7733
SWIDTH 545 0
DWIDTH 14 0
BBX 13 21 2 -2
BITMAP
0600
3E00
0C00
0C00
0C00
1C00
1838
18F8
1980
3A00
3400
3600
3E00
7600
6700
6710
6310
E3A0
C1C0
0000
3F80
ENDCHAR
STARTCHAR uni1E36
ENCODING 7734
SWIDTH 565 0
DWIDTH 14 0
BBX 14 22 1 -4
BITMAP
0FE0
0300
0300
0700
0600
0600
0600
0E00
0E00
0C00
0C00
0C00
1C00
1804
1804
1808
3818
FFF8
0000
0300
0700
0600
ENDCHAR
STARTCHAR uni1E37
ENCODING 7735
SWIDTH 306 0
DWIDTH 8 0
BBX 6 23 3 -4
BITMAP
0C
7C
1C
18
18
18
38
30
30
30
30
60
60
60
60
C8
C8
D0
E0
00
60
E0
C0
ENDCHAR
STARTCHAR uni1E38
ENCODING 7736
SWIDTH 565 0
DWIDTH 14 0
BBX 14 24 1 -4
BITMAP
1FC0
0000
0FE0
0300
0300
0700
0600
0600
0600
0E00
0E00
0C00
0C00
0C00
1C00
1804
1804
1808
3818
FFF8
0000
0300
0700
0600
ENDCHAR
STARTCHAR uni1E39
ENCODING 7737
SWIDTH 306 0
DWIDTH 8 0
BBX 7 25 3 -4
BITMAP
FE
00
0C
7C
1C
18
18
18
38
30
30
30
30
60
60
60
60
C8
C8
D0
E0
00
60
E0
C0
ENDCHAR
STARTCHAR uni1E3A
ENCODING 7738
SWIDTH 565 0
DWIDTH 14 0
BBX 14 20 1 -2
BITMAP
0FE0
0300
0300
0700
0600
0600
0600
0E00
0E00
0C00
0C00
0C00
1C00
1804
1804
1808
3818
FFF8
0000
1FC0
ENDCHAR
STARTCHAR uni1E3B
ENCODING 7739
SWIDTH 306 0
DWIDTH 8 0
BBX 7 21 2 -2
BITMAP
06
3E
0E
0C
0C
0C
1C
18
18
18
18
30
30
30
30
64
64
68
70
00
FE
ENDCHAR
STARTCHAR uni1E3C
ENCODING 7740
SWIDTH 565 0
DWIDTH 14 0
BBX 14 23 1 -5
BITMAP
0FE0
0300
0300
0700
0600
0600
0600
0E00
0E00
0C00
0C00
0C00
1C00
1804
1804
1808
3818
FFF8
0000
0300
0780
0C80
1040
ENDCHAR
STARTCHAR uni1E3D
ENCODING 7741
SWIDTH 306 0
DWIDTH 8 0
BBX 8 24 1 -5
BITMAP
03
1F
07
06
06
06
0E
0C
0C
0C
0C
18
18
18
18
32
32
34
38
00
18
3C
64
82
ENDCHAR
STARTCHAR uni1E3E
ENCODING 7742
SWIDTH 920 0
DWIDTH 23 0
BBX 26 24 0 0
BITMAP
00008000
0001C000
00038000
00060000
00080000
00000000
0F800FC0
03800E00
03C01E00
03C01E00
02C02C00
04C06C00
04C04C00
04E08C00
04E19C00
0C611800
08621800
08621800
08743800
187C3000
18383000
10303000
30307000
FC21FC00
ENDCHAR
STARTCHAR uni1E3F
ENCODING 7743
SWIDTH 912 0
DWIDTH 23 0
BBX 20 19 3 0
BITMAP
000800
001C00
003800
006000
008000
000000
18F1C0
793260
1A3460
343860
382840
3870C0
3070C0
7060C0
6060C0
60E190
60C190
E0C1A0
C1C1C0
ENDCHAR
STARTCHAR uni1E40
ENCODING 7744
SWIDTH 920 0
DWIDTH 23 0
BBX 26 22 0 0
BITMAP
00030000
00070000
00060000
00000000
0F800FC0
03800E00
03C01E00
03C01E00
02C02C00
04C06C00
04C04C00
04E08C00
04E19C00
0C611800
08621800
08621800
08743800
187C3000
18383000
10303000
30307000
FC21FC00
ENDCHAR
STARTCHAR uni1E41
ENCODING 7745
SWIDTH 912 0
DWIDTH 23 0
BBX 20 17 3 0
BITMAP
003000
007000
006000
000000
18F1C0
793260
1A3460
343860
382840
3870C0
3070C0
7060C0
6060C0
60E190
60C190
E0C1A0
C1C1C0
ENDCHAR
STARTCHAR uni1E42
ENCODING 7746
SWIDTH 920 0
DWIDTH 23 0
BBX 26 22 0 -4
BITMAP
0F800FC0
03800E00
03C01E00
03C01E00
02C02C00
04C06C00
04C04C00
04E08C00
04E19C00
0C611800
08621800
08621800
08743800
187C3000
18383000
10303000
30307000
FC21FC00
00000000
00180000
00380000
00300000
ENDCHAR
STARTCHAR uni1E43
ENCODING 7747
SWIDTH 912 0
DWIDTH 23 0
BBX 20 17 3 -4
BITMAP
18F1C0
793260
1A3460
343860
382840
3870C0
3070C0
7060C0
6060C0
60E190
60C190
E0C1A0
C1C1C0
000000
006000
00E000
00C000
ENDCHAR
STARTCHAR uni1E44
ENCODING 7748
SWIDTH 763 0
DWIDTH 19 0
BBX 22 22 0 0
BITMAP
000C00
001C00
001800
000000
0F80FC
038030
03C020
02C060
04E060
04E040
047040
047040
0430C0
083880
081880
081C80
080C80
180F80
180F00
100700
300700
FC0300
ENDCHAR
STARTCHAR uni1E45
ENCODING 7749
SWIDTH 618 0
DWIDTH 15 0
BBX 12 17 3 0
BITMAP
0300
0700
0600
0000
18E0
F930
1A30
3430
3860
3860
3060
70C0
60C0
60D0
E190
C1A0
C1C0
ENDCHAR
STARTCHAR uni1E46
ENCODING 7750
SWIDTH 763 0
DWIDTH 19 0
BBX 22 22 0 -4
BITMAP
0F80FC
038030
03C020
02C060
04E060
04E040
047040
047040
0430C0
083880
081880
081C80
080C80
180F80
180F00
100700
300700
FC0300
000000
006000
00E000
00C000
ENDCHAR
STARTCHAR uni1E47
ENCODING 7751
SWIDTH 618 0
DWIDTH 15 0
BBX 12 17 3 -4
BITMAP
18E0
F930
1A30
3430
3860
3860
3060
70C0
60C0
60D0
E190
C1A0
C1C0
0000
0600
0E00
0C00
ENDCHAR
STARTCHAR uni1E48
ENCODING 7752
SWIDTH 763 0
DWIDTH 19 0
BBX 22 20 0 -2
BITMAP
0F80FC
038030
03C020
02C060
04E060
04E040
047040
047040
0430C0
083880
081880
081C80
080C80
180F80
180F00
100700
300700
FC0300
000000
01FC00
ENDCHAR
STARTCHAR uni1E49
ENCODING 7753
SWIDTH 618 0
DWIDTH 15 0
BBX 12 15 3 -2
BITMAP
18E0
F930
1A30
3430
3860
3860
3060
70C0
60C0
60D0
E190
C1A0
C1C0
0000
3F80
ENDCHAR
STARTCHAR uni1E4A
ENCODING 7754
SWIDTH 763 0
DWIDTH 19 0
BBX 22 23 0 -5
BITMAP
0F80FC
038030
03C020
02C060
04E060
04E040
047040
047040
0430C0
083880
081880
081C80
080C80
180F80
180F00
100700
300700
FC0300
000000
006000
00F000
019000
020800
ENDCHAR
STARTCHAR uni1E4B
ENCODING 7755
SWIDTH 618 0
DWIDTH 15 0
BBX 12 18 3 -5
BITMAP
18E0
F930
1A30
3430
3860
3860
3060
70C0
60C0
60D0
E190
C1A0
C1C0
0000
0600
0F00
1900
2080
ENDCHAR
STARTCHAR uni1E4C
ENCODING 7756
SWIDTH 753 0
DWIDTH 19 0
BBX 17 27 3 0
BITMAP
001000
003800
007000
00C000
010000
000000
01C200
023C00
000000
01F800
070C00
0C0600
1C0300
380300
300380
700380
700380
E00380
E00380
E00700
E00700
E00700
600E00
600C00
301800
183000
07C000
ENDCHAR
STARTCHAR uni1E4D
ENCODING 7757
SWIDTH 537 0
DWIDTH 13 0
BBX 12 23 2 0
BITMAP
0040
00E0
01C0
0300
0400
0000
0710
08E0
0000
0000
07C0
1C60
3830
7030
6030
6030
C070
C060
C060
C0E0
C1C0
6380
3C00
ENDCHAR
STARTCHAR uni1E4E
ENCODING 7758
SWIDTH 753 0
DWIDTH 19 0
BBX 17 25 3 0
BITMAP
010C00
039C00
030800
000000
01C200
023C00
000000
01F800
070C00
0C0600
1C0300
380300
300380
700380
700380
E00380
E00380
E00700
E00700
E00700
600E00
600C00
301800
183000
07C000
ENDCHAR
STARTCHAR uni1E4F
ENCODING 7759
SWIDTH 537 0
DWIDTH 13 0
BBX 12 21 2 0
BITMAP
0430
0E70
0C20
0000
0710
08E0
0000
0000
07C0
1C60
3830
7030
6030
6030
C070
C060
C060
C0E0
C1C0
6380
3C00
ENDCHAR
STARTCHAR uni1E50
ENCODING 7760
SWIDTH 753 0
DWIDTH 19 0
BBX 17 26 3 0
BITMAP
020000
070000
038000
00C000
002000
000000
07F000
000000
01F800
070C00
0C0600
1C0300
380300
300380
700380
700380
E00380
E00380
E00700
E00700
E00700
600E00
600C00
301800
183000
07C000
ENDCHAR
STARTCHAR uni1E51
ENCODING 7761
SWIDTH 537 0
DWIDTH 13 0
BBX 12 21 2 0
BITMAP
0800
1C00
0E00
0300
0080
0000
1FC0
0000
07C0
1C60
3830
7030
6030
6030
C070
C060
C060
C0E0
C1C0
6380
3C00
ENDCHAR
STARTCHAR uni1E52
ENCODING 7762
SWIDTH 753 0
DWIDTH 19 0
BBX 17 26 3 0
BITMAP
001000
003800
007000
00C000
010000
000000
07F000
000000
01F800
070C00
0C0600
1C0300
380300
300380
700380
700380
E00380
E00380
E00700
E00700
E00700
600E00
600C00
301800
183000
07C000
ENDCHAR
STARTCHAR uni1E53
ENCODING 7763
SWIDTH 537 0
DWIDTH 13 0
BBX 12 21 2 0
BITMAP
0040
00E0
01C0
0300
0400
0000
1FC0
0000
07C0
1C60
3830
7030
6030
6030
C070
C060
C060
C0E0
C1C0
6380
3C00
ENDCHAR
STARTCHAR uni1E54
ENCODING 7764
SWIDTH 614 0
DWIDTH 15 0
BBX 16 24 1 0
BITMAP
0010
0038
0070
00C0
0100
0000
0FF0
030C
0306
0307
0607
0607
0606
060E
060C
0E38
0FE0
0C00
0C00
1C00
1800
1800
3800
FE00
ENDCHAR
STARTCHAR uni1E55
ENCODING 7765
SWIDTH 590 0
DWIDTH 15 0
BBX 14 25 1 -6
BITMAP
0020
0070
00E0
0180
0200
0000
0E38
3CCC
0D0C
0D0C
0E0C
1C0C
1C18
1818
1818
1830
3060
38E0
3780
3000
7000
6000
6000
6000
C000
ENDCHAR
STARTCHAR uni1E56
ENCODING 7766
SWIDTH 614 0
DWIDTH 15 0
BBX 16 22 1 0
BITMAP
0060
00E0
00C0
0000
0FF0
030C
0306
0307
0607
0607
0606
060E
060C
0E38
0FE0
0C00
0C00
1C00
1800
1800
3800
FE00
ENDCHAR
STARTCHAR uni1E57
ENCODING 7767
SWIDTH 590 0
DWIDTH 15 0
BBX 14 23 1 -6
BITMAP
00C0
01C0
0180
0000
0E38
3CCC
0D0C
0D0C
0E0C
1C0C
1C18
1818
1818
1830
3060
38E0
3780
3000
7000
6000
6000
6000
C000
ENDCHAR
STARTCHAR uni1E58
ENCODING 7768
SWIDTH 640 0
DWIDTH 16 0
BBX 16 22 1 0
BITMAP
0060
00E0
00C0
0000
0FF8
030E
0306
0707
0607
0607
0606
0E0E
0E18
0FF0
0C38
0C18
1C18
1C18
1818
1818
381C
FE0E
ENDCHAR
STARTCHAR uni1E59
ENCODING 7769
SWIDTH 402 0
DWIDTH 10 0
BBX 9 17 3 0
BITMAP
0C00
1C00
1800
0000
3980
F380
3500
3800
3000
7000
7000
6000
6000
E000
E000
C000
C000
ENDCHAR
STARTCHAR uni1E5A
ENCODING 7770
SWIDTH 640 0
DWIDTH 16 0
BBX 16 22 1 -4
BITMAP
0FF8
030E
0306
0707
0607
0607
0606
0E0E
0E18
0FF0
0C38
0C18
1C18
1C18
1818
1818
381C
FE0E
0000
0180
0380
0300
ENDCHAR
STARTCHAR uni1E5B
ENCODING 7771
SWIDTH 402 0
DWIDTH 10 0
BBX 9 17 3 -4
BITMAP
3980
F380
3500
3800
3000
7000
7000
6000
6000
E000
E000
C000
C000
0000
3000
7000
6000
ENDCHAR
STARTCHAR uni1E5C
ENCODING 7772
SWIDTH 640 0
DWIDTH 16 0
BBX 16 24 1 -4
BITMAP
03F8
0000
0FF8
030E
0306
0707
0607
0607
0606
0E0E
0E18
0FF0
0C38
0C18
1C18
1C18
1818
1818
381C
FE0E
0000
0180
0380
0300
ENDCHAR
STARTCHAR uni1E5D
ENCODING 7773
SWIDTH 402 0
DWIDTH 10 0
BBX 9 19 3 -4
BITMAP
7F00
0000
3980
F380
3500
3800
3000
7000
7000
6000
6000
E000
E000
C000
C000
0000
3000
7000
6000
ENDCHAR
STARTCHAR uni1E5E
ENCODING 7774
SWIDTH 640 0
DWIDTH 16 0
BBX 16 20 1 -2
BITMAP
0FF8
030E
0306
0707
0607
0607
0606
0E0E
0E18
0FF0
0C38
0C18
1C18
1C18
1818
1818
381C
FE0E
0000
0FE0
ENDCHAR
STARTCHAR uni1E5F
ENCODING 7775
SWIDTH 402 0
DWIDTH 10 0
BBX 10 15 2 -2
BITMAP
1CC0
79C0
1A80
1C00
1800
3800
3800
3000
3000
7000
7000
6000
6000
0000
FE00
ENDCHAR
STARTCHAR uni1E60
ENCODING 7776
SWIDTH 533 0
DWIDTH 13 0
BBX 13 22 1 0
BITMAP
00C0
01C0
0180
0000
03E0
0618
0818
1818
1810
1800
1E00
0F00
07C0
01E0
00E0
0070
4030
4030
4030
E060
70C0
1F00
ENDCHAR
STARTCHAR uni1E61
ENCODING 7777
SWIDTH 389 0
DWIDTH 10 0
BBX 9 17 1 0
BITMAP
0600
0E00
0C00
0000
0F00
1180
3180
3000
3800
1C00
0E00
0600
0700
4300
C300
E200
3C00
ENDCHAR
STARTCHAR uni1E62
ENCODING 7778
SWIDTH 533 0
DWIDTH 13 0
BBX 13 22 1 -4
BITMAP
03E0
0618
0818
1818
1810
1800
1E00
0F00
07C0
01E0
00E0
0070
4030
4030
4030
E060
70C0
1F00
0000
0600
0E00
0C00
ENDCHAR
STARTCHAR uni1E63
ENCODING 7779
SWIDTH 389 0
DWIDTH 10 0
BBX 9 17 1 -4
BITMAP
0F00
1180
3180
3000
3800
1C00
0E00
0600
0700
4300
C300
E200
3C00
0000
1800
3800
3000
ENDCHAR
STARTCHAR uni1E64
ENCODING 7780
SWIDTH 533 0
DWIDTH 13 0
BBX 13 28 1 0
BITMAP
00C0
01C0
0180
0000
0020
0070
00E0
0180
0200
0000
03E0
0618
0818
1818
1810
1800
1E00
0F00
07C0
01E0
00E0
0070
4030
4030
4030
E060
70C0
1F00
ENDCHAR
STARTCHAR uni1E65
ENCODING 7781
SWIDTH 389 0
DWIDTH 10 0
BBX 9 23 1 0
BITMAP
0300
0700
0600
0000
0100
0380
0700
0C00
1000
0000
0F00
1180
3180
3000
3800
1C00
0E00
0600
0700
4300
C300
E200
3C00
ENDCHAR
STARTCHAR uni1E66
ENCODING 7782
SWIDTH 533 0
DWIDTH 13 0
BBX 14 26 1 0
BITMAP
00C0
01C0
0180
0000
0204
0118
00E0
00C0
03E0
0618
0818
1818
1810
1800
1E00
0F00
07C0
01E0
00E0
0070
4030
4030
4030
E060
70C0
1F00
ENDCHAR
STARTCHAR uni1E67
ENCODING 7783
SWIDTH 389 0
DWIDTH 10 0
BBX 11 22 1 0
BITMAP
0300
0700
0600
0000
1860
0CC0
0700
0200
0000
0F00
1180
3180
3000
3800
1C00
0E00
0600
0700
4300
C300
E200
3C00
ENDCHAR
STARTCHAR uni1E68
ENCODING 7784
SWIDTH 533 0
DWIDTH 13 0
BBX 13 26 1 -4
BITMAP
0180
0380
0300
0000
03E0
0618
0818
1818
1810
1800
1E00
0F00
07C0
01E0
00E0
0070
4030
4030
4030
E060
70C0
1F00
0000
0600
0E00
0C00
ENDCHAR
STARTCHAR uni1E69
ENCODING 7785
SWIDTH 389 0
DWIDTH 10 0
BBX 9 21 1 -4
BITMAP
0600
0E00
0C00
0000
0F00
1180
3180
3000
3800
1C00
0E00
0600
0700
4300
C300
E200
3C00
0000
1800
3800
3000
ENDCHAR
STARTCHAR uni1E6A
ENCODING 7786
SWIDTH 606 0
DWIDTH 15 0
BBX 15 22 4 0
BITMAP
0180
0380
0300
0000
FFFE
C30E
8304
8304
0700
0700
0600
0600
0600
0E00
0C00
0C00
0C00
1C00
1C00
1800
1800
FF00
ENDCHAR
STARTCHAR uni1E6B
ENCODING 7787
SWIDTH 341 0
DWIDTH 9 0
BBX 8 20 3 0
BITMAP
0C
1C
18
00
08
18
38
FF
30
30
30
60
60
60
60
60
C4
C8
D0
E0
ENDCHAR
STARTCHAR uni1E6C
ENCODING 7788
SWIDTH 606 0
DWIDTH 15 0
BBX 15 22 4 -4
BITMAP
FFFE
C30E
8304
8304
0700
0700
0600
0600
0600
0E00
0C00
0C00
0C00
1C00
1C00
1800
1800
FF00
0000
0C00
1C00
1800
ENDCHAR
STARTCHAR uni1E6D
ENCODING 7789
SWIDTH 341 0
DWIDTH 9 0
BBX 8 20 3 -4
BITMAP
08
18
38
FF
30
30
30
60
60
60
60
60
C4
C8
D0
E0
00
30
70
60
ENDCHAR
STARTCHAR uni1E6E
ENCODING 7790
SWIDTH 606 0
DWIDTH 15 0
BBX 15 20 4 -2
BITMAP
FFFE
C30E
8304
8304
0700
0700
0600
0600
0600
0E00
0C00
0C00
0C00
1C00
1C00
1800
1800
FF00
0000
3F80
ENDCHAR
STARTCHAR uni1E6F
ENCODING 7791
SWIDTH 341 0
DWIDTH 9 0
BBX 9 18 2 -2
BITMAP
0400
0C00
1C00
7F80
1800
1800
1800
3000
3000
3000
3000
3000
6200
6400
6800
7000
0000
FE00
ENDCHAR
STARTCHAR uni1E70
ENCODING 7792
SWIDTH 606 0
DWIDTH 15 0
BBX 15 23 4 -5
BITMAP
FFFE
C30E
8304
8304
0700
0700
0600
0600
0600
0E00
0C00
0C00
0C00
1C00
1C00
1800
1800
FF00
0000
0C00
1E00
3200
4100
ENDCHAR
STARTCHAR uni1E71
ENCODING 7793
SWIDTH 341 0
DWIDTH 9 0
BBX 9 21 2 -5
BITMAP
0400
0C00
1C00
7F80
1800
1800
1800
3000
3000
3000
3000
3000
6200
6400
6800
7000
0000
1800
3C00
6400
8200
ENDCHAR
STARTCHAR uni1E72
ENCODING 7794
SWIDTH 794 0
DWIDTH 20 0
BBX 18 22 4 -4
BITMAP
FE1FC0
380700
300700
300600
700600
600E00
600E00
600C00
600C00
600C00
C01C00
C01800
C01800
C03800
C03000
607000
70E000
1F8000
000000
086000
1CE000
184000
ENDCHAR
STARTCHAR uni1E73
ENCODING 7795
SWIDTH 618 0
DWIDTH 15 0
BBX 13 17 3 -4
BITMAP
1818
F830
3030
3030
7070
6060
6060
60E0
6160
C148
C2C8
CCD0
F0E0
0000
2180
7380
6100
ENDCHAR
STARTCHAR uni1E74
ENCODING 7796
SWIDTH 794 0
DWIDTH 20 0
BBX 18 22 4 -4
BITMAP
FE1FC0
380700
300700
300600
700600
600E00
600E00
600C00
600C00
600C00
C01C00
C01800
C01800
C03800
C03000
607000
70E000
1F8000
000000
061000
0FE000
104000
ENDCHAR
STARTCHAR uni1E75
ENCODING 7797
SWIDTH 618 0
DWIDTH 15 0
BBX 13 17 3 -4
BITMAP
1818
F830
3030
3030
7070
6060
6060
60E0
6160
C148
C2C8
CCD0
F0E0
0000
1840
3F80
4100
ENDCHAR
STARTCHAR uni1E76
ENCODING 7798
SWIDTH 794 0
DWIDTH 20 0
BBX 18 23 4 -5
BITMAP
FE1FC0
380700
300700
300600
700600
600E00
600E00
600C00
600C00
600C00
C01C00
C01800
C01800
C03800
C03000
607000
70E000
1F8000
000000
030000
078000
0C8000
104000
ENDCHAR
STARTCHAR uni1E77
ENCODING 7799
SWIDTH 618 0
DWIDTH 15 0
BBX 13 18 3 -5
BITMAP
1818
F830
3030
3030
7070
6060
6060
60E0
6160
C148
C2C8
CCD0
F0E0
0000
0600
0F00
1900
2080
ENDCHAR
STARTCHAR uni1E78
ENCODING 7800
SWIDTH 794 0
DWIDTH 20 0
BBX 18 28 4 0
BITMAP
001000
003800
007000
00C000
010000
000000
018400
03F800
041000
000000
FE1FC0
380700
300700
300600
700600
600E00
600E00
600C00
600C00
600C00
C01C00
C01800
C01800
C03800
C03000
607000
70E000
1F8000
ENDCHAR
STARTCHAR uni1E79
ENCODING 7801
SWIDTH 618 0
DWIDTH 15 0
BBX 13 23 3 0
BITMAP
0040
00E0
01C0
0300
0400
0000
0610
0FE0
1040
0000
1818
F830
3030
3030
7070
6060
6060
60E0
6160
C148
C2C8
CCD0
F0E0
ENDCHAR
STARTCHAR uni1E7A
ENCODING 7802
SWIDTH 794 0
DWIDTH 20 0
BBX 18 24 4 0
BITMAP
010C00
039C00
030800
000000
07F000
000000
FE1FC0
380700
300700
300600
700600
600E00
600E00
600C00
600C00
600C00
C01C00
C01800
C01800
C03800
C03000
607000
70E000
1F8000
ENDCHAR
STARTCHAR uni1E7B
ENCODING 7803
SWIDTH 618 0
DWIDTH 15 0
BBX 13 19 3 0
BITMAP
0860
1CE0
1840
0000
1FC0
0000
1818
F830
3030
3030
7070
6060
6060
60E0
6160
C148
C2C8
CCD0
F0E0
ENDCHAR
STARTCHAR uni1E7C
ENCODING 7804
SWIDTH 637 0
DWIDTH 16 0
BBX 17 22 3 0
BITMAP
030800
07F000
082000
000000
FC1F80
300600
300400
300C00
300800
381800
381000
182000
186000
184000
18C000
188000
198000
1D0000
1E0000
0E0000
0C0000
0C0000
ENDCHAR
STARTCHAR uni1E7D
ENCODING 7805
SWIDTH 510 0
DWIDTH 13 0
BBX 11 17 3 0
BITMAP
0C20
1FC0
2080
0000
3040
F060
3060
6060
6040
6040
6080
6080
C100
C200
C400
C800
7000
ENDCHAR
STARTCHAR uni1E7E
ENCODING 7806
SWIDTH 637 0
DWIDTH 16 0
BBX 17 22 3 -4
BITMAP
FC1F80
300600
300400
300C00
300800
381800
381000
182000
186000
184000
18C000
188000
198000
1D0000
1E0000
0E0000
0C0000
0C0000
000000
060000
0E0000
0C0000
ENDCHAR
STARTCHAR uni1E7F
ENCODING 7807
SWIDTH 510 0
DWIDTH 13 0
BBX 11 17 3 -4
BITMAP
3040
F060
3060
6060
6040
6040
6080
6080
C100
C200
C400
C800
7000
0000
1800
3800
3000
ENDCHAR
STARTCHAR Wgrave
ENCODING 7808
SWIDTH 946 0
DWIDTH 24 0
BBX 25 24 3 0
BITMAP
00400000
00E00000
00700000
00180000
00040000
00000000
FC001F80
30180600
301C0400
303C0C00
302C0800
302C1800
304C1000
304C1000
308C2000
308C2000
110E4000
190E4000
1A068000
1A068000
1C070000
1C070000
1C070000
18060000
ENDCHAR
STARTCHAR wgrave
ENCODING 7809
SWIDTH 785 0
DWIDTH 20 0
BBX 18 19 3 0
BITMAP
020000
070000
038000
00C000
002000
000000
303080
F030C0
3060C0
7060C0
606080
606080
60E080
60C100
C1C100
C1C200
C2C400
CCC800
707000
ENDCHAR
STARTCHAR Wacute
ENCODING 7810
SWIDTH 946 0
DWIDTH 24 0
BBX 25 24 3 0
BITMAP
00020000
00070000
000E0000
00180000
00200000
00000000
FC001F80
30180600
301C0400
303C0C00
302C0800
302C1800
304C1000
304C1000
308C2000
308C2000
110E4000
190E4000
1A068000
1A068000
1C070000
1C070000
1C070000
18060000
ENDCHAR
STARTCHAR wacute
ENCODING 7811
SWIDTH 785 0
DWIDTH 20 0
BBX 18 19 3 0
BITMAP
001000
003800
007000
00C000
010000
000000
303080
F030C0
3060C0
7060C0
606080
606080
60E080
60C100
C1C100
C1C200
C2C400
CCC800
707000
ENDCHAR
STARTCHAR Wdieresis
ENCODING 7812
SWIDTH 946 0
DWIDTH 24 0
BBX 25 22 3 0
BITMAP
00218000
00738000
00610000
00000000
FC001F80
30180600
301C0400
303C0C00
302C0800
302C1800
304C1000
304C1000
308C2000
308C2000
110E4000
190E4000
1A068000
1A068000
1C070000
1C070000
1C070000
18060000
ENDCHAR
STARTCHAR wdieresis
ENCODING 7813
SWIDTH 785 0
DWIDTH 20 0
BBX 18 17 3 0
BITMAP
010C00
039C00
030800
000000
303080
F030C0
3060C0
7060C0
606080
606080
60E080
60C100
C1C100
C1C200
C2C400
CCC800
707000
ENDCHAR
STARTCHAR uni1E86
ENCODING 7814
SWIDTH 946 0
DWIDTH 24 0
BBX 25 22 3 0
BITMAP
000C0000
001C0000
00180000
00000000
FC001F80
30180600
301C0400
303C0C00
302C0800
302C1800
304C1000
304C1000
308C2000
308C2000
110E4000
190E4000
1A068000
1A068000
1C070000
1C070000
1C070000
18060000
ENDCHAR
STARTCHAR uni1E87
ENCODING 7815
SWIDTH 785 0
DWIDTH 20 0
BBX 18 17 3 0
BITMAP
006000
00E000
00C000
000000
303080
F030C0
3060C0
7060C0
606080
606080
60E080
60C100
C1C100
C1C200
C2C400
CCC800
707000
ENDCHAR
STARTCHAR uni1E88
ENCODING 7816
SWIDTH 946 0
DWIDTH 24 0
BBX 25 22 3 -4
BITMAP
FC001F80
30180600
301C0400
303C0C00
302C0800
302C1800
304C1000
304C1000
308C2000
308C2000
110E4000
190E4000
1A068000
1A068000
1C070000
1C070000
1C070000
18060000
00000000
00300000
00700000
00600000
ENDCHAR
STARTCHAR uni1E89
ENCODING 7817
SWIDTH 785 0
DWIDTH 20 0
BBX 18 17 3 -4
BITMAP
303080
F030C0
3060C0
7060C0
606080
606080
60E080
60C100
C1C100
C1C200
C2C400
CCC800
707000
000000
018000
038000
030000
ENDCHAR
STARTCHAR uni1E8A
ENCODING 7818
SWIDTH 632 0
DWIDTH 16 0
BBX 19 22 0 0
BITMAP
003000
007000
006000
000000
0FC7E0
070180
038300
018600
018C00
01C800
00D000
00E000
006000
00E000
01F000
013000
023800
061800
0C1C00
181C00
300E00
FC3F80
ENDCHAR
STARTCHAR uni1E8B
ENCODING 7819
SWIDTH 516 0
DWIDTH 13 0
BBX 13 17 1 0
BITMAP
0180
0380
0300
0000
0C18
3E78
0640
0680
0700
0300
0300
0700
0700
0B90
1990
F1A0
C0C0
ENDCHAR
STARTCHAR uni1E8C
ENCODING 7820
SWIDTH 632 0
DWIDTH 16 0
BBX 19 22 0 0
BITMAP
008600
01CE00
018400
000000
0FC7E0
070180
038300
018600
018C00
01C800
00D000
00E000
006000
00E000
01F000
013000
023800
061800
0C1C00
181C00
300E00
FC3F80
ENDCHAR
STARTCHAR uni1E8D
ENCODING 7821
SWIDTH 516 0
DWIDTH 13 0
BBX 13 17 1 0
BITMAP
0430
0E70
0C20
0000
0C18
3E78
0640
0680
0700
0300
0300
0700
0700
0B90
1990
F1A0
C0C0
ENDCHAR
STARTCHAR uni1E8E
ENCODING 7822
SWIDTH 591 0
DWIDTH 15 0
BBX 16 22 3 0
BITMAP
00C0
01C0
0180
0000
FC3F
380C
1818
1810
1830
1C60
0C40
0C80
0D80
0700
0600
0600
0600
0C00
0C00
0C00
0C00
7F00
ENDCHAR
STARTCHAR uni1E8F
ENCODING 7823
SWIDTH 468 0
DWIDTH 12 0
BBX 13 23 0 -6
BITMAP
0180
0380
0300
0000
0C08
3C18
0C18
0C10
0C10
0C20
0E20
0640
0640
0680
0780
0700
0700
0600
0400
0400
0800
D800
E000
ENDCHAR
STARTCHAR uni1E90
ENCODING 7824
SWIDTH 622 0
DWIDTH 16 0
BBX 18 23 0 0
BITMAP
001800
003C00
006400
008200
000000
07FFC0
0603C0
040780
080F00
001E00
001C00
003800
007000
00E000
01E000
03C000
078000
0F0000
0E0100
1C0200
380200
700E00
FFFC00
ENDCHAR
STARTCHAR uni1E91
ENCODING 7825
SWIDTH 468 0
DWIDTH 12 0
BBX 12 18 1 0
BITMAP
0180
03C0
0640
0820
0000
0FF0
1FF0
1060
20C0
0180
0300
0600
0C00
1810
3020
7C20
CFE0
C1C0
ENDCHAR
STARTCHAR uni1E92
ENCODING 7826
SWIDTH 622 0
DWIDTH 16 0
BBX 18 22 0 -4
BITMAP
07FFC0
0603C0
040780
080F00
001E00
001C00
003800
007000
00E000
01E000
03C000
078000
0F0000
0E0100
1C0200
380200
700E00
FFFC00
000000
018000
038000
030000
ENDCHAR
STARTCHAR uni1E93
ENCODING 7827
SWIDTH 468 0
DWIDTH 12 0
BBX 12 17 1 -4
BITMAP
0FF0
1FF0
1060
20C0
0180
0300
0600
0C00
1810
3020
7C20
CFE0
C1C0
0000
0600
0E00
0C00
ENDCHAR
STARTCHAR uni1E94
ENCODING 7828
SWIDTH 622 0
DWIDTH 16 0
BBX 18 20 0 -2
BITMAP
07FFC0
0603C0
040780
080F00
001E00
001C00
003800
007000
00E000
01E000
03C000
078000
0F0000
0E0100
1C0200
380200
700E00
FFFC00
000000
0FE000
ENDCHAR
STARTCHAR uni1E95
ENCODING 7829
SWIDTH 468 0
DWIDTH 12 0
BBX 12 15 1 -2
BITMAP
0FF0
1FF0
1060
20C0
0180
0300
0600
0C00
1810
3020
7C20
CFE0
C1C0
0000
3F80
ENDCHAR
STARTCHAR uni1E96
ENCODING 7830
SWIDTH 607 0
DWIDTH 15 0
BBX 12 21 3 -2
BITMAP
0C00
3C00
0C00
1C00
1800
1800
18E0
3930
3230
3430
3860
3860
7060
70C0
60C0
60D0
E190
C1A0
C1C0
0000
3F80
ENDCHAR
STARTCHAR uni1E97
ENCODING 7831
SWIDTH 341 0
DWIDTH 9 0
BBX 9 20 3 0
BITMAP
2180
7380
6100
0000
0800
1800
3800
FF00
3000
3000
3000
6000
6000
6000
6000
6000
C400
C800
D000
E000
ENDCHAR
STARTCHAR uni1E98
ENCODING 7832
SWIDTH 785 0
DWIDTH 20 0
BBX 18 19 3 0
BITMAP
01C000
032000
022000
026000
01C000
000000
303080
F030C0
3060C0
7060C0
606080
606080
60E080
60C100
C1C100
C1C200
C2C400
CCC800
707000
ENDCHAR
STARTCHAR uni1E99
ENCODING 7833
SWIDTH 468 0
DWIDTH 12 0
BBX 13 25 0 -6
BITMAP
0700
0C80
0880
0980
0700
0000
0C08
3C18
0C18
0C10
0C10
0C20
0E20
0640
0640
0680
0780
0700
0700
0600
0400
0400
0800
D800
E000
ENDCHAR
STARTCHAR uni1EA0
ENCODING 7840
SWIDTH 624 0
DWIDTH 16 0
BBX 17 22 -1 -4
BITMAP
001800
001800
003800
003C00
005C00
00CC00
008C00
018C00
010C00
020C00
03FC00
040E00
040E00
080E00
180600
100600
300600
FC1F80
000000
00C000
01C000
018000
ENDCHAR
STARTCHAR uni1EA1
ENCODING 7841
SWIDTH 561 0
DWIDTH 14 0
BBX 13 17 2 -4
BITMAP
03D8
0E30
1C30
3830
3070
6060
6060
C0E0
C160
C148
C2C8
CCD0
70E0
0000
0600
0E00
0C00
ENDCHAR
STARTCHAR uni1EA4
ENCODING 7844
SWIDTH 624 0
DWIDTH 16 0
BBX 17 28 -1 0
BITMAP
000400
000E00
001C00
003000
004000
000000
000C00
001E00
003300
004100
001800
001800
003800
003C00
005C00
00CC00
008C00
018C00
010C00
020C00
03FC00
040E00
040E00
080600
180600
100600
300600
FC1F80
ENDCHAR
STARTCHAR uni1EA5
ENCODING 7845
SWIDTH 561 0
DWIDTH 14 0
BBX 13 24 2 0
BITMAP
0010
0038
0070
00C0
0100
0000
0040
00E0
0130
0208
0000
03D8
0E30
1C30
3830
3070
6060
6060
C0E0
C160
C148
C2C8
CCD0
70E0
ENDCHAR
STARTCHAR uni1EA6
ENCODING 7846
SWIDTH 624 0
DWIDTH 16 0
BBX 17 28 -1 0
BITMAP
008000
01C000
00E000
003000
000800
000000
000C00
001E00
003300
004100
001800
001800
003800
003C00
005C00
00CC00
008C00
018C00
010C00
020C00
03FC00
040E00
040E00
080600
180600
100600
300600
FC1F80
ENDCHAR
STARTCHAR uni1EA7
ENCODING 7847
SWIDTH 561 0
DWIDTH 14 0
BBX 13 24 2 0
BITMAP
0200
0700
0380
00C0
0020
0000
0040
00E0
0130
0208
0000
03D8
0E30
1C30
3830
3070
6060
6060
C0E0
C160
C148
C2C8
CCD0
70E0
ENDCHAR
STARTCHAR uni1EAA
ENCODING 7850
SWIDTH 624 0
DWIDTH 16 0
BBX 17 26 -1 0
BITMAP
006100
00FE00
010400
000000
000C00
001E00
003300
004100
001800
001800
003800
003C00
005C00
00CC00
008C00
018C00
010C00
020C00
03FC00
040E00
040E00
080600
180600
100600
300600
FC1F80
ENDCHAR
STARTCHAR uni1EAB
ENCODING 7851
SWIDTH 561 0
DWIDTH 14 0
BBX 14 22 2 0
BITMAP
0184
03F8
0410
0000
0040
00E0
0130
0208
0000
03D8
0E30
1C30
3830
3070
6060
6060
C0E0
C160
C148
C2C8
CCD0
70E0
ENDCHAR
STARTCHAR uni1EAC
ENCODING 7852
SWIDTH 624 0
DWIDTH 16 0
BBX 17 27 -1 -4
BITMAP
003000
007800
00C800
010400
000000
001800
001800
003800
003C00
005C00
00CC00
008C00
018C00
010C00
020C00
03FC00
040E00
040E00
080E00
180600
100600
300600
FC1F80
000000
00C000
01C000
018000
ENDCHAR
STARTCHAR uni1EAD
ENCODING 7853
SWIDTH 561 0
DWIDTH 14 0
BBX 13 22 2 -4
BITMAP
0180
03C0
0640
0820
0000
03D8
0E30
1C30
3830
3070
6060
6060
C0E0
C160
C148
C2C8
CCD0
70E0
0000
0600
0E00
0C00
ENDCHAR
STARTCHAR uni1EAE
ENCODING 7854
SWIDTH 624 0
DWIDTH 16 0
BBX 17 29 -1 0
BITMAP
000800
001C00
003800
006000
008000
000000
008200
008400
00FC00
007800
000000
001800
001800
003800
003C00
005C00
00CC00
008C00
018C00
010C00
020C00
03FC00
040E00
040E00
080E00
180600
100600
300600
FC1F80
ENDCHAR
STARTCHAR uni1EAF
ENCODING 7855
SWIDTH 561 0
DWIDTH 14 0
BBX 13 24 2 0
BITMAP
0040
00E0
01C0
0300
0400
0000
0820
0840
0FC0
0780
0000
03D8
0E30
1C30
3830
3070
6060
6060
C0E0
C160
C148
C2C8
CCD0
70E0
ENDCHAR
STARTCHAR uni1EB0
ENCODING 7856
SWIDTH 624 0
DWIDTH 16 0
BBX 17 29 -1 0
BITMAP
010000
038000
01C000
006000
001000
000000
008200
008400
00FC00
007800
000000
001800
001800
003800
003C00
005C00
00CC00
008C00
018C00
010C00
020C00
03FC00
040E00
040E00
080E00
180600
100600
300600
FC1F80
ENDCHAR
STARTCHAR uni1EB1
ENCODING 7857
SWIDTH 561 0
DWIDTH 14 0
BBX 13 24 2 0
BITMAP
0800
1C00
0E00
0300
0080
0000
0820
0840
0FC0
0780
0000
03D8
0E30
1C30
3830
3070
6060
6060
C0E0
C160
C148
C2C8
CCD0
70E0
ENDCHAR
STARTCHAR uni1EB4
ENCODING 7860
SWIDTH 624 0
DWIDTH 16 0
BBX 17 27 -1 0
BITMAP
00C200
01FC00
020800
000000
008200
008400
00FC00
007800
000000
001800
001800
003800
003C00
005C00
00CC00
008C00
018C00
010C00
020C00
03FC00
040E00
040E00
080E00
180600
100600
300600
FC1F80
ENDCHAR
STARTCHAR uni1EB5
ENCODING 7861
SWIDTH 561 0
DWIDTH 14 0
BBX 13 22 2 0
BITMAP
0610
0FE0
1040
0000
0820
0840
0FC0
0780
0000
03D8
0E30
1C30
3830
3070
6060
6060
C0E0
C160
C148
C2C8
CCD0
70E0
ENDCHAR
STARTCHAR uni1EB6
ENCODING 7862
SWIDTH 624 0
DWIDTH 16 0
BBX 17 27 -1 -4
BITMAP
010400
010800
01F800
00F000
000000
001800
001800
003800
003C00
005C00
00CC00
008C00
018C00
010C00
020C00
03FC00
040E00
040E00
080E00
180600
100600
300600
FC1F80
000000
00C000
01C000
018000
ENDCHAR
STARTCHAR uni1EB7
ENCODING 7863
SWIDTH 561 0
DWIDTH 14 0
BBX 13 22 2 -4
BITMAP
0820
0840
0FC0
0780
0000
03D8
0E30
1C30
3830
3070
6060
6060
C0E0
C160
C148
C2C8
CCD0
70E0
0000
0600
0E00
0C00
ENDCHAR
STARTCHAR uni1EB8
ENCODING 7864
SWIDTH 596 0
DWIDTH 15 0
BBX 17 22 1 -4
BITMAP
0FFF80
030380
030100
030100
070100
060000
060000
060400
060C00
0FF800
0C0800
0C0800
0C0000
0C0200
180400
180400
380C00
FFF800
000000
018000
038000
030000
ENDCHAR
STARTCHAR uni1EB9
ENCODING 7865
SWIDTH 453 0
DWIDTH 11 0
BBX 10 17 2 -4
BITMAP
0700
18C0
30C0
60C0
6180
4380
CE00
F000
C000
C080
C100
6200
3C00
0000
1800
3800
3000
ENDCHAR
STARTCHAR uni1EBC
ENCODING 7868
SWIDTH 596 0
DWIDTH 15 0
BBX 17 22 1 0
BITMAP
00C200
01FC00
020800
000000
0FFF80
030380
030100
030100
070100
060000
060000
060400
060C00
0FF800
0C0800
0C0800
0C0000
0C0200
180400
180400
380C00
FFF800
ENDCHAR
STARTCHAR uni1EBD
ENCODING 7869
SWIDTH 453 0
DWIDTH 11 0
BBX 11 17 2 0
BITMAP
0C20
1FC0
2080
0000
0700
18C0
30C0
60C0
6180
4380
CE00
F000
C000
C080
C100
6200
3C00
ENDCHAR
STARTCHAR uni1EBE
ENCODING 7870
SWIDTH 596 0
DWIDTH 15 0
BBX 17 28 1 0
BITMAP
000800
001C00
003800
006000
008000
000000
003000
007800
008C00
010600
0FFF80
030380
030100
030100
070100
060000
060000
060400
060C00
0FF800
0C0800
0C0800
0C0000
0C0200
180400
180400
380C00
FFF800
ENDCHAR
STARTCHAR uni1EBF
ENCODING 7871
SWIDTH 453 0
DWIDTH 11 0
BBX 10 24 2 0
BITMAP
0080
01C0
0380
0600
0800
0000
0100
0780
0C80
1040
0000
0700
18C0
30C0
60C0
6180
4380
CE00
F000
C000
C080
C100
6200
3C00
ENDCHAR
STARTCHAR uni1EC0
ENCODING 7872
SWIDTH 596 0
DWIDTH 15 0
BBX 17 28 1 0
BITMAP
010000
038000
01C000
006000
001000
000000
003000
007800
008C00
010600
0FFF80
030380
030100
030100
070100
060000
060000
060400
060C00
0FF800
0C0800
0C0800
0C0000
0C0200
180400
180400
380C00
FFF800
ENDCHAR
STARTCHAR uni1EC1
ENCODING 7873
SWIDTH 453 0
DWIDTH 11 0
BBX 10 24 2 0
BITMAP
1000
3800
1C00
0600
0100
0000
0100
0780
0C80
1040
0000
0700
18C0
30C0
60C0
6180
4380
CE00
F000
C000
C080
C100
6200
3C00
ENDCHAR
STARTCHAR uni1EC4
ENCODING 7876
SWIDTH 596 0
DWIDTH 15 0
BBX 17 26 1 0
BITMAP
00C200
01FC00
020800
000000
003000
007800
008C00
010600
0FFF80
030380
030100
030100
070100
060000
060000
060400
060C00
0FF800
0C0800
0C0800
0C0000
0C0200
180400
180400
380C00
FFF800
ENDCHAR
STARTCHAR uni1EC5
ENCODING 7877
SWIDTH 453 0
DWIDTH 11 0
BBX 11 22 2 0
BITMAP
0C20
1FC0
2080
0000
0100
0780
0C80
1040
0000
0700
18C0
30C0
60C0
6180
4380
CE00
F000
C000
C080
C100
6200
3C00
ENDCHAR
STARTCHAR uni1EC6
ENCODING 7878
SWIDTH 596 0
DWIDTH 15 0
BBX 17 27 1 -4
BITMAP
006000
00F000
019000
020800
000000
0FFF80
030380
030100
030100
070100
060000
060000
060400
060C00
0FF800
0C0800
0C0800
0C0000
0C0200
180400
180400
380C00
FFF800
000000
018000
038000
030000
ENDCHAR
STARTCHAR uni1EC7
ENCODING 7879
SWIDTH 453 0
DWIDTH 11 0
BBX 10 22 2 -4
BITMAP
0600
0F00
1900
2080
0000
0700
18C0
30C0
60C0
6180
4380
CE00
F000
C000
C080
C100
6200
3C00
0000
1800
3800
3000
ENDCHAR
STARTCHAR uni1ECA
ENCODING 7882
SWIDTH 345 0
DWIDTH 9 0
BBX 11 22 1 -4
BITMAP
0FE0
0380
0300
0300
0700
0600
0600
0600
0E00
0E00
0C00
0C00
1C00
1C00
1800
1800
3800
FE00
0000
0C00
1C00
1800
ENDCHAR
STARTCHAR uni1ECB
ENCODING 7883
SWIDTH 317 0
DWIDTH 8 0
BBX 6 22 3 -4
BITMAP
0C
1C
1C
00
00
18
F0
30
30
30
60
60
60
60
48
C8
D0
E0
00
30
70
60
ENDCHAR
STARTCHAR uni1ECC
ENCODING 7884
SWIDTH 753 0
DWIDTH 19 0
BBX 17 22 3 -4
BITMAP
01F800
070C00
0C0600
1C0300
380300
300380
700380
700380
E00380
E00380
E00700
E00700
E00700
600E00
600C00
301800
183000
07C000
000000
018000
038000
030000
ENDCHAR
STARTCHAR uni1ECD
ENCODING 7885
SWIDTH 537 0
DWIDTH 13 0
BBX 12 17 2 -4
BITMAP
07C0
1C60
3830
7030
6030
6030
C070
C060
C060
C0E0
C1C0
6380
3C00
0000
0600
0E00
0C00
ENDCHAR
STARTCHAR uni1ED0
ENCODING 7888
SWIDTH 753 0
DWIDTH 19 0
BBX 17 28 3 0
BITMAP
001000
003800
007000
00C000
010000
000000
003000
007800
018800
030400
01F800
070C00
0C0600
1C0300
380300
300380
700380
700380
E00380
E00380
E00700
E00700
E00700
600E00
600C00
301800
183000
07C000
ENDCHAR
STARTCHAR uni1ED1
ENCODING 7889
SWIDTH 537 0
DWIDTH 13 0
BBX 12 24 2 0
BITMAP
0020
0070
00E0
0180
0200
0000
00C0
03C0
0660
0830
0000
07C0
1C60
3830
7030
6030
6030
C070
C060
C060
C0E0
C1C0
6380
3C00
ENDCHAR
STARTCHAR uni1ED2
ENCODING 7890
SWIDTH 753 0
DWIDTH 19 0
BBX 17 28 3 0
BITMAP
020000
070000
038000
00C000
002000
000000
003000
007800
018800
030400
01F800
070C00
0C0600
1C0300
380300
300380
700380
700380
E00380
E00380
E00700
E00700
E00700
600E00
600C00
301800
183000
07C000
ENDCHAR
STARTCHAR uni1ED3
ENCODING 7891
SWIDTH 537 0
DWIDTH 13 0
BBX 12 24 2 0
BITMAP
0400
0E00
0700
0180
0040
0000
00C0
03C0
0660
0830
0000
07C0
1C60
3830
7030
6030
6030
C070
C060
C060
C0E0
C1C0
6380
3C00
ENDCHAR
STARTCHAR uni1ED6
ENCODING 7894
SWIDTH 753 0
DWIDTH 19 0
BBX 17 26 3 0
BITMAP
00C200
01FC00
020800
000000
003000
007800
018800
030400
01F800
070C00
0C0600
1C0300
380300
300380
700380
700380
E00380
E00380
E00700
E00700
E00700
600E00
600C00
301800
183000
07C000
ENDCHAR
STARTCHAR uni1ED7
ENCODING 7895
SWIDTH 537 0
DWIDTH 13 0
BBX 13 22 2 0
BITMAP
0308
07F0
0820
0000
00C0
03C0
0660
0830
0000
07C0
1C60
3830
7030
6030
6030
C070
C060
C060
C0E0
C1C0
6380
3C00
ENDCHAR
STARTCHAR uni1ED8
ENCODING 7896
SWIDTH 753 0
DWIDTH 19 0
BBX 17 27 3 -4
BITMAP
006000
00F000
019000
020800
000000
01F800
070C00
0C0600
1C0300
380300
300380
700380
700380
E00380
E00380
E00700
E00700
E00700
600E00
600C00
301800
183000
07C000
000000
018000
038000
030000
ENDCHAR
STARTCHAR uni1ED9
ENCODING 7897
SWIDTH 537 0
DWIDTH 13 0
BBX 12 22 2 -4
BITMAP
0300
0780
0C80
1040
0000
07C0
1C60
3830
7030
6030
6030
C070
C060
C060
C0E0
C1C0
6380
3C00
0000
0600
0E00
0C00
ENDCHAR
STARTCHAR uni1EDA
ENCODING 7898
SWIDTH 753 0
DWIDTH 19 0
BBX 19 24 3 0
BITMAP
000400
000E00
001C00
003000
004000
000000
01F860
070CE0
0C0660
1C0340
380380
300380
700380
700380
E00380
E00380
E00700
E00700
E00700
600E00
600C00
301800
183000
07C000
ENDCHAR
STARTCHAR uni1EDB
ENCODING 7899
SWIDTH 537 0
DWIDTH 13 0
BBX 15 19 2 0
BITMAP
0020
0070
00E0
0180
0200
0000
07C6
1C6E
3836
7034
6038
6030
C070
C060
C060
C0E0
C1C0
6380
3C00
ENDCHAR
STARTCHAR uni1EDC
ENCODING 7900
SWIDTH 753 0
DWIDTH 19 0
BBX 19 24 3 0
BITMAP
008000
01C000
00E000
003000
000800
000000
01F860
070CE0
0C0660
1C0340
380380
300380
700380
700380
E00380
E00380
E00700
E00700
E00700
600E00
600C00
301800
183000
07C000
ENDCHAR
STARTCHAR uni1EDD
ENCODING 7901
SWIDTH 537 0
DWIDTH 13 0
BBX 15 19 2 0
BITMAP
0400
0E00
0700
0180
0040
0000
07C6
1C6E
3836
7034
6038
6030
C070
C060
C060
C0E0
C1C0
6380
3C00
ENDCHAR
STARTCHAR uni1EE0
ENCODING 7904
SWIDTH 753 0
DWIDTH 19 0
BBX 19 22 3 0
BITMAP
006100
00FE00
010400
000000
01F860
070CE0
0C0660
1C0340
380380
300380
700380
700380
E00380
E00380
E00700
E00700
E00700
600E00
600C00
301800
183000
07C000
ENDCHAR
STARTCHAR uni1EE1
ENCODING 7905
SWIDTH 537 0
DWIDTH 13 0
BBX 15 17 2 0
BITMAP
0308
07F0
0820
0000
07C6
1C6E
3836
7034
6038
6030
C070
C060
C060
C0E0
C1C0
6380
3C00
ENDCHAR
STARTCHAR uni1EE2
ENCODING 7906
SWIDTH 753 0
DWIDTH 19 0
BBX 19 22 3 -4
BITMAP
01F860
070CE0
0C0660
1C0340
380380
300380
700380
700380
E00380
E00380
E00700
E00700
E00700
600E00
600C00
301800
183000
07C000
000000
00C000
01C000
018000
ENDCHAR
STARTCHAR uni1EE3
ENCODING 7907
SWIDTH 537 0
DWIDTH 13 0
BBX 15 17 2 -4
BITMAP
07C6
1C6E
3836
7034
6038
6030
C070
C060
C060
C0E0
C1C0
6380
3C00
0000
0600
0E00
0C00
ENDCHAR
STARTCHAR uni1EE4
ENCODING 7908
SWIDTH 794 0
DWIDTH 20 0
BBX 18 22 4 -4
BITMAP
FE1FC0
380700
300700
300600
700600
600E00
600E00
600C00
600C00
600C00
C01C00
C01800
C01800
C03800
C03000
607000
70E000
1F8000
000000
030000
070000
060000
ENDCHAR
STARTCHAR uni1EE5
ENCODING 7909
SWIDTH 618 0
DWIDTH 15 0
BBX 13 17 3 -4
BITMAP
1818
F830
3030
3030
7070
6060
6060
60E0
6160
C148
C2C8
CCD0
F0E0
0000
0600
0E00
0C00
ENDCHAR
STARTCHAR uni1EE8
ENCODING 7912
SWIDTH 794 0
DWIDTH 20 0
BBX 20 24 4 0
BITMAP
000400
000E00
001C00
003000
004000
000000
FE1FF0
380770
300730
300620
700640
600E80
600E00
600C00
600C00
600C00
C01C00
C01800
C01800
C03800
C03000
607000
70E000
1F8000
ENDCHAR
STARTCHAR uni1EE9
ENCODING 7913
SWIDTH 618 0
DWIDTH 15 0
BBX 16 19 3 0
BITMAP
0010
0038
0070
00C0
0100
0000
181B
F837
3033
3032
7074
6068
6060
60E0
6160
C148
C2C8
CCD0
F0E0
ENDCHAR
STARTCHAR uni1EEA
ENCODING 7914
SWIDTH 794 0
DWIDTH 20 0
BBX 20 24 4 0
BITMAP
008000
01C000
00E000
003000
000800
000000
FE1FF0
380770
300730
300620
700640
600E80
600E00
600C00
600C00
600C00
C01C00
C01800
C01800
C03800
C03000
607000
70E000
1F8000
ENDCHAR
STARTCHAR uni1EEB
ENCODING 7915
SWIDTH 618 0
DWIDTH 15 0
BBX 16 19 3 0
BITMAP
0200
0700
0380
00C0
0020
0000
181B
F837
3033
3032
7074
6068
6060
60E0
6160
C148
C2C8
CCD0
F0E0
ENDCHAR
STARTCHAR uni1EEE
ENCODING 7918
SWIDTH 794 0
DWIDTH 20 0
BBX 20 22 4 0
BITMAP
006100
00FE00
010400
000000
FE1FF0
380770
300730
300620
700640
600E80
600E00
600C00
600C00
600C00
C01C00
C01800
C01800
C03800
C03000
607000
70E000
1F8000
ENDCHAR
STARTCHAR uni1EEF
ENCODING 7919
SWIDTH 618 0
DWIDTH 15 0
BBX 16 17 3 0
BITMAP
0184
03F8
0410
0000
181B
F837
3033
3032
7074
6068
6060
60E0
6160
C148
C2C8
CCD0
F0E0
ENDCHAR
STARTCHAR uni1EF0
ENCODING 7920
SWIDTH 794 0
DWIDTH 20 0
BBX 20 22 4 -4
BITMAP
FE1FF0
380770
300730
300620
700640
600E80
600E00
600C00
600C00
600C00
C01C00
C01800
C01800
C03800
C03000
607000
70E000
1F8000
000000
018000
038000
030000
ENDCHAR
STARTCHAR uni1EF1
ENCODING 7921
SWIDTH 618 0
DWIDTH 15 0
BBX 16 17 3 -4
BITMAP
181B
F837
3033
3032
7074
6068
6060
60E0
6160
C148
C2C8
CCD0
F0E0
0000
0300
0700
0600
ENDCHAR
STARTCHAR Ygrave
ENCODING 7922
SWIDTH 591 0
DWIDTH 15 0
BBX 16 24 3 0
BITMAP
0400
0E00
0700
0180
0040
0000
FC3F
380C
1818
1810
1830
1C60
0C40
0C80
0D80
0700
0600
0600
0600
0C00
0C00
0C00
0C00
7F00
ENDCHAR
STARTCHAR ygrave
ENCODING 7923
SWIDTH 468 0
DWIDTH 12 0
BBX 13 25 0 -6
BITMAP
0800
1C00
0E00
0300
0080
0000
0C08
3C18
0C18
0C10
0C10
0C20
0E20
0640
0640
0680
0780
0700
0700
0600
0400
0400
0800
D800
E000
ENDCHAR
STARTCHAR uni1EF4
ENCODING 7924
SWIDTH 591 0
DWIDTH 15 0
BBX 16 22 3 -4
BITMAP
FC3F
380C
1818
1810
1830
1C60
0C40
0C80
0D80
0700
0600
0600
0600
0C00
0C00
0C00
0C00
7F00
0000
0600
0E00
0C00
ENDCHAR
STARTCHAR uni1EF5
ENCODING 7925
SWIDTH 468 0
DWIDTH 12 0
BBX 13 23 0 -10
BITMAP
0C08
3C18
0C18
0C10
0C10
0C20
0E20
0640
0640
0680
0780
0700
0700
0600
0400
0400
0800
D800
E000
0000
1800
3800
3000
ENDCHAR
STARTCHAR uni1EF8
ENCODING 7928
SWIDTH 591 0
DWIDTH 15 0
BBX 16 22 3 0
BITMAP
0308
07F0
0820
0000
FC3F
380C
1818
1810
1830
1C60
0C40
0C80
0D80
0700
0600
0600
0600
0C00
0C00
0C00
0C00
7F00
ENDCHAR
STARTCHAR uni1EF9
ENCODING 7929
SWIDTH 468 0
DWIDTH 12 0
BBX 13 23 0 -6
BITMAP
0610
0FE0
1040
0000
0C08
3C18
0C18
0C10
0C10
0C20
0E20
0640
0640
0680
0780
0700
0700
0600
0400
0400
0800
D800
E000
ENDCHAR
STARTCHAR uni2000
ENCODING 8192
SWIDTH 500 0
DWIDTH 13 0
BBX 1 1 0 0
BITMAP
00
ENDCHAR
STARTCHAR uni2001
ENCODING 8193
SWIDTH 1000 0
DWIDTH 25 0
BBX 1 1 0 0
BITMAP
00
ENDCHAR
STARTCHAR uni2002
ENCODING 8194
SWIDTH 500 0
DWIDTH 13 0
BBX 1 1 0 0
BITMAP
00
ENDCHAR
STARTCHAR uni2003
ENCODING 8195
SWIDTH 1000 0
DWIDTH 25 0
BBX 1 1 0 0
BITMAP
00
ENDCHAR
STARTCHAR uni2004
ENCODING 8196
SWIDTH 333 0
DWIDTH 8 0
BBX 1 1 0 0
BITMAP
00
ENDCHAR
STARTCHAR uni2005
ENCODING 8197
SWIDTH 250 0
DWIDTH 6 0
BBX 1 1 0 0
BITMAP
00
ENDCHAR
STARTCHAR uni2006
ENCODING 8198
SWIDTH 167 0
DWIDTH 4 0
BBX 1 1 0 0
BITMAP
00
ENDCHAR
STARTCHAR uni2007
ENCODING 8199
SWIDTH 530 0
DWIDTH 13 0
BBX 1 1 0 0
BITMAP
00
ENDCHAR
STARTCHAR uni2008
ENCODING 8200
SWIDTH 265 0
DWIDTH 7 0
BBX 1 1 0 0
BITMAP
00
ENDCHAR
STARTCHAR uni2009
ENCODING 8201
SWIDTH 200 0
DWIDTH 5 0
BBX 1 1 0 0
BITMAP
00
ENDCHAR
STARTCHAR uni200A
ENCODING 8202
SWIDTH 100 0
DWIDTH 3 0
BBX 1 1 0 0
BITMAP
00
ENDCHAR
STARTCHAR uni200B
ENCODING 8203
SWIDTH 0 0
DWIDTH 0 0
BBX 1 1 0 0
BITMAP
00
ENDCHAR
STARTCHAR uni2010
ENCODING 8208
SWIDTH 392 0
DWIDTH 10 0
BBX 6 2 3 5
BITMAP
FC
FC
ENDCHAR
STARTCHAR uni2011
ENCODING 8209
SWIDTH 392 0
DWIDTH 10 0
BBX 6 2 3 5
BITMAP
FC
FC
ENDCHAR
STARTCHAR figuredash
ENCODING 8210
SWIDTH 500 0
DWIDTH 12 0
BBX 13 1 1 6
BITMAP
FFF8
ENDCHAR
STARTCHAR endash
ENCODING 8211
SWIDTH 500 0
DWIDTH 12 0
BBX 13 1 1 6
BITMAP
FFF8
ENDCHAR
STARTCHAR emdash
ENCODING 8212
SWIDTH 1000 0
DWIDTH 25 0
BBX 25 1 1 6
BITMAP
FFFFFF80
ENDCHAR
STARTCHAR afii00208
ENCODING 8213
SWIDTH 1000 0
DWIDTH 25 0
BBX 25 1 1 6
BITMAP
FFFFFF80
ENDCHAR
STARTCHAR quoteleft
ENCODING 8216
SWIDTH 216 0
DWIDTH 5 0
BBX 4 6 4 12
BITMAP
10
20
40
C0
E0
C0
ENDCHAR
STARTCHAR quoteright
ENCODING 8217
SWIDTH 216 0
DWIDTH 5 0
BBX 4 6 4 13
BITMAP
30
70
30
20
40
80
ENDCHAR
STARTCHAR quotesinglbase
ENCODING 8218
SWIDTH 216 0
DWIDTH 5 0
BBX 4 6 1 -2
BITMAP
30
70
30
20
40
80
ENDCHAR
STARTCHAR quotereversed
ENCODING 8219
SWIDTH 216 0
DWIDTH 5 0
BBX 4 6 4 13
BITMAP
C0
E0
C0
40
20
10
ENDCHAR
STARTCHAR quotedblleft
ENCODING 8220
SWIDTH 402 0
DWIDTH 10 0
BBX 8 6 4 12
BITMAP
11
22
46
C6
EE
C6
ENDCHAR
STARTCHAR quotedblright
ENCODING 8221
SWIDTH 402 0
DWIDTH 10 0
BBX 8 6 4 12
BITMAP
63
77
63
62
44
88
ENDCHAR
STARTCHAR quotedblbase
ENCODING 8222
SWIDTH 402 0
DWIDTH 10 0
BBX 8 6 1 -2
BITMAP
63
77
63
62
44
88
ENDCHAR
STARTCHAR uni201F
ENCODING 8223
SWIDTH 402 0
DWIDTH 10 0
BBX 8 6 4 12
BITMAP
C6
EE
C6
46
22
11
ENDCHAR
STARTCHAR dagger
ENCODING 8224
SWIDTH 500 0
DWIDTH 12 0
BBX 10 21 4 -3
BITMAP
0600
0600
0E00
0C00
0C00
ECC0
FB80
0800
0800
1800
1800
1000
1000
1000
3000
2000
2000
2000
2000
2000
2000
ENDCHAR
STARTCHAR daggerdbl
ENCODING 8225
SWIDTH 490 0
DWIDTH 12 0
BBX 11 22 2 -3
BITMAP
0100
0380
0300
0300
0300
0200
3FE0
26E0
0600
0600
0E00
0E00
0C00
0C00
ECC0
FF80
0800
1800
1800
1800
3800
3000
ENDCHAR
STARTCHAR bullet
ENCODING 8226
SWIDTH 500 0
DWIDTH 12 0
BBX 8 8 4 5
BITMAP
3C
7E
FF
FF
FF
FF
7E
3C
ENDCHAR
STARTCHAR ellipsis
ENCODING 8230
SWIDTH 1000 0
DWIDTH 25 0
BBX 19 3 3 0
BITMAP
E0E0E0
E0E0E0
E0E0E0
ENDCHAR
STARTCHAR perthousand
ENCODING 8240
SWIDTH 1200 0
DWIDTH 30 0
BBX 27 18 3 0
BITMAP
00008000
0E018000
31FF0000
61820000
61840000
C1880000
C3980000
C3300000
46600000
3C470380
00988640
0130CC60
0230C860
0660D860
0C61D860
186198C0
10230980
201E0700
ENDCHAR
STARTCHAR guilsinglleft
ENCODING 8249
SWIDTH 277 0
DWIDTH 7 0
BBX 5 10 3 1
BITMAP
08
10
30
60
C0
C0
60
20
20
10
ENDCHAR
STARTCHAR guilsinglright
ENCODING 8250
SWIDTH 277 0
DWIDTH 7 0
BBX 5 10 2 1
BITMAP
40
20
20
30
18
18
30
60
40
80
ENDCHAR
STARTCHAR fraction
ENCODING 8260
SWIDTH 100 0
DWIDTH 2 0
BBX 14 18 -4 0
BITMAP
0004
000C
0018
0010
0020
0060
00C0
0080
0100
0300
0600
0400
0800
1800
3000
2000
4000
C000
ENDCHAR
STARTCHAR oneinferior
ENCODING 8321
SWIDTH 370 0
DWIDTH 9 0
BBX 6 10 3 -6
BITMAP
0C
3C
08
18
18
18
18
30
30
FC
ENDCHAR
STARTCHAR twoinferior
ENCODING 8322
SWIDTH 370 0
DWIDTH 9 0
BBX 9 10 2 -6
BITMAP
0F00
1900
3180
0180
0300
0600
0C00
1000
6100
FE00
ENDCHAR
STARTCHAR threeinferior
ENCODING 8323
SWIDTH 370 0
DWIDTH 9 0
BBX 8 10 3 -6
BITMAP
1C
63
23
06
3C
04
06
86
CC
78
ENDCHAR
STARTCHAR uni20A5
ENCODING 8357
SWIDTH 912 0
DWIDTH 23 0
BBX 20 18 3 -2
BITMAP
000600
000C00
000C00
18FDC0
793A60
1A3C60
343860
383840
3870C0
3070C0
7060C0
6060C0
60E190
60C190
E1C1A0
C1C1C0
018000
030000
ENDCHAR
STARTCHAR uni20A6
ENCODING 8358
SWIDTH 763 0
DWIDTH 19 0
BBX 22 18 0 0
BITMAP
0F80FC
038030
03C020
02C060
04E060
04E040
07FFC0
047040
0430C0
083880
081880
0FFF80
080C80
180F80
180F00
100700
300700
FC0300
ENDCHAR
STARTCHAR uni20A9
ENCODING 8361
SWIDTH 946 0
DWIDTH 24 0
BBX 25 18 3 0
BITMAP
FC001F80
30180600
301C0400
303C0C00
302C0800
302C1800
31FFF000
304C1000
308C2000
308C2000
110E4000
19FFE000
1A068000
1A068000
1C070000
1C070000
1C070000
18060000
ENDCHAR
STARTCHAR Euro
ENCODING 8364
SWIDTH 661 0
DWIDTH 17 0
BBX 19 18 0 0
BITMAP
003F00
00E0E0
018060
030040
070040
0E0000
FFF000
0C0000
1C0000
1C0000
1C0000
FFF000
1C0000
0C0080
0E0100
060300
030700
00FC00
ENDCHAR
STARTCHAR uni20AD
ENCODING 8365
SWIDTH 650 0
DWIDTH 16 0
BBX 19 18 1 0
BITMAP
0FC7E0
030300
020600
020C00
061000
066000
06C000
058000
FFFFE0
0F8000
0DC000
0CC000
1CE000
1C7000
187000
183800
381C00
FE0700
ENDCHAR
STARTCHAR uni2103
ENCODING 8451
SWIDTH 1041 0
DWIDTH 27 0
BBX 24 18 5 0
BITMAP
0001F8
780707
480C03
841802
843802
847000
487000
786000
00E000
00E000
00E000
00E000
00E000
006004
007008
003018
001838
0007E0
ENDCHAR
STARTCHAR uni2109
ENCODING 8457
SWIDTH 951 0
DWIDTH 24 0
BBX 23 18 5 0
BITMAP
003FFE
780C0E
480C04
840C04
841C04
841800
481800
781810
001830
003FF0
003020
003020
003000
003000
006000
006000
00E000
03FC00
ENDCHAR
STARTCHAR trademark
ENCODING 8482
SWIDTH 1100 0
DWIDTH 27 0
BBX 25 11 3 7
BITMAP
FFDE0780
8C4E0700
8C4B0B00
0C0B0B00
0C090B00
0C099300
0C099300
0C08E300
0C08E300
0C084300
3F1E4780
ENDCHAR
STARTCHAR uni212A
ENCODING 8490
SWIDTH 650 0
DWIDTH 16 0
BBX 19 18 1 0
BITMAP
0FC7E0
030300
020600
020C00
061000
066000
06C000
058000
0F8000
0F8000
0DC000
0CC000
1CE000
1C7000
187000
183800
381C00
FE0700
ENDCHAR
STARTCHAR uni212B
ENCODING 8491
SWIDTH 624 0
DWIDTH 16 0
BBX 17 22 -1 0
BITMAP
001C00
003200
002200
002600
001C00
001C00
003C00
003C00
005C00
005C00
008C00
008C00
010C00
030C00
03FC00
040C00
040E00
080600
180600
100600
300600
FC1F80
ENDCHAR
STARTCHAR uni2132
ENCODING 8498
SWIDTH 571 0
DWIDTH 14 0
BBX 17 18 1 0
BITMAP
007F80
000E00
000C00
000C00
001800
001800
081800
081800
1FF800
183000
103000
003000
003000
407000
406000
406000
E06000
FFF800
ENDCHAR
STARTCHAR minus
ENCODING 8722
SWIDTH 570 0
DWIDTH 14 0
BBX 12 1 2 6
BITMAP
FFF0
ENDCHAR
STARTCHAR fraction
ENCODING 8725
SWIDTH 100 0
DWIDTH 2 0
BBX 14 18 -4 0
BITMAP
0004
000C
0018
0010
0020
0060
00C0
0080
0100
0300
0600
0400
0800
1800
3000
2000
4000
C000
ENDCHAR
STARTCHAR periodcentered
ENCODING 8729
SWIDTH 265 0
DWIDTH 7 0
BBX 3 3 3 5
BITMAP
E0
E0
E0
ENDCHAR
STARTCHAR uni2236
ENCODING 8758
SWIDTH 265 0
DWIDTH 7 0
BBX 5 13 2 0
BITMAP
10
38
38
00
00
00
00
00
00
00
E0
E0
40
ENDCHAR
STARTCHAR uni2259
ENCODING 8793
SWIDTH 570 0
DWIDTH 14 0
BBX 12 11 2 3
BITMAP
0300
0780
0C80
1040
0000
FFF0
0000
0000
0000
0000
FFF0
ENDCHAR
STARTCHAR uni225A
ENCODING 8794
SWIDTH 570 0
DWIDTH 14 0
BBX 12 11 2 3
BITMAP
1040
0980
0F00
0600
0000
FFF0
0000
0000
0000
0000
FFF0
ENDCHAR
STARTCHAR notequal
ENCODING 8800
SWIDTH 570 0
DWIDTH 14 0
BBX 12 18 2 -3
BITMAP
0060
00C0
00C0
00C0
0180
0180
FFF0
0300
0300
0600
0600
FFF0
0C00
0C00
1800
1800
1800
3000
ENDCHAR
STARTCHAR equivalence
ENCODING 8801
SWIDTH 570 0
DWIDTH 14 0
BBX 12 5 0 4
BITMAP
FFF0
0000
FFF0
0000
FFF0
ENDCHAR
STARTCHAR uni2262
ENCODING 8802
SWIDTH 570 0
DWIDTH 14 0
BBX 12 18 0 -2
BITMAP
0060
00C0
00C0
00C0
0180
0180
0100
FFF0
0300
FFF0
0600
FFF0
0C00
0C00
1800
1800
1800
3000
ENDCHAR
STARTCHAR lessequal
ENCODING 8804
SWIDTH 570 0
DWIDTH 14 0
BBX 12 15 2 -2
BITMAP
0020
00E0
03E0
0F00
3C00
F000
8000
E000
3800
0F00
03C0
00E0
0010
0000
FFF0
ENDCHAR
STARTCHAR greaterequal
ENCODING 8805
SWIDTH 570 0
DWIDTH 14 0
BBX 12 15 2 -2
BITMAP
4000
7000
7C00
0F00
03C0
00F0
0010
0070
01C0
0F00
3C00
7000
8000
0000
FFF0
ENDCHAR
STARTCHAR uni226E
ENCODING 8814
SWIDTH 570 0
DWIDTH 14 0
BBX 12 18 2 -2
BITMAP
0060
00C0
00C0
00E0
01E0
03E0
0F00
3F00
F300
8600
E600
3C00
0F00
0FC0
18E0
1810
1800
3000
ENDCHAR
STARTCHAR uni226F
ENCODING 8815
SWIDTH 570 0
DWIDTH 14 0
BBX 12 18 2 -2
BITMAP
0060
00C0
00C0
40C0
7180
7D80
0F00
03C0
03F0
0610
0670
05C0
0F00
3C00
7800
9800
1800
3000
ENDCHAR
STARTCHAR uni2270
ENCODING 8816
SWIDTH 570 0
DWIDTH 14 0
BBX 12 18 2 -3
BITMAP
0060
00C0
00E0
00E0
03E0
0F80
3D00
F300
8300
E600
3E00
0F00
0FC0
0CE0
1810
1800
FFF0
3000
ENDCHAR
STARTCHAR uni2271
ENCODING 8817
SWIDTH 570 0
DWIDTH 14 0
BBX 12 18 2 -3
BITMAP
0060
00C0
40C0
70C0
7D80
0F80
03C0
03F0
0310
0670
07C0
0F00
3C00
7C00
9800
1800
FFF0
3000
ENDCHAR
STARTCHAR fi
ENCODING -1
SWIDTH 607 0
DWIDTH 15 0
BBX 18 25 -2 -6
BITMAP
001F00
003180
0061C0
00C080
00C000
01C000
07FFC0
018380
018380
018300
038300
030700
030700
030600
030600
070E40
060C80
060C80
060F00
060000
0C0000
0C0000
4C0000
E80000
700000
ENDCHAR
STARTCHAR fl
ENCODING -1
SWIDTH 603 0
DWIDTH 15 0
BBX 18 25 -2 -6
BITMAP
001E40
0063C0
0061C0
00C180
00C180
018180
07F380
018300
038300
038300
030300
030600
030600
030600
070600
060C80
060C80
060D00
060E00
0C0000
0C0000
0C0000
880000
C80000
700000
ENDCHAR
ENDFONT
